<?xml version="1.0" standalone="no"?>
<!DOCTYPE svg PUBLIC "-//W3C//DTD SVG 1.1//EN" "http://www.w3.org/Graphics/SVG/1.1/DTD/svg11.dtd" >
<svg>
<metadata>
Created by FontForge 20090622 at Sat Apr 13 04:48:12 2013
 By ffonts
Created by gluk ( gluksza@wp.pl | www.glukfonts.pl ) with FontForge.

</metadata>
<defs>
<font id="GlametrixBold" horiz-adv-x="510" >
  <font-face 
    font-family="Glametrix"
    font-weight="700"
    font-stretch="normal"
    units-per-em="1000"
    panose-1="2 0 8 3 0 0 0 0 0 0"
    ascent="700"
    descent="-300"
    x-height="340"
    cap-height="480"
    bbox="-160 -300 991 730"
    underline-thickness="12"
    underline-position="-180"
    stemh="60"
    stemv="80"
    unicode-range="U+0020-U+FB04"
  />
<missing-glyph horiz-adv-x="500" 
d="M50 0v466h400v-466h-400zM100 50h300v366h-300v-366z" />
    <glyph glyph-name="g_j" unicode="gj" horiz-adv-x="600" 
d="M25 170c0 102 61.2021 170 153.002 170h72l40.0273 -55.8506l9.97266 55.8506h70v-370c0 -105 -76.001 -175 -190 -175c-31.9863 0 -73.9277 3.10645 -105.001 10.6934v77.9697c29.7188 -21.0801 68.5635 -28.6631 104.999 -28.6631c66.001 0 110 46 110 115v96.3037
c-25.9941 -43.3896 -66.5098 -71.3037 -112 -71.3037c-91.7998 0 -153 70 -153 175zM108.002 170c0 -69 34.4004 -115 86 -115c52.9863 0 96 56 96 124.965v100.035h-96c-51.5996 0 -86 -44 -86 -110zM470.002 445v59c0 9.90039 1.09961 11 11 11h69v-59
c0 -9.90039 -1.09961 -11 -11 -11h-69zM385.002 -136.06c12.6025 -5.50098 25.8584 -8.94043 40 -8.94043c27 0 45 24 45 60v425h80v-425c0 -72 -50 -120 -125 -120c-15.4883 0 -27.623 1.60547 -40 4.47656v64.4639z" />
    <glyph glyph-name="f_f" unicode="ff" horiz-adv-x="540" 
d="M50 0l-0.00195312 410c0 87.75 46.5498 135 133 135c31.9863 0 55.9277 -3.10742 87.001 -10.6934v-70.9697c-27.6797 19.6338 -53.0635 26.6631 -86.999 26.6631c-34.4502 0 -53 -28 -53 -80v-70h110v-55h-110v-285h-80zM319.998 0l-0.00195312 284h-35v56h35v70
c0 87.75 46.5498 135 133 135c31.9863 0 55.9277 -3.10742 87.001 -10.6934v-70.9697c-27.6797 19.6338 -53.0635 26.6631 -86.999 26.6631c-34.4502 0 -53 -28 -53 -80v-70h120v-55h-120v-285h-80z" />
    <glyph glyph-name="f_i" unicode="fi" horiz-adv-x="450" 
d="M320 445v59c0 9.90039 1.09961 11 11 11h69v-59c0 -9.90039 -1.09961 -11 -11 -11h-69zM320 340h80v-248c0 -40 3 -94 3 -94l-78 4l-5 88v250zM260 469.941c-23.9697 14.6328 -47.1836 20.0586 -76.999 20.0586c-34.4502 0 -53 -28 -53 -80v-70h125v-55h-125v-285h-80
v410c0 87.75 46.5498 135 133 135c28.4727 0 50.5703 -2.46191 76.999 -8.35352v-66.7051z" />
    <glyph glyph-name="f_l" unicode="fl" horiz-adv-x="450" 
d="M260 469.941c-23.9697 14.6328 -47.1836 20.0586 -76.999 20.0586c-34.4502 0 -53 -28 -53 -80v-70h125v-55h-125v-285h-80v410c0 87.75 46.5498 135 133 135c28.4727 0 50.5703 -2.46191 76.999 -8.35352v-66.7051zM320.001 540h80v-448c0 -40 3 -94 3 -94l-78 4l-5 88
v450z" />
    <glyph glyph-name="f_f_i" unicode="ffi" horiz-adv-x="720" 
d="M530 469.941c-23.9697 14.6328 -47.1836 20.0586 -76.999 20.0586c-34.4502 0 -53 -28 -53 -80v-70h125v-55h-125v-285h-80v284h-35v56h35v70c0 87.75 46.5498 135 133 135c28.4727 0 50.5703 -2.46191 76.999 -8.35352v-66.7051zM590.001 445v59
c0 9.90039 1.09961 11 11 11h69v-59c0 -9.90039 -1.09961 -11 -11 -11h-69zM590.001 340h80v-248c0 -40 3 -94 3 -94l-78 4l-5 88v250zM50.001 0l-0.00195312 410c0 87.75 46.5498 135 133 135c31.9863 0 55.9277 -3.10742 87.001 -10.6934v-70.9697
c-27.6797 19.6338 -53.0635 26.6631 -86.999 26.6631c-34.4502 0 -53 -28 -53 -80v-70h110v-55h-110v-285h-80z" />
    <glyph glyph-name="f_f_l" unicode="ffl" horiz-adv-x="720" 
d="M590 540h80v-448c0 -40 3 -94 3 -94l-78 4l-5 88v450zM50 0l-0.00195312 410c0 87.75 46.5498 135 133 135c31.9863 0 55.9277 -3.10742 87.001 -10.6934v-70.9697c-27.6797 19.6338 -53.0635 26.6631 -86.999 26.6631c-34.4502 0 -53 -28 -53 -80v-70h110v-55h-110v-285
h-80zM529.998 469.941c-23.9697 14.6328 -47.1836 20.0586 -76.999 20.0586c-34.4502 0 -53 -28 -53 -80v-70h125v-55h-125v-285h-80v284h-35v56h35v70c0 87.75 46.5498 135 133 135c28.4727 0 50.5703 -2.46191 76.999 -8.35352v-66.7051z" />
    <glyph glyph-name=".notdef" horiz-adv-x="500" 
d="M50 0v466h400v-466h-400zM100 50h300v366h-300v-366z" />
    <glyph glyph-name="space" unicode=" " horiz-adv-x="180" 
 />
    <glyph glyph-name="exclam" unicode="!" horiz-adv-x="180" 
d="M50 -5v64c0 9.90039 1 11 11 11h74v-64c0 -10 -1 -11 -11 -11h-74zM50 140v340h85v-340h-85z" />
    <glyph glyph-name="quotedbl" unicode="&#x22;" horiz-adv-x="260" 
d="M40 350v130h65v-130h-65zM155 350v130h65v-130h-65z" />
    <glyph glyph-name="numbersign" unicode="#" horiz-adv-x="400" 
d="M252 292h-104v-104h104v104zM252 345v105h53v-105h65v-53h-65v-104h65v-53h-65v-105h-53v105h-104v-105h-53v105h-65v53h65v104h-65v53h65v105h53v-105h104z" />
    <glyph glyph-name="dollar" unicode="$" horiz-adv-x="350" 
d="M40 88l0.000976562 78c39 -28 83 -43 120 -43c51 0 85 16.7998 85 42c0 22.5732 -34.1904 33.0801 -75 44.0146c-58.8252 15.7627 -130 37.4971 -130 105.985c0 54.4453 36.54 85.8115 105 96.1533v88.8467h70v-85.1738c27.0029 -0.742188 52.3848 -3.92188 80 -10.8262
v-80c-28 20 -67 33 -105 33c-45 0 -75 -14.7998 -75 -37c0 -21.7939 33.3389 -30.9873 73 -41.6152c58.7959 -15.7539 132 -35.3848 132 -108.385c0 -48.8711 -40.1973 -85.1045 -105 -98.8994v-91.1006h-70v85.1709c-34.4854 1.43652 -75.3311 11.7031 -105.001 22.8291z
" />
    <glyph glyph-name="percent" unicode="%" horiz-adv-x="716" 
d="M519.864 490.817l49.8232 -41.7451l-385.421 -460l-49.8232 41.7451zM485 118.001c0 -46.7998 27.2002 -78 68 -78s68 31.2002 68 78s-27.2002 78 -68 78s-68 -31.2002 -68 -78zM420 118.001c0 73.7998 53.2002 123 133 123s133 -49.2002 133 -123
s-53.2002 -123 -133 -123s-133 49.2002 -133 123zM95 362.001c0 -46.7998 27.2002 -78 68 -78s68 31.2002 68 78s-27.2002 78 -68 78s-68 -31.2002 -68 -78zM30 362.001c0 73.7998 53.2002 123 133 123s133 -49.2002 133 -123s-53.2002 -123 -133 -123
s-133 49.2002 -133 123z" />
    <glyph glyph-name="ampersand" unicode="&#x26;" 
d="M335 380l-67 -0.000976562c0 28.7998 -18.4004 48 -46 48c-31.2002 0 -52 -21.2002 -52 -53c0 -38.125 30.7402 -74.3154 61 -98.9785l129.849 -105.833c15.3799 32.4863 24.1514 69.9434 24.1514 109.812h70c0 -56.4141 -14.9775 -109.016 -40.8096 -153.286
l70.8096 -57.7129v-86l-109.624 91.7988c-46.7617 -49.4033 -110.35 -79.7988 -180.376 -79.7988c-105 0 -175 52 -175 130c0 47.7715 36.8262 95.3008 127.879 146.904c-25.5078 30.6387 -44.8789 66.835 -44.8789 103.096c0 66 48 110 120 110c67.2002 0 112 -42 112 -105
zM325.526 116.543l-130.081 108.93c-76.208 -41.0723 -95.4453 -69.5029 -95.4453 -99.4736c0 -42.5996 38 -71 95 -71c50.5332 0 96.4785 23.4004 130.526 61.5439z" />
    <glyph glyph-name="quotesingle" unicode="'" horiz-adv-x="145" 
d="M40 350v130h65v-130h-65z" />
    <glyph glyph-name="parenleft" unicode="(" horiz-adv-x="230" 
d="M115 240c0 -116.932 18.085 -281.027 101 -390.002l-32 -25c-107.381 108.536 -154 262.322 -154 415.001c0 152.678 46.6191 306.464 154 415l32 -25c-82.915 -108.974 -101 -273.067 -101 -389.999z" />
    <glyph glyph-name="parenright" unicode=")" horiz-adv-x="230" 
d="M115 240c0 116.932 -18.085 281.025 -101 390l32 25c107.381 -108.536 154 -262.321 154 -415c0 -152.678 -46.6191 -306.464 -154 -415l-32 25c82.915 108.974 101 273.068 101 390z" />
    <glyph glyph-name="asterisk" unicode="*" horiz-adv-x="298" 
d="M171.494 380.918l67.3135 35.5391l16.168 5.25391l17.3047 -53.2598l-16.1689 -5.25293l-75.3457 -10.8105zM178.094 342.163l54.6016 -53.0352l9.99316 -13.7529l-45.3047 -32.917l-9.99219 13.7539l-33.5674 68.3184zM145.179 324.53l-33.5664 -68.3184
l-9.99219 -13.7529l-45.3057 32.916l9.99316 13.7529l54.6016 53.0352zM118.237 352.386l-75.3467 10.8125l-16.168 5.25293l17.3047 53.2598l16.168 -5.25391l67.3125 -35.54zM134.502 387.999l-13 75v17h56v-17l-13 -75h-30z" />
    <glyph glyph-name="plus" unicode="+" horiz-adv-x="360" 
d="M150 210h-120v60h120v120h60v-120h120v-60h-120v-120h-60v120z" />
    <glyph glyph-name="comma" unicode="," horiz-adv-x="180" 
d="M54.9326 -102.981l-26.9326 14.9814l37 81l-20 7v50c0 19 1 20 20 20h70v-41c0 -17 -7.0918 -31.624 -19 -48z" />
    <glyph glyph-name="hyphen" unicode="-" horiz-adv-x="240" 
d="M20 255h200v-65h-200v65z" />
    <glyph glyph-name="period" unicode="." horiz-adv-x="180" 
d="M50 -5v64c0 9.90039 1 11 11 11h74v-64c0 -10 -1 -11 -11 -11h-74z" />
    <glyph glyph-name="slash" unicode="/" horiz-adv-x="425" 
d="M354.549 547.826l60.207 -35.709l-344 -580l-60.207 35.709z" />
    <glyph glyph-name="zero" unicode="0" horiz-adv-x="430" 
d="M115 240c0 -111 40 -185 100 -185s100 74 100 185s-40 185 -100 185s-100 -74 -100 -185zM30 240c0 147 74 245 185 245s185 -98 185 -245s-74 -245 -185 -245s-185 98 -185 245z" />
    <glyph glyph-name="one" unicode="1" horiz-adv-x="230" 
d="M80 0v345h-55v55c45 0 75 32 75 80h65v-480h-85z" />
    <glyph glyph-name="two" unicode="2" horiz-adv-x="355" 
d="M15 0c0 169.06 225 266.979 225 360c0 39 -31.2002 65 -78 65c-42 0 -90.542 -19.542 -122 -51v80c39.6162 20.9727 82 31 122 31c94.7998 0 158 -52 158 -130c0 -120.372 -173.144 -204.87 -222.822 -290h222.822v-65h-305z" />
    <glyph glyph-name="three" unicode="3" horiz-adv-x="350" 
d="M35 391.337l-0.000976562 80.9697c27 7.69336 62 12.6934 90 12.6934c102 0 170 -46 170 -115c0 -42.998 -45.6797 -82.1885 -110.907 -99.5566c81.1104 -15.3877 140.908 -67.9844 140.908 -130.443c0 -87 -80 -145 -200 -145c-31 0 -63.5449 3.79297 -100 12.6934
v80.9697c27.2373 -19.3193 65 -28.6631 100 -28.6631c66.5996 0 110 32 110 80c0 57 -40.4004 95 -101 95h-49v65h25c63 0 105 28 105 70c0 30 -36.4004 50 -91 50c-29 0 -60.6162 -8.52832 -89 -28.6631z" />
    <glyph glyph-name="four" unicode="4" horiz-adv-x="385" 
d="M15 163.679l191.688 316.321h43.3115h33h47v-310h40v-60h-40v-110h-80v110h-235v53.6787zM250 170v255.589l-155.015 -255.589h155.015z" />
    <glyph glyph-name="five" unicode="5" horiz-adv-x="365" 
d="M35 7.69336v80.9697c26.3408 -18.6836 68 -28.6631 107 -28.6631c64.7998 0 108 36 108 90s-43 90 -108 90h-92v240h255v-65h-175v-110h14c118 0 196 -62 196 -155s-78.4004 -155 -196 -155c-35 0 -71.7754 3.60449 -109 12.6934z" />
    <glyph glyph-name="six" unicode="6" horiz-adv-x="410" 
d="M385 155c0 -96 -66.001 -159.999 -165.001 -159.999c-114 0 -190 98 -190 245s83.5996 245 209 245c27 0 61 -7 91 -15.6934v-75.9697c-27.4561 19.4746 -62 33.6621 -89 33.6621c-75.5996 0 -126 -74.7998 -126 -187
c0 -0.791992 0.00585938 -1.58203 0.00585938 -2.36914c23.1963 49.2344 66.4717 82.3691 115.995 82.3691c100.1 0 154 -57.75 154 -165zM122.417 164.859c14.6885 -67.9902 50.1943 -109.858 97.582 -109.858c48 0 80 40 80 100c0 63 -32.7998 105 -82 105
c-49.9531 0 -91.0342 -41.7988 -95.582 -95.1416z" />
    <glyph glyph-name="seven" unicode="7" horiz-adv-x="360" 
d="M237.443 415l-217.442 -0.000976562v65h330s-169.65 -200 -169.65 -480h-85.3662c0 184.528 84.6992 334.311 142.459 415.001z" />
    <glyph glyph-name="eight" unicode="8" horiz-adv-x="420" 
d="M126 360c0 -45 33.5996 -75 84 -75s84 30 84 75c0 39 -33.5996 65 -84 65s-84 -26 -84 -65zM105 130c0 -45 42 -75 105 -75s105 30 105 75c0 54 -42 90 -105 90s-105 -36 -105 -90zM25 130c0 55.7041 46.3115 103.564 112.352 124.182
c-48.4072 20.2344 -81.3506 60.0469 -81.3506 105.82c0 75 61.5996 125 154 125s154 -50 154 -125c0 -45.7734 -32.9443 -85.5869 -81.3516 -105.821c66.04 -20.6172 112.351 -68.4766 112.351 -124.181c0 -81 -74 -135 -185 -135s-185 54 -185 135z" />
    <glyph glyph-name="nine" unicode="9" horiz-adv-x="410" 
d="M25 325c0 96 66.001 160 165.001 160c114 0 190 -98 190 -245s-83.5996 -245 -209 -245c-27 0 -61 7 -91 15.6934v75.9697c27.4561 -19.4756 62 -33.6631 89 -33.6631c75.5996 0 126 74.7998 126 187c0 0.791992 -0.00585938 1.58203 -0.00585938 2.36914
c-23.1963 -49.2344 -66.4717 -82.3691 -115.995 -82.3691c-100.1 0 -154 57.75 -154 165zM287.583 315.142c-14.6875 67.9902 -50.1943 109.858 -97.582 109.858c-48 0 -80 -40 -80 -100c0 -63 32.7998 -105 82 -105c49.9531 0 91.0342 41.7988 95.582 95.1416z" />
    <glyph glyph-name="colon" unicode=":" horiz-adv-x="180" 
d="M50 255v64c0 9.90039 1 11 11 11h74v-64c0 -10 -1 -11 -11 -11h-74zM50 -5v64c0 9.90039 1 11 11 11h74v-64c0 -10 -1 -11 -11 -11h-74z" />
    <glyph glyph-name="semicolon" unicode=";" horiz-adv-x="160" 
d="M50 255v64c0 9.90039 1 11 11 11h74v-64c0 -10 -1 -11 -11 -11h-74zM54.9326 -102.981l-26.9326 14.9814l37 81l-20 7v50c0 19 1 20 20 20h70v-41c0 -17 -7.0918 -31.624 -19 -48z" />
    <glyph glyph-name="less" unicode="&#x3c;" horiz-adv-x="310" 
d="M20 240l250 178.146v-89.1074l-133.869 -89.0391l133.869 -89.0391v-89.1064z" />
    <glyph glyph-name="equal" unicode="=" horiz-adv-x="350" 
d="M30 205h290v-65h-290v65zM30 345h290v-65h-290v65z" />
    <glyph glyph-name="greater" unicode="&#x3e;" horiz-adv-x="310" 
d="M290 240.001l-250 -178.147v89.1074l133.869 89.0391l-133.869 89.0391v89.1064z" />
    <glyph glyph-name="question" unicode="?" horiz-adv-x="330" 
d="M100 -5v64c0 9.90039 1 11 11 11h74v-64c0 -10 -1.09961 -11 -11 -11h-74zM100 140c0 78.9023 34.5713 117.13 68.7471 149c25.0566 23.3652 46.2529 44.3262 46.2529 76c0 39 -32.4004 65 -81 65c-32 0 -68.8828 -13.8828 -104 -49v74c37.9053 20.0664 78 30 116 30
c92.4004 0 154 -49.2002 154 -123c0 -47.2354 -27.3994 -73.8633 -56.5 -101c-31.4561 -29.333 -58.5 -60.7178 -58.5 -121h-85z" />
    <glyph glyph-name="at" unicode="@" horiz-adv-x="680" 
d="M522.297 -101.394c-47.3418 -28.0889 -112.755 -43.6064 -177.297 -43.6064c-189 0 -315 126 -315 315c0 173.88 141.12 315 315 315c183 0 305 -118 305 -295c0 -111.6 -56 -186 -140 -186c-45 0 -86 18 -101 78c-28 -44 -74 -70 -120 -70
c-72.5391 0 -120.898 54.918 -120.898 137.295c0 104.223 59.1592 173.705 147.898 173.705h73l28 -36l8 36h61l-19 -223v-6c0 -24 17.2002 -40 43 -40c48 0 80 54.4004 80 136c0 141 -98 235 -245 235c-140.76 0 -255 -114.24 -255 -255c0 -153 102 -255 255 -255
c55.4512 0 105.997 12.5508 145.658 35.6709zM416 269.999h-95c-49.6963 0 -82.8271 -47.2832 -82.8271 -118.207c0 -51.4756 25.9307 -85.793 64.8271 -85.793c55 0 98.3125 44.0596 104 106z" />
    <glyph glyph-name="A" unicode="A" horiz-adv-x="460" 
d="M15 0l171 480h88l171 -480h-90l-29.833 100h-190.334l-29.833 -100h-90zM151.838 157h156.324l-78.1621 262z" />
    <glyph glyph-name="B" unicode="B" horiz-adv-x="430" 
d="M55 0v479.999h147c103.8 0 173 -48 173 -120c0 -48.7666 -47.3682 -90.4736 -111.369 -107.188c78.6289 -10.9639 141.369 -61.8066 141.369 -122.811c0 -78 -69.2002 -130 -173 -130h-177zM140 219.999v-160h79c60.5996 0 101 28 101 70c0 54 -40.4004 90 -101 90h-79z
M140 419.999v-140h59c60.5996 0 101 32 101 80c0 36 -40.4004 60 -101 60h-59z" />
    <glyph glyph-name="C" unicode="C" horiz-adv-x="400" 
d="M365 7.69336c-28.6133 -6.98633 -65.4824 -12.6934 -100 -12.6934c-141 0 -235 98 -235 245s94 245 235 245c34.5176 0 71.3867 -5.70703 100 -12.6934v-85.9697c-24.0254 17.042 -51.584 28.6631 -90 28.6631c-93 0 -155 -70 -155 -175s58 -175 145 -175
c38.416 0 75.9746 11.6211 100 28.6631v-85.9697z" />
    <glyph glyph-name="D" unicode="D" horiz-adv-x="470" 
d="M55 0v480h147c142.8 0 238 -94 238 -235c0 -147 -95.2002 -245 -238 -245h-147zM140 60h51c96.5996 0 161 74 161 185c0 105 -64.4004 175 -161 175h-51v-360z" />
    <glyph glyph-name="E" unicode="E" horiz-adv-x="380" 
d="M55 0v480h300v-65h-215v-135h175v-60h-175v-155h215v-65h-300z" />
    <glyph glyph-name="F" unicode="F" horiz-adv-x="370" 
d="M55 0v480h290v-65h-205v-145h165v-65h-165v-205h-85z" />
    <glyph glyph-name="G" unicode="G" horiz-adv-x="442" 
d="M255 260h145v-246l-34 -5c-28 -8 -69.4824 -14 -104 -14c-139.2 0 -232 100 -232 250c0 144 94.7998 240 237 240c34.5176 0 75 -7 103 -14.6934v-83.9697c-24.0254 17.042 -54.584 28.6631 -93 28.6631c-95.4004 0 -159 -68 -159 -170c0 -108 57.5996 -180 144 -180
c22.5732 0 44.1602 3.32227 63 9.51953v125.48h-70v60z" />
    <glyph glyph-name="H" unicode="H" horiz-adv-x="470" 
d="M55 0v480h85v-200h190v200h85v-480h-85v220h-190v-220h-85z" />
    <glyph glyph-name="I" unicode="I" horiz-adv-x="195" 
d="M55 0v480h85v-480h-85z" />
    <glyph glyph-name="J" unicode="J" horiz-adv-x="325" 
d="M280 480v-335c0 -90 -64 -150 -160 -150c-24 0 -61.1934 5.31055 -90 13.6934v76.9697c27.9463 -19.8965 60 -30.6631 89 -30.6631c45.5996 0 76 40 76 100v260h-160v65h245z" />
    <glyph glyph-name="K" unicode="K" horiz-adv-x="450" 
d="M151.972 244.858l160.352 235.142h105.676l-185.972 -234.858l202.989 -245.142h-117.367zM54.999 0v480h85v-480h-85z" />
    <glyph glyph-name="L" unicode="L" horiz-adv-x="365" 
d="M55 0v480h85v-415h205v-65h-290z" />
    <glyph glyph-name="M" unicode="M" horiz-adv-x="640" 
d="M55 0v480h83l182 -327l182 327h83v-480h-75v343l-189 -340h-2l-189 340v-343h-75z" />
    <glyph glyph-name="N" unicode="N" horiz-adv-x="470" 
d="M55 0v480h70l225 -336.733v336.733h65v-480h-70l-225 330.733v-330.733h-65z" />
    <glyph glyph-name="O" unicode="O" horiz-adv-x="490" 
d="M118 240c0 -108 50.7998 -180 127 -180s127 72 127 180s-50.7998 180 -127 180s-127 -72 -127 -180zM30 240c0 147 86 245 215 245s215 -98 215 -245s-86 -245 -215 -245s-215 98 -215 245z" />
    <glyph glyph-name="P" unicode="P" horiz-adv-x="425" 
d="M55 0v480h140c123 0 205 -60 205 -150c0 -96 -80 -160 -200 -160h-60v-170h-85zM140 230h59c68.4004 0 114 40 114 100c0 54 -45.5996 90 -114 90h-59v-190z" />
    <glyph glyph-name="Q" unicode="Q" horiz-adv-x="490" 
d="M30 240c0 147 86 245 215 245s215 -98 215 -245c0 -120.4 -57.6924 -207.93 -149.451 -235.664l55.4512 -114.336h-82l-51 156l-34 -46.5576c-103.039 20.6602 -169 111.817 -169 240.558zM227.94 61.252l-16.9395 51.7471l42 10l27.7451 -57.208
c55.9258 19.1143 91.2549 84.1436 91.2549 174.209c0 108 -50.7998 180 -127 180s-127 -72 -127 -180c0 -99.7227 43.3115 -168.753 109.939 -178.748z" />
    <glyph glyph-name="R" unicode="R" horiz-adv-x="430" 
d="M55 0l-0.000976562 480h155c107.4 0 179 -50 179 -125c0 -52.4883 -46.5859 -97.3311 -112.104 -114.981c61.0645 -16.1025 105.412 -55.6396 112.105 -110.019l16 -130h-87l-15 130c-6.25586 54.2139 -46 80 -112 80h-51v-210h-85zM139.999 270h70
c59.4004 0 99 34 99 85c0 39 -39.5996 65 -99 65h-70v-150z" />
    <glyph glyph-name="S" unicode="S" horiz-adv-x="420" 
d="M40 32v83.001c39 -28 113 -60 160 -60c63 0 105 26 105 65c0 40.8301 -46.4033 67.4121 -108 89.8311c-76.7539 27.9365 -157 68.9023 -157 150.168c0 81.25 64.75 125 185 125c44 0 96 -13 130 -31v-80c-27 27 -76 51 -130 51c-65 0 -100 -22.75 -100 -65
c0 -30.6016 35.2422 -46.7578 99 -69.9639c79.6855 -29.0029 166 -68.0361 166 -165.036c0 -78 -76 -130 -190 -130c-50 0 -129 20 -160 37z" />
    <glyph glyph-name="T" unicode="T" horiz-adv-x="405" 
d="M20 480h365v-65h-140v-415h-85v415h-140v65z" />
    <glyph glyph-name="U" unicode="U" horiz-adv-x="440" 
d="M220 60c54 0 90 34 90 85v335h85v-335c0 -90 -70 -150 -175 -150s-175 60 -175 150v335h85v-335c0 -51 36 -85 90 -85z" />
    <glyph glyph-name="V" unicode="V" horiz-adv-x="440" 
d="M261 0h-82l-164 480h104l101 -405l101 405h104z" />
    <glyph glyph-name="W" unicode="W" horiz-adv-x="660" 
d="M241 0h-82l-144 480h104l81 -410l91 410h78l91 -410l81 410h104l-144 -480h-82l-89 336.378z" />
    <glyph glyph-name="X" unicode="X" horiz-adv-x="440" 
d="M118 0h-103l165.324 251.183l-148.324 228.817h100l88 -161.071l88 161.071h100l-148.324 -228.817l165.324 -251.183h-103l-102 183.762z" />
    <glyph glyph-name="Y" unicode="Y" horiz-adv-x="440" 
d="M177 0v185l-162 295h102l103 -239l102 239h103l-163 -295v-185h-85z" />
    <glyph glyph-name="Z" unicode="Z" horiz-adv-x="405" 
d="M19.9834 0l229.129 415h-214.112v65h345l-228.812 -415h218.812v-65h-350.017z" />
    <glyph glyph-name="bracketleft" unicode="[" horiz-adv-x="240" 
d="M60 -200v880h170v-55h-90v-770h90v-55h-170z" />
    <glyph glyph-name="backslash" unicode="\" horiz-adv-x="425" 
d="M70.1465 547.826l344 -580l-60.207 -35.709l-344 580z" />
    <glyph glyph-name="bracketright" unicode="]" horiz-adv-x="240" 
d="M180 680v-880h-170v55h90v770h-90v55h170z" />
    <glyph glyph-name="asciicircum" unicode="^" horiz-adv-x="304" 
d="M152 382.826l-56.6924 -102.826h-68.4424l125.136 205l125.135 -205h-68.4424z" />
    <glyph glyph-name="underscore" unicode="_" horiz-adv-x="320" 
d="M10 -235h300v-65h-300v65z" />
    <glyph glyph-name="grave" unicode="`" horiz-adv-x="180" 
d="M148 356l-123 71v59h54l79 -117z" />
    <glyph glyph-name="a" unicode="a" horiz-adv-x="420" 
d="M25 170c0 102 61.2002 170 153 170h72l40 -56l10.0391 56h69.9609v-248c0 -40 3 -94 3 -94l-73 4l-3.95996 72.9512c-25.4873 -48.2021 -68.8564 -79.9512 -118.04 -79.9512c-91.7998 0 -153 70 -153 175zM108 170c0 -69 34.4004 -115 86 -115c52.9863 0 96 54 96 120
v105h-96c-51.5996 0 -86 -44 -86 -110z" />
    <glyph glyph-name="b" unicode="b" horiz-adv-x="420" 
d="M50 0l-0.000976562 540h80v-256.841l42 56.8408h70c91.7998 0 153 -68 153 -170c0 -105 -61.2002 -175 -153 -175c-49.1016 0 -92.4082 32.5234 -117.912 81.9258l-4.08691 -76.9258h-70zM129.999 280v-100c0 -69 43.0049 -125 96 -125c51.5996 0 86 46 86 115
c0 66 -34.4004 110 -86 110h-96z" />
    <glyph glyph-name="c" unicode="c" horiz-adv-x="340" 
d="M310 7.69336c-28.6133 -6.98633 -60.4824 -12.6934 -95 -12.6934c-114 0 -190 70 -190 175s76 175 190 175c34.5176 0 66.3867 -5.70703 95 -12.6934v-81.9697c-24.0254 17.042 -56.584 26.6631 -95 26.6631c-64.2002 0 -107 -42.7998 -107 -107s42.7998 -107 107 -107
c38.416 0 70.9746 9.62109 95 26.6631v-81.9697z" />
    <glyph glyph-name="d" unicode="d" horiz-adv-x="420" 
d="M25 170c0 102 61.2012 170 153.001 170h70l42 -57.2734v257.273h80v-448c0 -40 3 -94 3 -94l-73 4l-4.06934 74.9609c-25.502 -49.4219 -68.8184 -81.9609 -117.932 -81.9609c-91.7998 0 -153 70 -153 175zM108.001 170c0 -69 34.4004 -115 86 -115
c52.9951 0 96 56 96 125v100h-96c-51.5996 0 -86 -44 -86 -110z" />
    <glyph glyph-name="e" unicode="e" horiz-adv-x="377" 
d="M105.424 156.467l39.5762 43.5322h135c0 58.5 -29.75 90 -85 90c-58.5 0 -90 -42 -90 -120c0 -4.64453 0.141602 -9.15527 0.423828 -13.5322zM106.525 144.999c7.58203 -58.6846 43.2754 -90 103.476 -90c33.9355 0 67.3203 7.0293 94.999 26.6631v-73.9697
c-31.5771 -9.15039 -62.124 -12.6934 -95 -12.6934c-111 0 -185 70 -185 175s68 175 170 175c93 0 155 -58.7998 155 -147v-23c0 -19.5 -11 -30 -30 -30h-213.475z" />
    <glyph glyph-name="f" unicode="f" horiz-adv-x="270" 
d="M50 0l-0.00195312 410c0 87.75 46.5498 135 133 135c31.9863 0 55.9277 -3.10742 87.001 -10.6934v-70.9697c-27.6797 19.6338 -53.0635 26.6631 -86.999 26.6631c-34.4502 0 -53 -28 -53 -80v-70h120v-55h-120v-285h-80z" />
    <glyph glyph-name="g" unicode="g" horiz-adv-x="420" 
d="M25 170c0 102 61.2021 170 153.002 170h72l40.0273 -55.8506l9.97266 55.8506h70v-370c0 -105 -76.001 -175 -190 -175c-31.9863 0 -73.9277 3.10645 -105.001 10.6934v77.9697c29.7188 -21.0801 68.5635 -28.6631 104.999 -28.6631c66.001 0 110 46 110 115v96.3037
c-25.9941 -43.3896 -66.5098 -71.3037 -112 -71.3037c-91.7998 0 -153 70 -153 175zM108.002 170c0 -69 34.4004 -115 86 -115c52.9863 0 96 56 96 124.965v100.035h-96c-51.5996 0 -86 -44 -86 -110z" />
    <glyph glyph-name="h" unicode="h" horiz-adv-x="440" 
d="M50 0v540h80v-280.544c27.1377 51.874 70.7959 85.5439 120 85.5439c87 0 145 -42 145 -105v-240h-80v225c0 36 -28 60 -70 60c-63.4805 0 -115 -67.2002 -115 -150v-135h-80z" />
    <glyph glyph-name="i" unicode="i" horiz-adv-x="180" 
d="M50 445v59c0 9.90039 1.09961 11 11 11h69v-59c0 -9.90039 -1.09961 -11 -11 -11h-69zM50 340h80v-248c0 -40 3 -94 3 -94l-78 4l-5 88v250z" />
    <glyph glyph-name="j" unicode="j" horiz-adv-x="180" 
d="M50 445v59c0 9.90039 1.09961 11 11 11h69v-59c0 -9.90039 -1.09961 -11 -11 -11h-69zM50 340h80v-425c0 -72 -50 -120 -125 -120c-27.1826 0 -44.0391 4.94336 -70 13v73c21.3281 -14.542 44.1865 -26 70 -26c27 0 45 24 45 60v425z" />
    <glyph glyph-name="k" unicode="k" horiz-adv-x="425" 
d="M50 0v540h80v-540h-80zM410.017 0h-112.367l-146.678 174.858l141.352 165.142h100.751l-160.047 -164.858z" />
    <glyph glyph-name="l" unicode="l" horiz-adv-x="180" 
d="M50 540h80v-448c0 -40 3 -94 3 -94l-78 4l-5 88v450z" />
    <glyph glyph-name="m" unicode="m" horiz-adv-x="665" 
d="M50 0v340h74.9609l4.68945 -75.377c25.4141 48.8594 65.4014 80.377 110.351 80.377c72.9648 0 124.021 -32.458 133.432 -82.7539c25.3428 50.2109 65.8945 82.7539 111.567 82.7539c81 0 135 -40 135 -100v-245h-80v230c0 33 -24 55 -60 55
c-57.96 0 -105 -64.96 -105 -145v-140h-80v230c0 33 -24 55 -60 55c-57.9551 0 -104.993 -64.9502 -105 -144.981v-0.0185547v-140h-80z" />
    <glyph glyph-name="n" unicode="n" horiz-adv-x="440" 
d="M50 0l0.000976562 340h74.9609l4.45703 -79.6006c27.0928 51.2588 71.0244 84.6006 120.581 84.6006c87 0 145 -42 145 -105v-240h-80v225c0 36 -28 60 -70 60c-63.4805 0 -115 -64.96 -115 -145v-140h-80z" />
    <glyph glyph-name="o" unicode="o" horiz-adv-x="400" 
d="M25 170c0 105 70 175 175 175s175 -70 175 -175s-70 -175 -175 -175s-175 70 -175 175zM108 170c0 -69 36.7998 -115 92 -115s92 46 92 115s-36.7998 115 -92 115s-92 -46 -92 -115z" />
    <glyph glyph-name="p" unicode="p" horiz-adv-x="420" 
d="M50 340h69.9619l9.80957 -55.7012l40.2285 55.7012h72c91.7998 0 153 -68 153 -170c0 -105 -61.2002 -175 -153 -175c-45.4902 0 -86.0059 27.9141 -112 71.3037v-266.304h-80v540zM130.001 280v-100c0 -69 43.0049 -125 96 -125c51.5996 0 86 46 86 115
c0 66 -34.4004 110 -86 110h-96z" />
    <glyph glyph-name="q" unicode="q" horiz-adv-x="420" 
d="M25 170c0 102 61.2002 170 153 170h72l40.0928 -55.5127l9.94629 55.5127h69.9609v-540h-79.9941v266.312c-25.9941 -43.3945 -66.5127 -71.3125 -112.006 -71.3125c-91.7998 0 -153 70 -153 175zM108 170c0 -69 34.4004 -115 86 -115c52.9951 0 96.0059 56 96.0059 125
v100h-96.0059c-51.5996 0 -86 -44 -86 -110z" />
    <glyph glyph-name="r" unicode="r" horiz-adv-x="310" 
d="M50 340h74.9609l4.29199 -76.6621c28.4893 49.4297 75.1064 81.6621 127.747 81.6621h33v-85h-55c-63 0 -105 -38 -105 -95v-165h-80v340z" />
    <glyph glyph-name="s" unicode="s" horiz-adv-x="352" 
d="M40 18v78c39 -28 88 -43 125 -43c51 0 75 13.7998 75 39c0 22.5732 -29.1904 36.0801 -70 47.0146c-58.8252 15.7627 -130 35.4971 -130 113.985c0 59.7998 54.25 92 155 92c32 0 63 -3 95 -11v-80c-28 20 -62 33 -100 33c-48.75 0 -75 -11.2002 -75 -32
c0 -21.7939 33.3389 -36.9873 73 -47.6152c58.7959 -15.7539 127 -34.3848 127 -107.385c0 -68.25 -56 -105 -160 -105c-36 0 -83 11 -115 23z" />
    <glyph glyph-name="t" unicode="t" horiz-adv-x="298" 
d="M48 430l80.002 30v-120h130v-55h-130v-155c0 -52 18.5498 -80 53 -80c33.9355 0 59.3203 7.0293 86.999 26.6631v-70.9697c-31.0732 -7.58691 -55.0146 -10.6934 -87.001 -10.6934c-86.4502 0 -133 47.25 -133 135v300z" />
    <glyph glyph-name="u" unicode="u" horiz-adv-x="440" 
d="M45 340h79.999v-225c0 -36 28 -60 70 -60c63.4805 0 115 64.96 115 145v140h80v-340h-74.9609l-4.45703 79.6006c-27.0938 -51.2588 -71.0234 -84.6006 -120.581 -84.6006c-87 0 -145 42 -145 105v240z" />
    <glyph glyph-name="v" unicode="v" horiz-adv-x="400" 
d="M160 0l-145 340h102l83 -276l83 276h102l-145 -340h-80z" />
    <glyph glyph-name="w" unicode="w" horiz-adv-x="590" 
d="M135 0l-120 340h102l58 -281l78 281h84l78 -281l58 281h102l-120 -340h-80l-80 230.508l-80 -230.508h-80z" />
    <glyph glyph-name="x" unicode="x" horiz-adv-x="420" 
d="M14.9834 0l159.018 180l-142.072 160h103.751l74.3223 -113l74 113h104.074l-142.074 -160l159.019 -180h-110.369l-84.6504 133l-84.6504 -133h-110.364h-0.000976562h-0.000976562h-0.000976562z" />
    <glyph glyph-name="y" unicode="y" horiz-adv-x="390" 
d="M15 340h94l96 -258l76 258h94l-141 -349c-45 -111 -114 -191 -224 -191v70c79 0 129 63 163 134z" />
    <glyph glyph-name="z" unicode="z" horiz-adv-x="365" 
d="M14.9834 0l205.705 285h-190.688v55h315l-206.015 -285h196.015v-55h-320.017z" />
    <glyph glyph-name="braceleft" unicode="{" horiz-adv-x="260" 
d="M15 262c81 0 90 27.7998 90 188c0 149.5 50.75 230 145 230v-49c-54 0 -60 -11 -60 -191c0 -112.867 -48.9219 -181.61 -122.057 -200c73.1348 -18.3896 122.057 -87.1328 122.057 -200c0 -180 6 -190 60 -190v-50c-94.25 0 -145 80.5 -145 230c0 160.2 -9 188 -90 188
v44z" />
    <glyph glyph-name="bar" unicode="|" horiz-adv-x="240" 
d="M80 -300v1000h80v-1000h-80z" />
    <glyph glyph-name="braceright" unicode="}" horiz-adv-x="260" 
d="M245 218c-81 0 -90 -27.7998 -90 -188c0 -149.5 -50.75 -230 -145 -230v49c54 0 60 11 60 191c0 112.867 48.9219 181.61 122.057 200c-73.1348 18.3896 -122.057 87.1328 -122.057 200c0 180 -6 190 -60 190v50c94.25 0 145 -80.5 145 -230c0 -160.2 9 -188 90 -188v-44
z" />
    <glyph glyph-name="asciitilde" unicode="~" horiz-adv-x="305" 
d="M270 227c-14 -25 -35 -39 -56 -39c-17 0 -39 9.25 -59 18.5s-42 18.5 -59 18.5c-21 0 -42 -15 -56 -40v70c14 25 35 39 56 39c17 0 39 -9.25 59 -18.5s42 -18.5 59 -18.5c21 0 42 15 56 40v-70z" />
    <glyph glyph-name="exclamdown" unicode="&#xa1;" horiz-adv-x="180" 
d="M135 345v-64c0 -9.90039 -1 -11 -11 -11h-74v64c0 10 1 11 11 11h74zM135 200v-340h-85v340h85z" />
    <glyph glyph-name="cent" unicode="&#xa2;" horiz-adv-x="335" 
d="M220 414.842c30.6895 -0.964844 59.1719 -6.22852 85.001 -12.5342v-76.9697c-24.0254 17.042 -56.584 26.6631 -95 26.6631c-66.2998 0 -102 -39.2002 -102 -112s35.7002 -112 102 -112c38.416 0 70.9746 9.62109 95 26.6631v-76.9697
c-25.8291 -6.30664 -54.3115 -11.5703 -85.001 -12.5352v-85.1582h-70v91.0146c-81.6436 17.9785 -125 75.9053 -125 168.985s43.3564 151.006 125 168.984v91.0146h70v-85.1582z" />
    <glyph glyph-name="sterling" unicode="&#xa3;" horiz-adv-x="360" 
d="M330 0h-315v12v43l21.4961 6.1709c20.71 12.9434 33.5039 45.3613 33.5039 88.8291v60h-40v60h40v75c0 84 64.4004 140 161 140c24 0 55.1348 -4.15234 84 -12.6934v-73.9697c-24.0127 17.0322 -58 26.6631 -83 26.6631c-49.2002 0 -82 -33.2002 -82 -83v-72h120v-60
h-120v-60c0 -34.1426 -9.09082 -63.2256 -25.2529 -85h205.253v-65z" />
    <glyph glyph-name="currency" unicode="&#xa4;" horiz-adv-x="360" 
d="M123 240c0 -39.6084 20.8242 -60 57 -60c36.3145 0 57 20.5117 57 60c0 39.6084 -20.8242 60 -57 60c-36.3145 0 -57 -20.5117 -57 -60zM119.411 129.914l-48.4062 -48.4072l-49.498 49.498l49.6924 49.6914c-8.94531 18.502 -13.1992 37.6143 -13.1992 59.3047
c0 21.6943 5.04102 42.4316 13.1992 59.3047l-49.6924 49.6914l49.498 49.498l48.4062 -48.4082c17.7676 9.70703 38.1416 14.915 60.5889 14.915c22.5713 0 44.2734 -6.00098 60.5898 -14.915l48.4062 48.4082l49.498 -49.498l-49.6914 -49.6914
c8.94434 -18.502 13.1982 -37.6152 13.1982 -59.3047c0 -21.6943 -5.04102 -42.4307 -13.1982 -59.3047l49.6914 -49.6914l-49.498 -49.498l-48.4062 48.4072c-17.7686 -9.70605 -38.1416 -14.9141 -60.5889 -14.9141c-22.5713 0 -44.2725 6.00098 -60.5898 14.9141z" />
    <glyph glyph-name="yen" unicode="&#xa5;" horiz-adv-x="435" 
d="M175 0v145h-90v60h76.667l-146.667 275h104l101 -237l106 237h94l-146.667 -275h76.667v-60h-90v-145h-85z" />
    <glyph glyph-name="brokenbar" unicode="&#xa6;" horiz-adv-x="240" 
d="M80 -300v379h80v-379h-80zM80 321v379h80v-379h-80z" />
    <glyph glyph-name="section" unicode="&#xa7;" horiz-adv-x="455" 
d="M123.59 288.908c-27.4678 23.8867 -36.5898 48.9697 -36.5898 77.0928c0 71 60 119 151 119c44 0 83 -11 122 -31v-73c-35 29 -72 44 -118 44c-45 0 -75 -21 -75 -52c0 -25 30 -43 104 -70c119 -43 159 -83 159 -157c0 -49.6787 -37.2705 -87.2695 -98.5898 -104.908
c27.4678 -23.8867 36.5898 -48.9688 36.5898 -77.0918c0 -71 -60 -119 -151 -119c-44 0 -83 11 -122 31v73c35 -29 72 -44 118 -44c45 0 75 21 75 52c0 25 -30 43 -104 70c-119 43 -159 83 -159 157c0 49.6787 37.2715 87.2695 98.5898 104.907zM280.709 73.6025
c39.6348 8.60254 64.291 31.9922 64.291 63.3975c0 34 -31 65 -113 95c-22.2988 8.14355 -41.4004 16.25 -57.708 24.3984c-39.6348 -8.60156 -64.291 -31.9922 -64.291 -63.3975c0 -34 31 -65 113 -95c22.2988 -8.14355 41.4004 -16.25 57.708 -24.3984z" />
    <glyph glyph-name="dieresis" unicode="&#xa8;" horiz-adv-x="240" 
d="M160 420v59c0 9.90039 1.09961 11 11 11h64v-59c0 -9.90039 -1.09961 -11 -11 -11h-64zM5 420v59c0 9.90039 1.09961 11 11 11h64v-59c0 -9.90039 -1.09961 -11 -11 -11h-64z" />
    <glyph glyph-name="copyright" unicode="&#xa9;" horiz-adv-x="630" 
d="M425 97.6934c-28.6133 -6.98633 -55.4824 -12.6934 -90 -12.6934c-96 0 -160 62 -160 155s64 155 160 155c34.5176 0 61.3867 -5.70703 90 -12.6934v-73.9697c-24.0254 17.042 -51.584 26.6631 -90 26.6631c-52.7998 0 -88 -38 -88 -95s35.2002 -95 88 -95
c38.416 0 65.9746 9.62109 90 26.6631v-73.9697zM98 240c0 -136.104 86.2666 -225 217 -225s217 88.8975 217 225c0 136.104 -86.2666 225 -217 225s-217 -88.8975 -217 -225zM30 240c0 171 114 285 285 285s285 -114 285 -285s-114 -285 -285 -285s-285 114 -285 285z" />
    <glyph glyph-name="ordfeminine" unicode="&#xaa;" horiz-adv-x="344" 
d="M242 440h-89c-43 0 -71 -36 -71 -96c0 -57 28 -94 71 -94c53 0 89 37 89 94v96zM295 480v-198c0 -32 2 -75 2 -75l-51 3l-3 53c-22 -35 -58 -59 -99 -59c-69 0 -119 56 -119 140s50 136 119 136h69l29 -32l4 32h49z" />
    <glyph glyph-name="guillemotleft" unicode="&#xab;" horiz-adv-x="325" 
d="M268 48l-110 132l110 132l12 -77l-51 -55l51 -55zM130 48l-110 132l110 132l12 -77l-51 -55l51 -55z" />
    <glyph glyph-name="logicalnot" unicode="&#xac;" horiz-adv-x="365" 
d="M270 85v120h-240v60h300v-180h-60z" />
    <glyph glyph-name="uni00AD" unicode="&#xad;" horiz-adv-x="240" 
d="M20 255h200v-65h-200v65z" />
    <glyph glyph-name="registered" unicode="&#xae;" horiz-adv-x="630" 
d="M98 240c0 -136.104 86.2666 -225 217 -225s217 88.8975 217 225c0 136.104 -86.2666 225 -217 225s-217 -88.8975 -217 -225zM30 240c0 171 114 285 285 285s285 -114 285 -285s-114 -285 -285 -285s-285 114 -285 285zM214.141 86.6719v308.656h98.3184
c68.0059 0 113.343 -30.7656 113.343 -76.9141c0 -33.9121 -23.3555 -70.1006 -76.7461 -83.5283c47.5391 -13.0166 72.8008 -47.0967 78.4941 -91.3555l6.30859 -56.8584h-60.4199l-3.87402 56.8584c-3.76074 43.8877 -32.8066 71.5537 -84.791 71.5537h-10.8359v-128.412
h-59.7969zM273.801 261.147h36.3916c35.0869 0 58.4785 20.0654 58.4785 50.1611c0 23.0439 -24.7598 38.4072 -61.8994 38.4072h-32.834z" />
    <glyph glyph-name="macron" unicode="&#xaf;" horiz-adv-x="240" 
d="M20 465h200v-55h-200v55z" />
    <glyph glyph-name="degree" unicode="&#xb0;" horiz-adv-x="294" 
d="M30 360c0 66.1289 52.3018 120 117 120s117 -53.8711 117 -120s-52.3018 -120 -117 -120s-117 53.8711 -117 120zM90 360c0 -33.3203 25.7432 -60 57 -60c31.2607 0 57 26.6777 57 60c0 33.3203 -25.7432 60 -57 60c-31.2607 0 -57 -26.6777 -57 -60z" />
    <glyph glyph-name="plusminus" unicode="&#xb1;" horiz-adv-x="360" 
d="M320 75v-50h-280v50h280zM155 140v125h-125v50h125v125h50v-125h125v-50h-125v-125h-50z" />
    <glyph glyph-name="uni00B2" unicode="&#xb2;" horiz-adv-x="277" 
d="M15 157.5c0 135.248 180 213.583 180 288c0 31.2002 -24.96 52 -62.4004 52c-33.5996 0 -72.4336 -15.6338 -97.5996 -40.7998v64c31.6934 16.7783 65.5996 24.7998 97.5996 24.7998c75.8408 0 126.4 -41.5996 126.4 -104c0 -96.2979 -138.516 -163.896 -178.258 -232
h178.258v-52h-244z" />
    <glyph glyph-name="uni00B3" unicode="&#xb3;" horiz-adv-x="278" 
d="M32.5 470.069v64.7764c21.5996 6.1543 49.5996 10.1543 72 10.1543c81.5996 0 136 -36.7998 136 -92c0 -34.3984 -36.5439 -65.75 -88.7266 -79.6445c64.8877 -12.3105 112.727 -54.3887 112.727 -104.355c0 -69.5996 -64 -116 -160 -116
c-24.7998 0 -50.8359 3.03418 -80 10.1543v64.7764c21.79 -15.4561 52 -22.9307 80 -22.9307c53.2803 0 88 25.5996 88 64c0 45.5996 -32.3203 76 -80.7998 76h-39.2002v52h20c50.4004 0 84 22.4004 84 56c0 24 -29.1201 40 -72.7998 40
c-23.2002 0 -48.4932 -6.82227 -71.2002 -22.9307z" />
    <glyph glyph-name="acute" unicode="&#xb4;" horiz-adv-x="180" 
d="M32 415l-10 13l79 117h54v-59z" />
    <glyph glyph-name="paragraph" unicode="&#xb6;" horiz-adv-x="455" 
d="M160 324v96h-9c-32.4004 0 -54 -17.2002 -54 -43c0 -31.7998 21.5996 -53 54 -53h9zM235 -160h-75v424h-22c-70.7998 0 -118 45.2002 -118 113c0 61.7998 47.2002 103 118 103h257v-640h-75v580h-85v-580z" />
    <glyph glyph-name="periodcentered" unicode="&#xb7;" horiz-adv-x="160" 
d="M50 207v64c0 9.90039 1 11 11 11h74v-64c0 -10 -1 -11 -11 -11h-74z" />
    <glyph glyph-name="cedilla" unicode="&#xb8;" horiz-adv-x="193" 
d="M37 8h38l-8 -61h8c58.7998 0 98 -30 98 -75c0 -46.2002 -40 -77 -100 -77c-16 0 -33 2 -51 7v46c14 -10 34 -16 51 -16c28.7998 0 48 14.7998 48 37c0 24 -18.7998 40 -47 40h-48z" />
    <glyph glyph-name="uni00B9" unicode="&#xb9;" horiz-adv-x="186" 
d="M69 156v276h-44v44c36 0 60 25.5996 60 64h52v-384h-68z" />
    <glyph glyph-name="ordmasculine" unicode="&#xba;" horiz-adv-x="320" 
d="M87 345c0 -59.7119 29.8809 -97 73 -97s73 37.2881 73 97s-29.8809 97 -73 97s-73 -37.2881 -73 -97zM25 345c0 84 54 140 135 140s135 -56 135 -140s-54 -140 -135 -140s-135 56 -135 140z" />
    <glyph glyph-name="guillemotright" unicode="&#xbb;" horiz-adv-x="325" 
d="M57 312l110 -132l-110 -132l-12 77l51 55l-51 55zM195 312l110 -132l-110 -132l-12 77l51 55l-51 55z" />
    <glyph glyph-name="questiondown" unicode="&#xbf;" horiz-adv-x="330" 
d="M230 345v-64c0 -9.90039 -1 -11 -11 -11h-74v64c0 10 1.09961 11 11 11h74zM230 200c0 -78.9023 -34.5713 -117.13 -68.7471 -149c-25.0566 -23.3652 -46.2529 -44.3262 -46.2529 -76c0 -39 32.4004 -65 81 -65c32 0 68.8828 13.8828 104 49v-74
c-37.9053 -20.0664 -78 -30 -116 -30c-92.4004 0 -154 49.2002 -154 123c0 47.2354 27.3994 73.8633 56.5 101c31.4561 29.333 58.5 60.7178 58.5 121h85z" />
    <glyph glyph-name="Agrave" unicode="&#xc0;" horiz-adv-x="460" 
d="M268 531l-123 71v59h54l79 -117zM15 0l171 480h88l171 -480h-90l-29.833 100h-190.334l-29.833 -100h-90zM151.838 157h156.324l-78.1621 262z" />
    <glyph glyph-name="Aacute" unicode="&#xc1;" horiz-adv-x="460" 
d="M192 531l-10 13l79 117h54v-59zM15 0l171 480h88l171 -480h-90l-29.833 100h-190.334l-29.833 -100h-90zM151.838 157h156.324l-78.1621 262z" />
    <glyph glyph-name="Acircumflex" unicode="&#xc2;" horiz-adv-x="460" 
d="M240 656l96 -66v-54h-23l-83 70.7324l-83 -70.7324h-23v54l96 66h20zM15 0l171 480h88l171 -480h-90l-29.833 100h-190.334l-29.833 -100h-90zM151.838 157h156.324l-78.1621 262z" />
    <glyph glyph-name="Atilde" unicode="&#xc3;" horiz-adv-x="460" 
d="M340 590c-14 -25 -32 -39 -53 -39c-17 0 -37 9.25 -57 18.5s-40 18.5 -57 18.5c-21 0 -39 -15 -53 -40v55c14 25 32 39 53 39c17 0 37 -9.25 57 -18.5s40 -18.5 57 -18.5c21 0 39 15 53 40v-55zM15 0l171 480h88l171 -480h-90l-29.833 100h-190.334l-29.833 -100h-90z
M151.838 157h156.324l-78.1621 262z" />
    <glyph glyph-name="Adieresis" unicode="&#xc4;" horiz-adv-x="460" 
d="M270 566v59c0 9.90039 1.09961 11 11 11h64v-59c0 -9.90039 -1.09961 -11 -11 -11h-64zM115 566v59c0 9.90039 1.09961 11 11 11h64v-59c0 -9.90039 -1.09961 -11 -11 -11h-64zM15 0l171 480h88l171 -480h-90l-29.833 100h-190.334l-29.833 -100h-90zM151.838 157
h156.324l-78.1621 262z" />
    <glyph glyph-name="Aring" unicode="&#xc5;" horiz-adv-x="460" 
d="M148 596c0 51 32.7998 85 82 85s82 -34 82 -85s-32.7998 -85 -82 -85s-82 34 -82 85zM188 596c0 -27 16.7998 -45 42 -45s42 18 42 45s-16.7998 45 -42 45s-42 -18 -42 -45zM15 0l171 480h88l171 -480h-90l-29.833 100h-190.334l-29.833 -100h-90zM151.838 157h156.324
l-78.1621 262z" />
    <glyph glyph-name="AE" unicode="&#xc6;" horiz-adv-x="590" 
d="M105 0h-90l161 480h389v-65h-186v-135h146v-60h-146v-155h186v-65h-271v100h-119.5l-29.7939 43.04zM294 415h-73l-71.3496 -255h144.35v255z" />
    <glyph glyph-name="Ccedilla" unicode="&#xc7;" horiz-adv-x="400" 
d="M365 7.69336c-28.6133 -6.98633 -65.4824 -12.6934 -100 -12.6934c-12.8662 0 -25.3408 0.816406 -37.3887 2.41113l-6.61133 -50.4111h8c58.7998 0 98 -30 98 -75c0 -46.2002 -40 -77 -100 -77c-16 0 -33 2 -51 7v46c14 -10 34 -16 51 -16c28.7998 0 48 14.7998 48 37
c0 24 -18.7998 40 -47 40h-48l10.6768 96.0928c-98.7383 28.543 -160.677 115.581 -160.677 234.907c0 147 94 245 235 245c34.5176 0 71.3867 -5.70703 100 -12.6934v-85.9697c-24.0254 17.042 -51.584 28.6631 -90 28.6631c-93 0 -155 -70 -155 -175s58 -175 145 -175
c38.416 0 75.9746 11.6211 100 28.6631v-85.9697z" />
    <glyph glyph-name="Egrave" unicode="&#xc8;" horiz-adv-x="380" 
d="M250 530l-123 71v59h54l79 -117zM55 0v480h300v-65h-215v-135h175v-60h-175v-155h215v-65h-300z" />
    <glyph glyph-name="Eacute" unicode="&#xc9;" horiz-adv-x="380" 
d="M174 530l-10 13l79 117h54v-59zM55 0v480h300v-65h-215v-135h175v-60h-175v-155h215v-65h-300z" />
    <glyph glyph-name="Ecircumflex" unicode="&#xca;" horiz-adv-x="380" 
d="M222 655l96 -66v-54h-23l-83 70.7324l-83 -70.7324h-23v54l96 66h20zM55 0v480h300v-65h-215v-135h175v-60h-175v-155h215v-65h-300z" />
    <glyph glyph-name="Edieresis" unicode="&#xcb;" horiz-adv-x="380" 
d="M252 565v59c0 9.90039 1.09961 11 11 11h64v-59c0 -9.90039 -1.09961 -11 -11 -11h-64zM97 565v59c0 9.90039 1.09961 11 11 11h64v-59c0 -9.90039 -1.09961 -11 -11 -11h-64zM55 0v480h300v-65h-215v-135h175v-60h-175v-155h215v-65h-300z" />
    <glyph glyph-name="Igrave" unicode="&#xcc;" horiz-adv-x="195" 
d="M136 530l-123 71v59h54l79 -117zM55 0v480h85v-480h-85z" />
    <glyph glyph-name="Iacute" unicode="&#xcd;" horiz-adv-x="195" 
d="M60 530l-10 13l79 117h54v-59zM55 0v480h85v-480h-85z" />
    <glyph glyph-name="Icircumflex" unicode="&#xce;" horiz-adv-x="195" 
d="M108 655l96 -66v-54h-23l-83 70.7324l-83 -70.7324h-23v54l96 66h20zM55 0v480h85v-480h-85z" />
    <glyph glyph-name="Idieresis" unicode="&#xcf;" horiz-adv-x="195" 
d="M138 565v59c0 9.90039 1.09961 11 11 11h64v-59c0 -9.90039 -1.09961 -11 -11 -11h-64zM-17 565v59c0 9.90039 1.09961 11 11 11h64v-59c0 -9.90039 -1.09961 -11 -11 -11h-64zM55 0v480h85v-480h-85z" />
    <glyph glyph-name="Eth" unicode="&#xd0;" horiz-adv-x="495" 
d="M250 270v-60h-85v-150h51c96.5996 0 161 74 161 185c0 105 -64.4004 175 -161 175h-51v-150h85zM80 210h-60v60h60v210h147c142.8 0 238 -94 238 -235c0 -147 -95.2002 -245 -238 -245h-147v210z" />
    <glyph glyph-name="Ntilde" unicode="&#xd1;" horiz-adv-x="470" 
d="M345 589c-14 -25 -32 -39 -53 -39c-17 0 -37 9.25 -57 18.5s-40 18.5 -57 18.5c-21 0 -39 -15 -53 -40v55c14 25 32 39 53 39c17 0 37 -9.25 57 -18.5s40 -18.5 57 -18.5c21 0 39 15 53 40v-55zM55 0v480h70l225 -336.733v336.733h65v-480h-70l-225 330.733v-330.733h-65
z" />
    <glyph glyph-name="Ograve" unicode="&#xd2;" horiz-adv-x="490" 
d="M283 515l-123 71v59h54l79 -117zM118 240c0 -108 50.7998 -180 127 -180s127 72 127 180s-50.7998 180 -127 180s-127 -72 -127 -180zM30 240c0 147 86 245 215 245s215 -98 215 -245s-86 -245 -215 -245s-215 98 -215 245z" />
    <glyph glyph-name="Oacute" unicode="&#xd3;" horiz-adv-x="490" 
d="M207 515l-10 13l79 117h54v-59zM118 240c0 -108 50.7998 -180 127 -180s127 72 127 180s-50.7998 180 -127 180s-127 -72 -127 -180zM30 240c0 147 86 245 215 245s215 -98 215 -245s-86 -245 -215 -245s-215 98 -215 245z" />
    <glyph glyph-name="Ocircumflex" unicode="&#xd4;" horiz-adv-x="490" 
d="M255 640l96 -66v-54h-23l-83 70.7324l-83 -70.7324h-23v54l96 66h20zM118 240c0 -108 50.7998 -180 127 -180s127 72 127 180s-50.7998 180 -127 180s-127 -72 -127 -180zM30 240c0 147 86 245 215 245s215 -98 215 -245s-86 -245 -215 -245s-215 98 -215 245z" />
    <glyph glyph-name="Otilde" unicode="&#xd5;" horiz-adv-x="490" 
d="M355 574c-14 -25 -32 -39 -53 -39c-17 0 -37 9.25 -57 18.5s-40 18.5 -57 18.5c-21 0 -39 -15 -53 -40v55c14 25 32 39 53 39c17 0 37 -9.25 57 -18.5s40 -18.5 57 -18.5c21 0 39 15 53 40v-55zM118 240c0 -108 50.7998 -180 127 -180s127 72 127 180
s-50.7998 180 -127 180s-127 -72 -127 -180zM30 240c0 147 86 245 215 245s215 -98 215 -245s-86 -245 -215 -245s-215 98 -215 245z" />
    <glyph glyph-name="Odieresis" unicode="&#xd6;" horiz-adv-x="490" 
d="M285 550v59c0 9.90039 1.09961 11 11 11h64v-59c0 -9.90039 -1.09961 -11 -11 -11h-64zM130 550v59c0 9.90039 1.09961 11 11 11h64v-59c0 -9.90039 -1.09961 -11 -11 -11h-64zM118 240c0 -108 50.7998 -180 127 -180s127 72 127 180s-50.7998 180 -127 180
s-127 -72 -127 -180zM30 240c0 147 86 245 215 245s215 -98 215 -245s-86 -245 -215 -245s-215 98 -215 245z" />
    <glyph glyph-name="multiply" unicode="&#xd7;" horiz-adv-x="330" 
d="M66.0049 98.5781l-42.4268 42.4268l98.9961 98.9951l-98.9961 98.9951l42.4268 42.4268l98.9951 -98.9961l98.9951 98.9961l42.4268 -42.4268l-98.9961 -98.9951l98.9961 -98.9951l-42.4268 -42.4268l-98.9951 98.9961z" />
    <glyph glyph-name="Oslash" unicode="&#xd8;" horiz-adv-x="490" 
d="M30 240c0 147 86 245 215 245c37.1855 0 70.7988 -8.14258 99.8086 -23.2568l39.2002 64.167l51.1973 -31.2871l-41.9961 -68.7441c42.3564 -43.0908 66.79 -107.523 66.79 -185.879c0 -147 -86 -245 -215 -245c-37.5098 0 -71.3848 8.28613 -100.566 23.6533
l-39.4424 -64.5635l-51.1973 31.2871l42.3809 69.373c-41.9775 43.0879 -66.1748 107.276 -66.1748 185.25zM181.868 79.9307c18.0576 -12.9229 39.3584 -19.9316 63.1318 -19.9316c76.2002 0 127 72 127 180c0 44.249 -8.52832 82.4561 -23.8359 112.144zM141.38 128.747
l166.053 271.814c-17.9072 12.6074 -38.9658 19.4365 -62.4336 19.4365c-76.2002 0 -127 -72 -127 -180c0 -43.8076 8.3584 -81.6924 23.3809 -111.251z" />
    <glyph glyph-name="Ugrave" unicode="&#xd9;" horiz-adv-x="440" 
d="M255 530l-123 71v59h54l79 -117zM220 60c54 0 90 34 90 85v335h85v-335c0 -90 -70 -150 -175 -150s-175 60 -175 150v335h85v-335c0 -51 36 -85 90 -85z" />
    <glyph glyph-name="Uacute" unicode="&#xda;" horiz-adv-x="440" 
d="M179 530l-10 13l79 117h54v-59zM220 60c54 0 90 34 90 85v335h85v-335c0 -90 -70 -150 -175 -150s-175 60 -175 150v335h85v-335c0 -51 36 -85 90 -85z" />
    <glyph glyph-name="Ucircumflex" unicode="&#xdb;" horiz-adv-x="440" 
d="M227 655l96 -66v-54h-23l-83 70.7324l-83 -70.7324h-23v54l96 66h20zM220 60c54 0 90 34 90 85v335h85v-335c0 -90 -70 -150 -175 -150s-175 60 -175 150v335h85v-335c0 -51 36 -85 90 -85z" />
    <glyph glyph-name="Udieresis" unicode="&#xdc;" horiz-adv-x="440" 
d="M257 565v59c0 9.90039 1.09961 11 11 11h64v-59c0 -9.90039 -1.09961 -11 -11 -11h-64zM102 565v59c0 9.90039 1.09961 11 11 11h64v-59c0 -9.90039 -1.09961 -11 -11 -11h-64zM220 60c54 0 90 34 90 85v335h85v-335c0 -90 -70 -150 -175 -150s-175 60 -175 150v335h85
v-335c0 -51 36 -85 90 -85z" />
    <glyph glyph-name="Yacute" unicode="&#xdd;" horiz-adv-x="440" 
d="M182 530l-10 13l79 117h54v-59zM177 0v185l-162 295h102l103 -239l102 239h103l-163 -295v-185h-85z" />
    <glyph glyph-name="Thorn" unicode="&#xde;" horiz-adv-x="405" 
d="M140 180h69c50.4004 0 84 38 84 95c0 51 -33.5996 85 -84 85h-69v-180zM55 0v420v60h85v-60h82c94.7998 0 158 -58 158 -145c0 -93 -63.2002 -155 -158 -155h-82v-120h-85z" />
    <glyph glyph-name="germandbls" unicode="&#xdf;" horiz-adv-x="440" 
d="M55 0v380c0 99 62 165 155 165s155 -48.7998 155 -122c0 -59.3945 -43.0332 -110.064 -103.335 -129.507c86.5957 -10.6699 153.335 -76.7061 153.335 -156.493c0 -85.2002 -60 -142 -150 -142c-29 0 -61.085 10.1572 -90 21v75c29.6611 -18.6143 62.333 -36 96 -36
c36.5996 0 61 32.7998 61 82c0 73.7998 -47.2002 123 -118 123h-29v60h19c49.7998 0 83 41.2002 83 103c0 37.2002 -30.7998 62 -77 62c-45 0 -75 -38 -75 -95v-390h-80z" />
    <glyph glyph-name="agrave" unicode="&#xe0;" horiz-adv-x="420" 
d="M248 410l-123 71v59h54l79 -117zM25 170c0 102 61.2002 170 153 170h72l40 -56l10.0391 56h69.9609v-248c0 -40 3 -94 3 -94l-73 4l-3.95996 72.9512c-25.4873 -48.2021 -68.8564 -79.9512 -118.04 -79.9512c-91.7998 0 -153 70 -153 175zM108 170
c0 -69 34.4004 -115 86 -115c52.9863 0 96 54 96 120v105h-96c-51.5996 0 -86 -44 -86 -110z" />
    <glyph glyph-name="aacute" unicode="&#xe1;" horiz-adv-x="420" 
d="M172 410l-10 13l79 117h54v-59zM25 170c0 102 61.2002 170 153 170h72l40 -56l10.0391 56h69.9609v-248c0 -40 3 -94 3 -94l-73 4l-3.95996 72.9512c-25.4873 -48.2021 -68.8564 -79.9512 -118.04 -79.9512c-91.7998 0 -153 70 -153 175zM108 170
c0 -69 34.4004 -115 86 -115c52.9863 0 96 54 96 120v105h-96c-51.5996 0 -86 -44 -86 -110z" />
    <glyph glyph-name="acircumflex" unicode="&#xe2;" horiz-adv-x="420" 
d="M220 535l96 -66v-54h-23l-83 70.7324l-83 -70.7324h-23v54l96 66h20zM25 170c0 102 61.2002 170 153 170h72l40 -56l10.0391 56h69.9609v-248c0 -40 3 -94 3 -94l-73 4l-3.95996 72.9512c-25.4873 -48.2021 -68.8564 -79.9512 -118.04 -79.9512
c-91.7998 0 -153 70 -153 175zM108 170c0 -69 34.4004 -115 86 -115c52.9863 0 96 54 96 120v105h-96c-51.5996 0 -86 -44 -86 -110z" />
    <glyph glyph-name="atilde" unicode="&#xe3;" horiz-adv-x="420" 
d="M320 469c-14 -25 -32 -39 -53 -39c-17 0 -37 9.25 -57 18.5s-40 18.5 -57 18.5c-21 0 -39 -15 -53 -40v55c14 25 32 39 53 39c17 0 37 -9.25 57 -18.5s40 -18.5 57 -18.5c21 0 39 15 53 40v-55zM25 170c0 102 61.2002 170 153 170h72l40 -56l10.0391 56h69.9609v-248
c0 -40 3 -94 3 -94l-73 4l-3.95996 72.9512c-25.4873 -48.2021 -68.8564 -79.9512 -118.04 -79.9512c-91.7998 0 -153 70 -153 175zM108 170c0 -69 34.4004 -115 86 -115c52.9863 0 96 54 96 120v105h-96c-51.5996 0 -86 -44 -86 -110z" />
    <glyph glyph-name="adieresis" unicode="&#xe4;" horiz-adv-x="420" 
d="M250 445v59c0 9.90039 1.09961 11 11 11h64v-59c0 -9.90039 -1.09961 -11 -11 -11h-64zM95 445v59c0 9.90039 1.09961 11 11 11h64v-59c0 -9.90039 -1.09961 -11 -11 -11h-64zM25 170c0 102 61.2002 170 153 170h72l40 -56l10.0391 56h69.9609v-248c0 -40 3 -94 3 -94
l-73 4l-3.95996 72.9512c-25.4873 -48.2021 -68.8564 -79.9512 -118.04 -79.9512c-91.7998 0 -153 70 -153 175zM108 170c0 -69 34.4004 -115 86 -115c52.9863 0 96 54 96 120v105h-96c-51.5996 0 -86 -44 -86 -110z" />
    <glyph glyph-name="aring" unicode="&#xe5;" horiz-adv-x="420" 
d="M128 475c0 51 32.7998 85 82 85s82 -34 82 -85s-32.7998 -85 -82 -85s-82 34 -82 85zM168 475c0 -27 16.7998 -45 42 -45s42 18 42 45s-16.7998 45 -42 45s-42 -18 -42 -45zM25 170c0 102 61.2002 170 153 170h72l40 -56l10.0391 56h69.9609v-248c0 -40 3 -94 3 -94
l-73 4l-3.95996 72.9512c-25.4873 -48.2021 -68.8564 -79.9512 -118.04 -79.9512c-91.7998 0 -153 70 -153 175zM108 170c0 -69 34.4004 -115 86 -115c52.9863 0 96 54 96 120v105h-96c-51.5996 0 -86 -44 -86 -110z" />
    <glyph glyph-name="ae" unicode="&#xe6;" horiz-adv-x="612" 
d="M260 185v12.1553l-55 -52.1553h-41c-34.7998 0 -58 -20 -58 -50c0 -27 22 -45 55 -45c54.6484 0 99 60.4805 99 135zM260 200l-0.00195312 35c0 32.334 -29 55 -91 55c-32.7002 0 -77.3281 -9.74414 -104 -28.6631v70.9697c32.8066 8.95508 69.9932 12.6934 104 12.6934
c65.5244 0 116.234 -19.3242 142.078 -51.4189c28.1074 32.6611 69.2275 51.4189 118.923 51.4189c93 0 155 -58.7998 155 -147v-23c0 -19.5 -11 -30 -30 -30h-213.475c7.58203 -58.6846 43.2754 -90 103.476 -90c38.416 0 70.9746 9.62109 95 26.6631v-73.9697
c-30 -8.69336 -60.4824 -12.6934 -95 -12.6934c-80.8799 0 -140.992 41.5332 -164.342 108.604c-23.9229 -64.1914 -75.248 -108.604 -134.658 -108.604c-72.5996 0 -121 42 -121 105c0 60 53.2002 100 133 100h102zM340.422 156.467l39.5762 43.5322h135
c0 58.5 -29.75 90 -85 90c-58.5 0 -90 -42 -90 -120c0 -4.64453 0.141602 -9.15527 0.423828 -13.5322z" />
    <glyph glyph-name="ccedilla" unicode="&#xe7;" horiz-adv-x="340" 
d="M310 7.69336c-28.6133 -6.98633 -60.4824 -12.6934 -95 -12.6934c-7.7041 0 -15.2354 0.319336 -22.5811 0.948242l-6.41895 -48.9482h8c58.7998 0 98 -30 98 -75c0 -46.2002 -40 -77 -100 -77c-16 0 -33 2 -51 7v46c14 -10 34 -16 51 -16c28.7998 0 48 14.7998 48 37
c0 24 -18.7998 40 -47 40h-48l10.3438 93.0986c-80.084 20.2725 -130.344 82.5137 -130.344 167.901c0 105 76 175 190 175c34.5176 0 66.3867 -5.70703 95 -12.6934v-81.9697c-24.0254 17.042 -56.584 26.6631 -95 26.6631c-64.2002 0 -107 -42.7998 -107 -107
s42.7998 -107 107 -107c38.416 0 70.9746 9.62109 95 26.6631v-81.9697z" />
    <glyph glyph-name="egrave" unicode="&#xe8;" horiz-adv-x="377" 
d="M223 410l-123 71v59h54l79 -117zM105.424 156.467l39.5762 43.5332h135c0 58.5 -29.75 90 -85 90c-58.5 0 -90 -42 -90 -120c0 -4.64453 0.141602 -9.15625 0.423828 -13.5332zM106.525 145c7.58203 -58.6846 43.2744 -90 103.475 -90
c33.9355 0 67.3213 7.0293 95 26.6631v-73.9697c-31.5771 -9.15039 -62.124 -12.6934 -95 -12.6934c-111 0 -185 70 -185 175s68 175 170 175c93 0 155 -58.7998 155 -147v-23c0 -19.5 -11 -30 -30 -30h-213.475z" />
    <glyph glyph-name="eacute" unicode="&#xe9;" horiz-adv-x="377" 
d="M147 410l-10 13l79 117h54v-59zM105.424 156.467l39.5762 43.5332h135c0 58.5 -29.75 90 -85 90c-58.5 0 -90 -42 -90 -120c0 -4.64453 0.141602 -9.15625 0.423828 -13.5332zM106.525 145c7.58203 -58.6846 43.2744 -90 103.475 -90
c33.9355 0 67.3213 7.0293 95 26.6631v-73.9697c-31.5771 -9.15039 -62.124 -12.6934 -95 -12.6934c-111 0 -185 70 -185 175s68 175 170 175c93 0 155 -58.7998 155 -147v-23c0 -19.5 -11 -30 -30 -30h-213.475z" />
    <glyph glyph-name="ecircumflex" unicode="&#xea;" horiz-adv-x="377" 
d="M195 535l96 -66v-54h-23l-83 70.7324l-83 -70.7324h-23v54l96 66h20zM105.424 156.467l39.5762 43.5332h135c0 58.5 -29.75 90 -85 90c-58.5 0 -90 -42 -90 -120c0 -4.64453 0.141602 -9.15625 0.423828 -13.5332zM106.525 145c7.58203 -58.6846 43.2744 -90 103.475 -90
c33.9355 0 67.3213 7.0293 95 26.6631v-73.9697c-31.5771 -9.15039 -62.124 -12.6934 -95 -12.6934c-111 0 -185 70 -185 175s68 175 170 175c93 0 155 -58.7998 155 -147v-23c0 -19.5 -11 -30 -30 -30h-213.475z" />
    <glyph glyph-name="edieresis" unicode="&#xeb;" horiz-adv-x="377" 
d="M225 445v59c0 9.90039 1.09961 11 11 11h64v-59c0 -9.90039 -1.09961 -11 -11 -11h-64zM70 445v59c0 9.90039 1.09961 11 11 11h64v-59c0 -9.90039 -1.09961 -11 -11 -11h-64zM105.424 156.467l39.5762 43.5332h135c0 58.5 -29.75 90 -85 90c-58.5 0 -90 -42 -90 -120
c0 -4.64453 0.141602 -9.15625 0.423828 -13.5332zM106.525 145c7.58203 -58.6846 43.2744 -90 103.475 -90c33.9355 0 67.3213 7.0293 95 26.6631v-73.9697c-31.5771 -9.15039 -62.124 -12.6934 -95 -12.6934c-111 0 -185 70 -185 175s68 175 170 175
c93 0 155 -58.7998 155 -147v-23c0 -19.5 -11 -30 -30 -30h-213.475z" />
    <glyph glyph-name="igrave" unicode="&#xec;" horiz-adv-x="180" 
d="M128 410l-123 71v59h54l79 -117zM50 340h80v-248c0 -40 3 -94 3 -94l-78 4l-5 88v250z" />
    <glyph glyph-name="iacute" unicode="&#xed;" horiz-adv-x="180" 
d="M52 410l-10 13l79 117h54v-59zM50 340h80v-248c0 -40 3 -94 3 -94l-78 4l-5 88v250z" />
    <glyph glyph-name="icircumflex" unicode="&#xee;" horiz-adv-x="180" 
d="M100 535l96 -66v-54h-23l-83 70.7324l-83 -70.7324h-23v54l96 66h20zM50 340h80v-248c0 -40 3 -94 3 -94l-78 4l-5 88v250z" />
    <glyph glyph-name="idieresis" unicode="&#xef;" horiz-adv-x="180" 
d="M130 445v59c0 9.90039 1.09961 11 11 11h64v-59c0 -9.90039 -1.09961 -11 -11 -11h-64zM-25 445v59c0 9.90039 1.09961 11 11 11h64v-59c0 -9.90039 -1.09961 -11 -11 -11h-64zM50 340h80v-248c0 -40 3 -94 3 -94l-78 4l-5 88v250z" />
    <glyph glyph-name="eth" unicode="&#xf0;" horiz-adv-x="410" 
d="M25 160c0 99 62.3994 165 155.999 165c47.876 0 90.3574 -24.8447 116.768 -63.123c-2.88965 73.1094 -32.5449 131.212 -81.0176 165.803l-55.7031 -58.4893l-42.0918 42.6182l40.958 43.0059c-18.8301 5.37109 -39.2139 8.18555 -60.9121 8.18555h-17l17 52
c37.5811 0 72.3701 -5.2666 103.744 -15.2129l56.21 59.0215l42.0918 -42.6162l-40.3262 -42.3418c74.8672 -44.8994 119.28 -123.903 119.28 -223.851c0 -153 -82 -255 -190 -255c-99 0 -165 66 -165 165zM291.522 170h-0.523438c0 52.4404 -43.4561 95 -97 95
c-51.5996 0 -86 -42 -86 -105s32.7998 -105 82 -105c53.6758 0 88.04 41.3838 101.523 115z" />
    <glyph glyph-name="ntilde" unicode="&#xf1;" horiz-adv-x="440" 
d="M335 469c-14 -25 -32 -39 -53 -39c-17 0 -37 9.25 -57 18.5s-40 18.5 -57 18.5c-21 0 -39 -15 -53 -40v55c14 25 32 39 53 39c17 0 37 -9.25 57 -18.5s40 -18.5 57 -18.5c21 0 39 15 53 40v-55zM50 0v340h74.9609l4.45703 -79.6006
c27.0928 51.2588 71.0254 84.6006 120.582 84.6006c87 0 145 -42 145 -105v-240h-80v225c0 36 -28 60 -70 60c-63.4805 0 -115 -64.96 -115 -145v-140h-80z" />
    <glyph glyph-name="ograve" unicode="&#xf2;" horiz-adv-x="400" 
d="M238 410l-123 71v59h54l79 -117zM25 170c0 105 70 175 175 175s175 -70 175 -175s-70 -175 -175 -175s-175 70 -175 175zM108 170c0 -69 36.7998 -115 92 -115s92 46 92 115s-36.7998 115 -92 115s-92 -46 -92 -115z" />
    <glyph glyph-name="oacute" unicode="&#xf3;" horiz-adv-x="400" 
d="M162 410l-10 13l79 117h54v-59zM25 170c0 105 70 175 175 175s175 -70 175 -175s-70 -175 -175 -175s-175 70 -175 175zM108 170c0 -69 36.7998 -115 92 -115s92 46 92 115s-36.7998 115 -92 115s-92 -46 -92 -115z" />
    <glyph glyph-name="ocircumflex" unicode="&#xf4;" horiz-adv-x="400" 
d="M210 535l96 -66v-54h-23l-83 70.7324l-83 -70.7324h-23v54l96 66h20zM25 170c0 105 70 175 175 175s175 -70 175 -175s-70 -175 -175 -175s-175 70 -175 175zM108 170c0 -69 36.7998 -115 92 -115s92 46 92 115s-36.7998 115 -92 115s-92 -46 -92 -115z" />
    <glyph glyph-name="otilde" unicode="&#xf5;" horiz-adv-x="400" 
d="M310 469c-14 -25 -32 -39 -53 -39c-17 0 -37 9.25 -57 18.5s-40 18.5 -57 18.5c-21 0 -39 -15 -53 -40v55c14 25 32 39 53 39c17 0 37 -9.25 57 -18.5s40 -18.5 57 -18.5c21 0 39 15 53 40v-55zM25 170c0 105 70 175 175 175s175 -70 175 -175s-70 -175 -175 -175
s-175 70 -175 175zM108 170c0 -69 36.7998 -115 92 -115s92 46 92 115s-36.7998 115 -92 115s-92 -46 -92 -115z" />
    <glyph glyph-name="odieresis" unicode="&#xf6;" horiz-adv-x="400" 
d="M240 445v59c0 9.90039 1.09961 11 11 11h64v-59c0 -9.90039 -1.09961 -11 -11 -11h-64zM85 445v59c0 9.90039 1.09961 11 11 11h64v-59c0 -9.90039 -1.09961 -11 -11 -11h-64zM25 170c0 105 70 175 175 175s175 -70 175 -175s-70 -175 -175 -175s-175 70 -175 175z
M108 170c0 -69 36.7998 -115 92 -115s92 46 92 115s-36.7998 115 -92 115s-92 -46 -92 -115z" />
    <glyph glyph-name="divide" unicode="&#xf7;" horiz-adv-x="360" 
d="M137 347v64c0 9.90039 1 11 11 11h74v-64c0 -10 -1 -11 -11 -11h-74zM137 57v64c0 9.90039 1 11 11 11h74v-64c0 -10 -1 -11 -11 -11h-74zM30 210v60h300v-60h-300z" />
    <glyph glyph-name="oslash" unicode="&#xf8;" horiz-adv-x="400" 
d="M25 170c0 105 70 174.999 175 174.999c23.2969 0 44.8711 -3.44629 64.3389 -9.95605l30.5088 50.6787l51.4502 -30.8701l-29.4062 -48.8477c36.7764 -30.7432 58.1084 -78.041 58.1084 -136.005c0 -105 -70 -175 -175 -175
c-23.2969 0 -44.8711 3.44629 -64.3389 9.95605l-30.5088 -50.6787l-51.4502 30.8701l29.4062 48.8477c-36.7764 30.7441 -58.1084 78.042 -58.1084 136.006zM167.92 58.542c9.81348 -3.63086 20.5576 -5.54297 32.0801 -5.54297c57 0 95 46.7998 95 117
c0 28.042 -6.06445 52.3506 -16.9805 71.4336zM121.979 98.5645l110.101 182.891c-9.81348 3.63086 -20.5586 5.54297 -32.0811 5.54297c-57 0 -95 -46.7998 -95 -117c0 -28.042 6.06445 -52.3506 16.9805 -71.4336z" />
    <glyph glyph-name="ugrave" unicode="&#xf9;" horiz-adv-x="440" 
d="M253 410l-123 71v59h54l79 -117zM45 340h80v-225c0 -36 28 -60 70 -60c63.4805 0 115 64.96 115 145v140h80v-340h-74.9609l-4.45703 79.6006c-27.0938 -51.2588 -71.0244 -84.6006 -120.582 -84.6006c-87 0 -145 42 -145 105v240z" />
    <glyph glyph-name="uacute" unicode="&#xfa;" horiz-adv-x="440" 
d="M177 410l-10 13l79 117h54v-59zM45 340h80v-225c0 -36 28 -60 70 -60c63.4805 0 115 64.96 115 145v140h80v-340h-74.9609l-4.45703 79.6006c-27.0938 -51.2588 -71.0244 -84.6006 -120.582 -84.6006c-87 0 -145 42 -145 105v240z" />
    <glyph glyph-name="ucircumflex" unicode="&#xfb;" horiz-adv-x="440" 
d="M225 535l96 -66v-54h-23l-83 70.7324l-83 -70.7324h-23v54l96 66h20zM45 340h80v-225c0 -36 28 -60 70 -60c63.4805 0 115 64.96 115 145v140h80v-340h-74.9609l-4.45703 79.6006c-27.0938 -51.2588 -71.0244 -84.6006 -120.582 -84.6006c-87 0 -145 42 -145 105v240z
" />
    <glyph glyph-name="udieresis" unicode="&#xfc;" horiz-adv-x="440" 
d="M255 445v59c0 9.90039 1.09961 11 11 11h64v-59c0 -9.90039 -1.09961 -11 -11 -11h-64zM100 445v59c0 9.90039 1.09961 11 11 11h64v-59c0 -9.90039 -1.09961 -11 -11 -11h-64zM45 340h80v-225c0 -36 28 -60 70 -60c63.4805 0 115 64.96 115 145v140h80v-340h-74.9609
l-4.45703 79.6006c-27.0938 -51.2588 -71.0244 -84.6006 -120.582 -84.6006c-87 0 -145 42 -145 105v240z" />
    <glyph glyph-name="yacute" unicode="&#xfd;" horiz-adv-x="390" 
d="M159 410l-10 13l79 117h54v-59zM15 340h94l96 -258l76 258h94l-141 -349c-45 -111 -114 -191 -224 -191v70c79 0 129 63 163 134z" />
    <glyph glyph-name="thorn" unicode="&#xfe;" horiz-adv-x="420" 
d="M50 -200v740h80l-0.195312 -251.016l40.1953 51.0156h67c94.7998 0 158 -68 158 -170c0 -105 -61.2002 -175 -153 -175c-47.6143 0 -86.917 28.4678 -112.008 70.7471l-0.03125 -265.747h-79.9609zM129.994 285l-0.000976562 -105c0 -69 39.7344 -125 101.007 -125
c48.5996 0 81 46 81 115s-34.4004 115 -86 115h-96.0059z" />
    <glyph glyph-name="ydieresis" unicode="&#xff;" horiz-adv-x="390" 
d="M237 445v59c0 9.90039 1.09961 11 11 11h64v-59c0 -9.90039 -1.09961 -11 -11 -11h-64zM82 445v59c0 9.90039 1.09961 11 11 11h64v-59c0 -9.90039 -1.09961 -11 -11 -11h-64zM15 340h94l96 -258l76 258h94l-141 -349c-45 -111 -114 -191 -224 -191v70
c79 0 129 63 163 134z" />
    <glyph glyph-name="Amacron" unicode="&#x100;" horiz-adv-x="460" 
d="M138 546v44c0 9.90039 1.09961 11 11 11h173v-44c0 -9.90039 -1.09961 -11 -11 -11h-173zM15 0l171 480h88l171 -480h-90l-29.833 100h-190.334l-29.833 -100h-90zM151.838 157h156.324l-78.1621 262z" />
    <glyph glyph-name="amacron" unicode="&#x101;" horiz-adv-x="420" 
d="M118 425v44c0 9.90039 1.09961 11 11 11h173v-44c0 -9.90039 -1.09961 -11 -11 -11h-173zM25 170c0 102 61.2002 170 153 170h72l40 -56l10.0391 56h69.9609v-248c0 -40 3 -94 3 -94l-73 4l-3.95996 72.9512c-25.4873 -48.2021 -68.8564 -79.9512 -118.04 -79.9512
c-91.7998 0 -153 70 -153 175zM108 170c0 -69 34.4004 -115 86 -115c52.9863 0 96 54 96 120v105h-96c-51.5996 0 -86 -44 -86 -110z" />
    <glyph glyph-name="Abreve" unicode="&#x102;" horiz-adv-x="460" 
d="M230 591c35.8799 0 65 29.1201 65 65h40c0 -72 -42 -120 -105 -120s-105 48 -105 120h35c0 -35.8799 31.3604 -65 70 -65zM15 0l171 480h88l171 -480h-90l-29.833 100h-190.334l-29.833 -100h-90zM151.838 157h156.324l-78.1621 262z" />
    <glyph glyph-name="abreve" unicode="&#x103;" horiz-adv-x="420" 
d="M210 470c35.8799 0 65 29.1201 65 65h40c0 -72 -42 -120 -105 -120s-105 48 -105 120h35c0 -35.8799 31.3604 -65 70 -65zM25 170c0 102 61.2002 170 153 170h72l40 -56l10.0391 56h69.9609v-248c0 -40 3 -94 3 -94l-73 4l-3.95996 72.9512
c-25.4873 -48.2021 -68.8564 -79.9512 -118.04 -79.9512c-91.7998 0 -153 70 -153 175zM108 170c0 -69 34.4004 -115 86 -115c52.9863 0 96 54 96 120v105h-96c-51.5996 0 -86 -44 -86 -110z" />
    <glyph glyph-name="Aogonek" unicode="&#x104;" horiz-adv-x="460" 
d="M148.892 159h158.53l-77.4219 255zM185 479h89.999l170 -480c-75 0 -121 -36 -121 -91c0 -32 22 -53 55 -53c18 0 42 6 70 23v-68c-26 -11 -52 -15 -75 -15c-66 0 -110 41 -110 103c0 46.7793 36.4844 83.7725 91.2412 103.5l-29.6016 97.5h-195.831l-31.8076 -100h-83z
" />
    <glyph glyph-name="aogonek" unicode="&#x105;" horiz-adv-x="420" 
d="M290.006 285h-96.0068c-51.5996 0 -86 -46 -86 -115s32.4004 -115 81 -115c61.2725 0 101.007 56 101.007 125v105zM369.999 340v-248c0 -40 3 -94 3 -94c-57 -9 -93 -42.4229 -93 -89.333c0 -31.8008 22 -53 55 -53c18 0 42.1055 6.06738 70 23.4971v-68.4971
c-25.6719 -10.8086 -52 -15 -75 -15c-66 0 -110 41.1992 -110 103c0 42.7676 32.5889 80.4648 80.6182 103.299l-4.66406 74.5762c-24.5762 -48.1562 -66.3926 -81.542 -117.954 -81.542c-91.7998 0 -153 70 -153 175c0 102 63.2002 170 158 170h67l40.041 -50.8203
l9.99805 50.8203h69.9609z" />
    <glyph glyph-name="Cacute" unicode="&#x106;" horiz-adv-x="400" 
d="M194 530l-10 13l79 117h54v-59zM365 7.69336c-28.6133 -6.98633 -65.4824 -12.6934 -100 -12.6934c-141 0 -235 98 -235 245s94 245 235 245c34.5176 0 71.3867 -5.70703 100 -12.6934v-85.9697c-24.0254 17.042 -51.584 28.6631 -90 28.6631c-93 0 -155 -70 -155 -175
s58 -175 145 -175c38.416 0 75.9746 11.6211 100 28.6631v-85.9697z" />
    <glyph glyph-name="cacute" unicode="&#x107;" horiz-adv-x="340" 
d="M152 410l-10 13l79 117h54v-59zM310 7.69336c-28.6133 -6.98633 -60.4824 -12.6934 -95 -12.6934c-114 0 -190 70 -190 175s76 175 190 175c34.5176 0 66.3867 -5.70703 95 -12.6934v-81.9697c-24.0254 17.042 -56.584 26.6631 -95 26.6631
c-64.2002 0 -107 -42.7998 -107 -107s42.7998 -107 107 -107c38.416 0 70.9746 9.62109 95 26.6631v-81.9697z" />
    <glyph glyph-name="Ccircumflex" unicode="&#x108;" horiz-adv-x="400" 
d="M242 655l96 -66v-54h-23l-83 70.7324l-83 -70.7324h-23v54l96 66h20zM365 7.69336c-28.6133 -6.98633 -65.4824 -12.6934 -100 -12.6934c-141 0 -235 98 -235 245s94 245 235 245c34.5176 0 71.3867 -5.70703 100 -12.6934v-85.9697
c-24.0254 17.042 -51.584 28.6631 -90 28.6631c-93 0 -155 -70 -155 -175s58 -175 145 -175c38.416 0 75.9746 11.6211 100 28.6631v-85.9697z" />
    <glyph glyph-name="ccircumflex" unicode="&#x109;" horiz-adv-x="340" 
d="M200 535l96 -66v-54h-23l-83 70.7324l-83 -70.7324h-23v54l96 66h20zM310 7.69336c-28.6133 -6.98633 -60.4824 -12.6934 -95 -12.6934c-114 0 -190 70 -190 175s76 175 190 175c34.5176 0 66.3867 -5.70703 95 -12.6934v-81.9697
c-24.0254 17.042 -56.584 26.6631 -95 26.6631c-64.2002 0 -107 -42.7998 -107 -107s42.7998 -107 107 -107c38.416 0 70.9746 9.62109 95 26.6631v-81.9697z" />
    <glyph glyph-name="Cdotaccent" unicode="&#x10a;" horiz-adv-x="400" 
d="M192 565v59c0 9.90039 1.09961 11 11 11h69v-59c0 -9.90039 -1.09961 -11 -11 -11h-69zM365 7.69336c-28.6133 -6.98633 -65.4824 -12.6934 -100 -12.6934c-141 0 -235 98 -235 245s94 245 235 245c34.5176 0 71.3867 -5.70703 100 -12.6934v-85.9697
c-24.0254 17.042 -51.584 28.6631 -90 28.6631c-93 0 -155 -70 -155 -175s58 -175 145 -175c38.416 0 75.9746 11.6211 100 28.6631v-85.9697z" />
    <glyph glyph-name="cdotaccent" unicode="&#x10b;" horiz-adv-x="340" 
d="M150 445v59c0 9.90039 1.09961 11 11 11h69v-59c0 -9.90039 -1.09961 -11 -11 -11h-69zM310 7.69336c-28.6133 -6.98633 -60.4824 -12.6934 -95 -12.6934c-114 0 -190 70 -190 175s76 175 190 175c34.5176 0 66.3867 -5.70703 95 -12.6934v-81.9697
c-24.0254 17.042 -56.584 26.6631 -95 26.6631c-64.2002 0 -107 -42.7998 -107 -107s42.7998 -107 107 -107c38.416 0 70.9746 9.62109 95 26.6631v-81.9697z" />
    <glyph glyph-name="Ccaron" unicode="&#x10c;" horiz-adv-x="400" 
d="M222 535l-96 66v54h23l83 -70.7324l83 70.7324h23v-54l-96 -66h-20zM365 7.69336c-28.6133 -6.98633 -65.4824 -12.6934 -100 -12.6934c-141 0 -235 98 -235 245s94 245 235 245c34.5176 0 71.3867 -5.70703 100 -12.6934v-85.9697
c-24.0254 17.042 -51.584 28.6631 -90 28.6631c-93 0 -155 -70 -155 -175s58 -175 145 -175c38.416 0 75.9746 11.6211 100 28.6631v-85.9697z" />
    <glyph glyph-name="ccaron" unicode="&#x10d;" horiz-adv-x="340" 
d="M180 415l-96 66v54h23l83 -70.7324l83 70.7324h23v-54l-96 -66h-20zM310 7.69336c-28.6133 -6.98633 -60.4824 -12.6934 -95 -12.6934c-114 0 -190 70 -190 175s76 175 190 175c34.5176 0 66.3867 -5.70703 95 -12.6934v-81.9697
c-24.0254 17.042 -56.584 26.6631 -95 26.6631c-64.2002 0 -107 -42.7998 -107 -107s42.7998 -107 107 -107c38.416 0 70.9746 9.62109 95 26.6631v-81.9697z" />
    <glyph glyph-name="Dcaron" unicode="&#x10e;" horiz-adv-x="470" 
d="M187 535l-96 66v54h23l83 -70.7324l83 70.7324h23v-54l-96 -66h-20zM55 0v480h147c142.8 0 238 -94 238 -235c0 -147 -95.2002 -245 -238 -245h-147zM140 60h51c96.5996 0 161 74 161 185c0 105 -64.4004 175 -161 175h-51v-360z" />
    <glyph glyph-name="dcaron" unicode="&#x10f;" horiz-adv-x="505" 
d="M444.933 367.019l-26.9326 14.9814l32 81l-20 7v50c0 19 1 20 20 20h70v-41c0 -17 -7.75781 -31.1602 -19 -48zM25 170c0 102 61.2012 170 153.001 170h70l42 -57.2734v257.273h80v-448c0 -40 3 -94 3 -94l-73 4l-4.06934 74.9609
c-25.502 -49.4219 -68.8184 -81.9609 -117.932 -81.9609c-91.7998 0 -153 70 -153 175zM108.001 170c0 -69 34.4004 -115 86 -115c52.9951 0 96 56 96 125v100h-96c-51.5996 0 -86 -44 -86 -110z" />
    <glyph glyph-name="Dcroat" unicode="&#x110;" horiz-adv-x="495" 
d="M250 270v-60h-85v-150h51c96.5996 0 161 74 161 185c0 105 -64.4004 175 -161 175h-51v-150h85zM80 210h-60v60h60v210h147c142.8 0 238 -94 238 -235c0 -147 -95.2002 -245 -238 -245h-147v210z" />
    <glyph glyph-name="dcroat" unicode="&#x111;" horiz-adv-x="420" 
d="M108 170c0 -69 34.4004 -115 86 -115c52.9951 0 96 56 96 125v100h-96c-51.5996 0 -86 -44 -86 -110zM25 170c0 102 61.2012 170 153.001 170h70l42 -57.2734v127.273h-100v60h100v70h80v-70h35v-60h-35v-318c0 -40 3 -94 3 -94l-73 4l-4.06934 74.9609
c-25.502 -49.4219 -68.8184 -81.9609 -117.932 -81.9609c-91.7998 0 -153 70 -153 175z" />
    <glyph glyph-name="Emacron" unicode="&#x112;" horiz-adv-x="380" 
d="M120 545v44c0 9.90039 1.09961 11 11 11h173v-44c0 -9.90039 -1.09961 -11 -11 -11h-173zM55 0v480h300v-65h-215v-135h175v-60h-175v-155h215v-65h-300z" />
    <glyph glyph-name="emacron" unicode="&#x113;" horiz-adv-x="377" 
d="M93 425v44c0 9.90039 1.09961 11 11 11h173v-44c0 -9.90039 -1.09961 -11 -11 -11h-173zM105.424 156.467l39.5762 43.5332h135c0 58.5 -29.75 90 -85 90c-58.5 0 -90 -42 -90 -120c0 -4.64453 0.141602 -9.15625 0.423828 -13.5332zM106.525 145
c7.58203 -58.6846 43.2744 -90 103.475 -90c33.9355 0 67.3213 7.0293 95 26.6631v-73.9697c-31.5771 -9.15039 -62.124 -12.6934 -95 -12.6934c-111 0 -185 70 -185 175s68 175 170 175c93 0 155 -58.7998 155 -147v-23c0 -19.5 -11 -30 -30 -30h-213.475z" />
    <glyph glyph-name="Ebreve" unicode="&#x114;" horiz-adv-x="380" 
d="M212 590c35.8799 0 65 29.1201 65 65h40c0 -72 -42 -120 -105 -120s-105 48 -105 120h35c0 -35.8799 31.3604 -65 70 -65zM55 0v480h300v-65h-215v-135h175v-60h-175v-155h215v-65h-300z" />
    <glyph glyph-name="ebreve" unicode="&#x115;" horiz-adv-x="377" 
d="M185 470c35.8799 0 65 29.1201 65 65h40c0 -72 -42 -120 -105 -120s-105 48 -105 120h35c0 -35.8799 31.3604 -65 70 -65zM105.424 156.467l39.5762 43.5332h135c0 58.5 -29.75 90 -85 90c-58.5 0 -90 -42 -90 -120c0 -4.64453 0.141602 -9.15625 0.423828 -13.5332z
M106.525 145c7.58203 -58.6846 43.2744 -90 103.475 -90c33.9355 0 67.3213 7.0293 95 26.6631v-73.9697c-31.5771 -9.15039 -62.124 -12.6934 -95 -12.6934c-111 0 -185 70 -185 175s68 175 170 175c93 0 155 -58.7998 155 -147v-23c0 -19.5 -11 -30 -30 -30h-213.475z" />
    <glyph glyph-name="Edotaccent" unicode="&#x116;" horiz-adv-x="380" 
d="M172 565v59c0 9.90039 1.09961 11 11 11h69v-59c0 -9.90039 -1.09961 -11 -11 -11h-69zM55 0v480h300v-65h-215v-135h175v-60h-175v-155h215v-65h-300z" />
    <glyph glyph-name="edotaccent" unicode="&#x117;" horiz-adv-x="377" 
d="M145 445v59c0 9.90039 1.09961 11 11 11h69v-59c0 -9.90039 -1.09961 -11 -11 -11h-69zM105.424 156.467l39.5762 43.5332h135c0 58.5 -29.75 90 -85 90c-58.5 0 -90 -42 -90 -120c0 -4.64453 0.141602 -9.15625 0.423828 -13.5332zM106.525 145
c7.58203 -58.6846 43.2744 -90 103.475 -90c33.9355 0 67.3213 7.0293 95 26.6631v-73.9697c-31.5771 -9.15039 -62.124 -12.6934 -95 -12.6934c-111 0 -185 70 -185 175s68 175 170 175c93 0 155 -58.7998 155 -147v-23c0 -19.5 -11 -30 -30 -30h-213.475z" />
    <glyph glyph-name="Eogonek" unicode="&#x118;" horiz-adv-x="380" 
d="M55 0v480h300v-65h-215v-135h175v-60h-175v-155h215v-65c-75 0 -125 -37 -125 -92c0 -32 22 -53 55 -53c18 0 42 6 70 23v-68c-26 -11 -52 -15 -75 -15c-66 0 -110 41 -110 103c0 46.4863 35.7217 82.8291 89.5947 102h-204.595z" />
    <glyph glyph-name="eogonek" unicode="&#x119;" horiz-adv-x="377" 
d="M105.424 156.467l39.5762 43.5322h135c0 58.5 -29.75 90 -85 90c-58.5 0 -90 -42 -90 -120c0 -4.64453 0.141602 -9.15527 0.423828 -13.5322zM106.525 144.999c7.58203 -58.6846 43.2734 -90.001 103.474 -90.001c33.9355 0 67.3203 7.0293 94.999 26.6631v-73.9697
c-17.7148 -5.13379 -35.1055 -8.50195 -52.7656 -10.4707c-53.5469 -10.417 -87.2334 -44.2471 -87.2334 -89.5557c0 -31.8008 22 -53 55 -53c18 0 42.1055 6.06641 70 23.4971v-68.4971c-25.6719 -10.8096 -52 -15 -75 -15c-66 0 -110 41.1992 -110 103
c0 40.1006 27.1182 76.2988 69.4443 99.875c-90.9648 13.4355 -149.443 79.1182 -149.443 172.459c0 105 68 175 170 175c93 0 155 -58.7998 155 -147v-23c0 -19.5 -11 -30 -30 -30h-213.475z" />
    <glyph glyph-name="Ecaron" unicode="&#x11a;" horiz-adv-x="380" 
d="M202 535l-96 66v54h23l83 -70.7324l83 70.7324h23v-54l-96 -66h-20zM55 0v480h300v-65h-215v-135h175v-60h-175v-155h215v-65h-300z" />
    <glyph glyph-name="ecaron" unicode="&#x11b;" horiz-adv-x="377" 
d="M175 415l-96 66v54h23l83 -70.7324l83 70.7324h23v-54l-96 -66h-20zM105.424 156.467l39.5762 43.5332h135c0 58.5 -29.75 90 -85 90c-58.5 0 -90 -42 -90 -120c0 -4.64453 0.141602 -9.15625 0.423828 -13.5332zM106.525 145c7.58203 -58.6846 43.2744 -90 103.475 -90
c33.9355 0 67.3213 7.0293 95 26.6631v-73.9697c-31.5771 -9.15039 -62.124 -12.6934 -95 -12.6934c-111 0 -185 70 -185 175s68 175 170 175c93 0 155 -58.7998 155 -147v-23c0 -19.5 -11 -30 -30 -30h-213.475z" />
    <glyph glyph-name="Gcircumflex" unicode="&#x11c;" horiz-adv-x="442" 
d="M257 655l96 -66v-54h-23l-83 70.7324l-83 -70.7324h-23v54l96 66h20zM255 260h145v-246l-34 -5c-28 -8 -69.4824 -14 -104 -14c-139.2 0 -232 100 -232 250c0 144 94.7998 240 237 240c34.5176 0 75 -7 103 -14.6934v-83.9697
c-24.0254 17.042 -54.584 28.6631 -93 28.6631c-95.4004 0 -159 -68 -159 -170c0 -108 57.5996 -180 144 -180c22.5732 0 44.1602 3.32227 63 9.51953v125.48h-70v60z" />
    <glyph glyph-name="gcircumflex" unicode="&#x11d;" horiz-adv-x="420" 
d="M210 535l96 -66v-54h-23l-83 70.7324l-83 -70.7324h-23v54l96 66h20zM25 170c0 102 61.2002 170 153 170h72l40.0273 -55.8506l9.97266 55.8506h70v-370c0 -105 -76.001 -175 -190 -175c-31.9863 0 -73.9268 3.10645 -105 10.6934v77.9697
c29.7188 -21.0801 68.5645 -28.6631 105 -28.6631c66.001 0 110 46 110 115v96.3037c-25.9941 -43.3896 -66.5098 -71.3037 -112 -71.3037c-91.7998 0 -153 70 -153 175zM108 170c0 -69 34.4004 -115 86 -115c52.9863 0 96 56 96 124.965v100.035h-96
c-51.5996 0 -86 -44 -86 -110z" />
    <glyph glyph-name="Gbreve" unicode="&#x11e;" horiz-adv-x="442" 
d="M247 590c35.8799 0 65 29.1201 65 65h40c0 -72 -42 -120 -105 -120s-105 48 -105 120h35c0 -35.8799 31.3604 -65 70 -65zM255 260h145v-246l-34 -5c-28 -8 -69.4824 -14 -104 -14c-139.2 0 -232 100 -232 250c0 144 94.7998 240 237 240c34.5176 0 75 -7 103 -14.6934
v-83.9697c-24.0254 17.042 -54.584 28.6631 -93 28.6631c-95.4004 0 -159 -68 -159 -170c0 -108 57.5996 -180 144 -180c22.5732 0 44.1602 3.32227 63 9.51953v125.48h-70v60z" />
    <glyph glyph-name="gbreve" unicode="&#x11f;" horiz-adv-x="420" 
d="M200 470c35.8799 0 65 29.1201 65 65h40c0 -72 -42 -120 -105 -120s-105 48 -105 120h35c0 -35.8799 31.3604 -65 70 -65zM25 170c0 102 61.2002 170 153 170h72l40.0273 -55.8506l9.97266 55.8506h70v-370c0 -105 -76.001 -175 -190 -175
c-31.9863 0 -73.9268 3.10645 -105 10.6934v77.9697c29.7188 -21.0801 68.5645 -28.6631 105 -28.6631c66.001 0 110 46 110 115v96.3037c-25.9941 -43.3896 -66.5098 -71.3037 -112 -71.3037c-91.7998 0 -153 70 -153 175zM108 170c0 -69 34.4004 -115 86 -115
c52.9863 0 96 56 96 124.965v100.035h-96c-51.5996 0 -86 -44 -86 -110z" />
    <glyph glyph-name="Gdotaccent" unicode="&#x120;" horiz-adv-x="442" 
d="M207 565v59c0 9.90039 1.09961 11 11 11h69v-59c0 -9.90039 -1.09961 -11 -11 -11h-69zM255 260h145v-246l-34 -5c-28 -8 -69.4824 -14 -104 -14c-139.2 0 -232 100 -232 250c0 144 94.7998 240 237 240c34.5176 0 75 -7 103 -14.6934v-83.9697
c-24.0254 17.042 -54.584 28.6631 -93 28.6631c-95.4004 0 -159 -68 -159 -170c0 -108 57.5996 -180 144 -180c22.5732 0 44.1602 3.32227 63 9.51953v125.48h-70v60z" />
    <glyph glyph-name="gdotaccent" unicode="&#x121;" horiz-adv-x="420" 
d="M160 445v59c0 9.90039 1.09961 11 11 11h69v-59c0 -9.90039 -1.09961 -11 -11 -11h-69zM25 170c0 102 61.2002 170 153 170h72l40.0273 -55.8506l9.97266 55.8506h70v-370c0 -105 -76.001 -175 -190 -175c-31.9863 0 -73.9268 3.10645 -105 10.6934v77.9697
c29.7188 -21.0801 68.5645 -28.6631 105 -28.6631c66.001 0 110 46 110 115v96.3037c-25.9941 -43.3896 -66.5098 -71.3037 -112 -71.3037c-91.7998 0 -153 70 -153 175zM108 170c0 -69 34.4004 -115 86 -115c52.9863 0 96 56 96 124.965v100.035h-96
c-51.5996 0 -86 -44 -86 -110z" />
    <glyph glyph-name="Gcommaaccent" unicode="&#x122;" horiz-adv-x="442" 
d="M222.933 -204.981l-30.9326 15.9814l28 62l-20 7v50c0 19 1 20 20 20h70v-41c0 -17 -7.07715 -31.6328 -19 -48zM255 260h145v-246l-34 -5c-28 -8 -69.4824 -14 -104 -14c-139.2 0 -232 100 -232 250c0 144 94.7998 240 237 240c34.5176 0 75 -7 103 -14.6934v-83.9697
c-24.0254 17.042 -54.584 28.6631 -93 28.6631c-95.4004 0 -159 -68 -159 -170c0 -108 57.5996 -180 144 -180c22.5732 0 44.1602 3.32227 63 9.51953v125.48h-70v60z" />
    <glyph glyph-name="gcommaaccent" unicode="&#x123;" horiz-adv-x="420" 
d="M224.067 545l26.9326 -14.9814l-31 -71l20 -7v-50c0 -19 -1 -20 -20 -20h-70v41c0 17 6.91016 31.7578 19 48zM25 170c0 102 61.2002 170 153 170h72l40.0273 -55.8506l9.97266 55.8506h70v-370c0 -105 -76.001 -175 -190 -175c-31.9863 0 -73.9268 3.10645 -105 10.6934
v77.9697c29.7188 -21.0801 68.5645 -28.6631 105 -28.6631c66.001 0 110 46 110 115v96.3037c-25.9941 -43.3896 -66.5098 -71.3037 -112 -71.3037c-91.7998 0 -153 70 -153 175zM108 170c0 -69 34.4004 -115 86 -115c52.9863 0 96 56 96 124.965v100.035h-96
c-51.5996 0 -86 -44 -86 -110z" />
    <glyph glyph-name="Hcircumflex" unicode="&#x124;" horiz-adv-x="470" 
d="M245 655l96 -66v-54h-23l-83 70.7324l-83 -70.7324h-23v54l96 66h20zM55 0v480h85v-200h190v200h85v-480h-85v220h-190v-220h-85z" />
    <glyph glyph-name="hcircumflex" unicode="&#x125;" horiz-adv-x="440" 
d="M240 695l96 -66v-54h-23l-83 70.7324l-83 -70.7324h-23v54l96 66h20zM50 0v540h80v-280.544c27.1377 51.874 70.7959 85.5439 120 85.5439c87 0 145 -42 145 -105v-240h-80v225c0 36 -28 60 -70 60c-63.4805 0 -115 -67.2002 -115 -150v-135h-80z" />
    <glyph glyph-name="Hbar" unicode="&#x126;" horiz-adv-x="470" 
d="M445 410v-45h-40v-365h-65v225h-210v-225h-65v365h-40v45h40v70h65v-70h210v70h65v-70h40zM340 365h-210v-90h210v90z" />
    <glyph glyph-name="hbar" unicode="&#x127;" horiz-adv-x="440" 
d="M50 0v415h-35v55h35v70h80v-70h80v-55h-80v-155.544c27.1377 51.874 70.7959 85.5439 120 85.5439c87 0 145 -42 145 -105v-240h-80v225c0 36 -28 60 -70 60c-63.4805 0 -115 -67.2002 -115 -150v-135h-80z" />
    <glyph glyph-name="Itilde" unicode="&#x128;" horiz-adv-x="195" 
d="M208 589c-14 -25 -32 -39 -53 -39c-17 0 -37 9.25 -57 18.5s-40 18.5 -57 18.5c-21 0 -39 -15 -53 -40v55c14 25 32 39 53 39c17 0 37 -9.25 57 -18.5s40 -18.5 57 -18.5c21 0 39 15 53 40v-55zM55 0v480h85v-480h-85z" />
    <glyph glyph-name="itilde" unicode="&#x129;" horiz-adv-x="180" 
d="M200 469c-14 -25 -32 -39 -53 -39c-17 0 -37 9.25 -57 18.5s-40 18.5 -57 18.5c-21 0 -39 -15 -53 -40v55c14 25 32 39 53 39c17 0 37 -9.25 57 -18.5s40 -18.5 57 -18.5c21 0 39 15 53 40v-55zM50 340h80v-248c0 -40 3 -94 3 -94l-78 4l-5 88v250z" />
    <glyph glyph-name="Imacron" unicode="&#x12a;" horiz-adv-x="195" 
d="M6 545v44c0 9.90039 1.09961 11 11 11h173v-44c0 -9.90039 -1.09961 -11 -11 -11h-173zM55 0v480h85v-480h-85z" />
    <glyph glyph-name="imacron" unicode="&#x12b;" horiz-adv-x="180" 
d="M-2 425v44c0 9.90039 1.09961 11 11 11h173v-44c0 -9.90039 -1.09961 -11 -11 -11h-173zM50 340h80v-248c0 -40 3 -94 3 -94l-78 4l-5 88v250z" />
    <glyph glyph-name="Ibreve" unicode="&#x12c;" horiz-adv-x="195" 
d="M98 590c35.8799 0 65 29.1201 65 65h40c0 -72 -42 -120 -105 -120s-105 48 -105 120h35c0 -35.8799 31.3604 -65 70 -65zM55 0v480h85v-480h-85z" />
    <glyph glyph-name="ibreve" unicode="&#x12d;" horiz-adv-x="180" 
d="M90 470c35.8799 0 65 29.1201 65 65h40c0 -72 -42 -120 -105 -120s-105 48 -105 120h35c0 -35.8799 31.3604 -65 70 -65zM50 340h80v-248c0 -40 3 -94 3 -94l-78 4l-5 88v250z" />
    <glyph glyph-name="Iogonek" unicode="&#x12e;" horiz-adv-x="195" 
d="M140 0c-59 -8 -92.5 -44.0732 -92.5 -92.333c0 -31.8008 22 -53 55 -53c18 0 42.1055 6.06641 70 23.4971v-68.4971c-25.6719 -10.8096 -52 -15 -75 -15c-66 0 -110 41.1992 -110 103c0 40.6807 25.918 77.7852 67.5 101.847v480.486h85v-480z" />
    <glyph glyph-name="iogonek" unicode="&#x12f;" horiz-adv-x="180" 
d="M50 445v59c0 9.90039 1.09961 11 11 11h69v-59c0 -9.90039 -1.09961 -11 -11 -11h-69zM50 340h80v-248c0 -40 3 -92 3 -92c-59 -8 -92.5 -44.0732 -92.5 -92.333c0 -31.8008 22 -53 55 -53c18 0 42.1055 6.06641 70 23.4971v-68.4971c-25.6719 -10.8096 -52 -15 -75 -15
c-66 0 -110 41.1992 -110 103c0 42.8945 28.8145 81.8125 74.4248 105.657l-4.9248 86.6758v250z" />
    <glyph glyph-name="Idotaccent" unicode="&#x130;" horiz-adv-x="195" 
d="M58 565v59c0 9.90039 1.09961 11 11 11h69v-59c0 -9.90039 -1.09961 -11 -11 -11h-69zM55 0v480h85v-480h-85z" />
    <glyph glyph-name="dotlessi" unicode="&#x131;" horiz-adv-x="180" 
d="M50 340h80v-248c0 -40 3 -94 3 -94l-78 4l-5 88v250z" />
    <glyph glyph-name="IJ" unicode="&#x132;" horiz-adv-x="520" 
d="M475 480v-335c0 -90 -64 -150 -160 -150c-24 0 -61.1934 5.31055 -90 13.6934v76.9697c27.9463 -19.8965 60 -30.6631 89 -30.6631c45.5996 0 76 40 76 100v260h-160v65h245zM55 0v480h85v-480h-85z" />
    <glyph glyph-name="ij" unicode="&#x133;" horiz-adv-x="360" 
d="M230 445v59c0 9.90039 1.09961 11 11 11h69v-59c0 -9.90039 -1.09961 -11 -11 -11h-69zM230 340h80v-425c0 -72 -50 -120 -125 -120c-27.1826 0 -44.0391 4.94336 -70 13v73c21.3281 -14.542 44.1865 -26 70 -26c27 0 45 24 45 60v425zM50 445v59
c0 9.90039 1.09961 11 11 11h69v-59c0 -9.90039 -1.09961 -11 -11 -11h-69zM50 340h80v-248c0 -40 3 -94 3 -94l-78 4l-5 88v250z" />
    <glyph glyph-name="Jcircumflex" unicode="&#x134;" horiz-adv-x="325" 
d="M174 655l96 -66v-54h-23l-83 70.7324l-83 -70.7324h-23v54l96 66h20zM280 480v-335c0 -90 -64 -150 -160 -150c-24 0 -61.1934 5.31055 -90 13.6934v76.9697c27.9463 -19.8965 60 -30.6631 89 -30.6631c45.5996 0 76 40 76 100v260h-160v65h245z" />
    <glyph glyph-name="jcircumflex" unicode="&#x135;" horiz-adv-x="180" 
d="M50 340h80v-425c0 -72 -50 -120 -125 -120c-27.1826 0 -44.0391 4.94336 -70 13v73c21.3281 -14.542 44.1865 -26 70 -26c27 0 45 24 45 60v425zM100 535l80 -66v-54h-19l-71 68.7324l-72 -68.7324h-19v54l81 66h20z" />
    <glyph glyph-name="Kcommaaccent" unicode="&#x136;" horiz-adv-x="450" 
d="M197.933 -204.981l-30.9326 15.9814l28 62l-20 7v50c0 19 1 20 20 20h70v-41c0 -17 -7.07715 -31.6328 -19 -48zM151.972 244.858l160.353 235.142h105.676l-185.972 -234.858l202.988 -245.142h-117.366zM55 0v480h85v-480h-85z" />
    <glyph glyph-name="kcommaaccent" unicode="&#x137;" horiz-adv-x="425" 
d="M182.933 -204.981l-30.9326 15.9814l28 62l-20 7v50c0 19 1 20 20 20h70v-41c0 -17 -7.07715 -31.6328 -19 -48zM50 0v540h80v-540h-80zM410.017 0h-112.366l-146.679 174.858l141.353 165.142h100.751l-160.047 -164.858z" />
    <glyph glyph-name="kgreenlandic" unicode="&#x138;" horiz-adv-x="425" 
d="M50 0v340h80v-340h-80zM410.017 0h-112.367l-146.678 174.858l141.352 165.142h100.751l-160.047 -164.858z" />
    <glyph glyph-name="Lacute" unicode="&#x139;" horiz-adv-x="365" 
d="M104 530l-10 13l79 117h54v-59zM55 0v480h85v-415h205v-65h-290z" />
    <glyph glyph-name="lacute" unicode="&#x13a;" horiz-adv-x="180" 
d="M90 600l-10 13l79 117h54v-59zM50 540h80v-448c0 -40 3 -94 3 -94l-78 4l-5 88v450z" />
    <glyph glyph-name="Lcommaaccent" unicode="&#x13b;" horiz-adv-x="365" 
d="M197.933 -204.981l-30.9326 15.9814l28 62l-20 7v50c0 19 1 20 20 20h70v-41c0 -17 -7.07715 -31.6328 -19 -48zM55 0v480h85v-415h205v-65h-290z" />
    <glyph glyph-name="lcommaaccent" unicode="&#x13c;" horiz-adv-x="180" 
d="M72.9326 -204.981l-30.9326 15.9814l28 62l-20 7v50c0 19 1 20 20 20h70v-41c0 -17 -7.07715 -31.6328 -19 -48zM50 540h80v-448c0 -40 3 -94 3 -94l-78 4l-5 88v450z" />
    <glyph glyph-name="Lcaron" unicode="&#x13d;" horiz-adv-x="365" 
d="M264.933 322.019l-26.9326 14.9814l37 81l-20 7v50c0 19 1 20 20 20h70v-41c0 -17 -7.0918 -31.624 -19 -48zM55 0v480h85v-415h205v-65h-290z" />
    <glyph glyph-name="lcaron" unicode="&#x13e;" horiz-adv-x="265" 
d="M50 540h80v-448c0 -40 3 -94 3 -94l-78 4l-5 88v450zM204.933 367.019l-26.9326 14.9814l32 81l-20 7v50c0 19 1 20 20 20h70v-41c0 -17 -7.75781 -31.1602 -19 -48z" />
    <glyph glyph-name="Ldot" unicode="&#x13f;" horiz-adv-x="365" 
d="M205 210v64c0 9.90039 1 11 11 11h74v-64c0 -10 -1 -11 -11 -11h-74zM55 0v480h85v-415h205v-65h-290z" />
    <glyph glyph-name="ldot" unicode="&#x140;" horiz-adv-x="280" 
d="M175 207v64c0 9.90039 1 11 11 11h74v-64c0 -10 -1 -11 -11 -11h-74zM50 540h80v-448c0 -40 3 -94 3 -94l-78 4l-5 88v450z" />
    <glyph glyph-name="Lslash" unicode="&#x141;" horiz-adv-x="385" 
d="M75 0v136.684l-60.0137 -47.0898l0.108398 79.8916l59.9053 47.5654v262.949h85v-195.46l110 84.46v-82l-110 -83.6191v-138.381h205v-65h-290z" />
    <glyph glyph-name="lslash" unicode="&#x142;" horiz-adv-x="260" 
d="M235 372v-80l-70 -52.667v-147.333c0 -40 3 -94 3 -94l-78 4l-5 88v89.1426l-60 -45.1426v77l60 46v283h80v-221.667z" />
    <glyph glyph-name="Nacute" unicode="&#x143;" horiz-adv-x="470" 
d="M197 530l-10 13l79 117h54v-59zM55 0v480h70l225 -336.733v336.733h65v-480h-70l-225 330.733v-330.733h-65z" />
    <glyph glyph-name="nacute" unicode="&#x144;" horiz-adv-x="440" 
d="M187 410l-10 13l79 117h54v-59zM50 0v340h74.9609l4.45703 -79.6006c27.0928 51.2588 71.0254 84.6006 120.582 84.6006c87 0 145 -42 145 -105v-240h-80v225c0 36 -28 60 -70 60c-63.4805 0 -115 -64.96 -115 -145v-140h-80z" />
    <glyph glyph-name="Ncommaaccent" unicode="&#x145;" horiz-adv-x="470" 
d="M207.933 -204.981l-30.9326 15.9814l28 62l-20 7v50c0 19 1 20 20 20h70v-41c0 -17 -7.07715 -31.6328 -19 -48zM55 0v480h70l225 -336.733v336.733h65v-480h-70l-225 330.733v-330.733h-65z" />
    <glyph glyph-name="ncommaaccent" unicode="&#x146;" horiz-adv-x="440" 
d="M207.933 -204.981l-30.9326 15.9814l28 62l-20 7v50c0 19 1 20 20 20h70v-41c0 -17 -7.07715 -31.6328 -19 -48zM50 0v340h74.9609l4.45703 -79.6006c27.0928 51.2588 71.0254 84.6006 120.582 84.6006c87 0 145 -42 145 -105v-240h-80v225c0 36 -28 60 -70 60
c-63.4805 0 -115 -64.96 -115 -145v-140h-80z" />
    <glyph glyph-name="Ncaron" unicode="&#x147;" horiz-adv-x="470" 
d="M225 535l-96 66v54h23l83 -70.7324l83 70.7324h23v-54l-96 -66h-20zM55 0v480h70l225 -336.733v336.733h65v-480h-70l-225 330.733v-330.733h-65z" />
    <glyph glyph-name="ncaron" unicode="&#x148;" horiz-adv-x="440" 
d="M215 415l-96 66v54h23l83 -70.7324l83 70.7324h23v-54l-96 -66h-20zM50 0v340h74.9609l4.45703 -79.6006c27.0928 51.2588 71.0254 84.6006 120.582 84.6006c87 0 145 -42 145 -105v-240h-80v225c0 36 -28 60 -70 60c-63.4805 0 -115 -64.96 -115 -145v-140h-80z" />
    <glyph glyph-name="napostrophe" unicode="&#x149;" horiz-adv-x="525" 
d="M135 0v340h74.9609l4.45703 -79.6006c27.0928 51.2588 71.0254 84.6006 120.582 84.6006c87 0 145 -42 145 -105v-240h-80v225c0 36 -28 60 -70 60c-63.4805 0 -115 -64.96 -115 -145v-140h-80zM45.9326 322.019l-26.9326 14.9814l31 71l-20 7v50c0 19 1 20 20 20h70v-41
c0 -17 -6.91016 -31.7578 -19 -48z" />
    <glyph glyph-name="Eng" unicode="&#x14a;" horiz-adv-x="470" 
d="M55 0v480h70l225 -336.733v336.733h65v-565c0 -72 -50 -120 -125 -120c-27.1826 0 -44.0391 4.94336 -70 13v73c21.3281 -14.542 44.1875 -26 70 -26c27 0 55 24 55 60v85l-225 330.733v-330.733h-65z" />
    <glyph glyph-name="eng" unicode="&#x14b;" horiz-adv-x="440" 
d="M50 0v340h74.9609l4.45703 -79.6006c27.0928 51.2588 71.0244 84.6006 120.581 84.6006c87 0 145 -42 145 -105v-325c0 -72 -50 -120 -125 -120c-27.1826 0 -44.0391 4.94336 -70 13v73c21.3281 -14.542 44.1875 -26 70.001 -26c27 0 45 24 45 60v310
c0 36.002 -28 60 -70 60c-63.4805 0 -115 -64.96 -115 -145v-140h-80z" />
    <glyph glyph-name="Omacron" unicode="&#x14c;" horiz-adv-x="490" 
d="M153 530v44c0 9.90039 1.09961 11 11 11h173v-44c0 -9.90039 -1.09961 -11 -11 -11h-173zM118 240c0 -108 50.7998 -180 127 -180s127 72 127 180s-50.7998 180 -127 180s-127 -72 -127 -180zM30 240c0 147 86 245 215 245s215 -98 215 -245s-86 -245 -215 -245
s-215 98 -215 245z" />
    <glyph glyph-name="omacron" unicode="&#x14d;" horiz-adv-x="400" 
d="M108 425v44c0 9.90039 1.09961 11 11 11h173v-44c0 -9.90039 -1.09961 -11 -11 -11h-173zM25 170c0 105 70 175 175 175s175 -70 175 -175s-70 -175 -175 -175s-175 70 -175 175zM108 170c0 -69 36.7998 -115 92 -115s92 46 92 115s-36.7998 115 -92 115
s-92 -46 -92 -115z" />
    <glyph glyph-name="Obreve" unicode="&#x14e;" horiz-adv-x="490" 
d="M245 575c35.8799 0 65 29.1201 65 65h40c0 -72 -42 -120 -105 -120s-105 48 -105 120h35c0 -35.8799 31.3604 -65 70 -65zM118 240c0 -108 50.7998 -180 127 -180s127 72 127 180s-50.7998 180 -127 180s-127 -72 -127 -180zM30 240c0 147 86 245 215 245
s215 -98 215 -245s-86 -245 -215 -245s-215 98 -215 245z" />
    <glyph glyph-name="obreve" unicode="&#x14f;" horiz-adv-x="400" 
d="M200 470c35.8799 0 65 29.1201 65 65h40c0 -72 -42 -120 -105 -120s-105 48 -105 120h35c0 -35.8799 31.3604 -65 70 -65zM25 170c0 105 70 175 175 175s175 -70 175 -175s-70 -175 -175 -175s-175 70 -175 175zM108 170c0 -69 36.7998 -115 92 -115s92 46 92 115
s-36.7998 115 -92 115s-92 -46 -92 -115z" />
    <glyph glyph-name="Ohungarumlaut" unicode="&#x150;" horiz-adv-x="490" 
d="M132 520l-7 11l101 109h39v-39zM272 520l-7 11l101 109h39v-39zM118 240c0 -108 50.7998 -180 127 -180s127 72 127 180s-50.7998 180 -127 180s-127 -72 -127 -180zM30 240c0 147 86 245 215 245s215 -98 215 -245s-86 -245 -215 -245s-215 98 -215 245z" />
    <glyph glyph-name="ohungarumlaut" unicode="&#x151;" horiz-adv-x="400" 
d="M87 415l-7 11l101 109h39v-39zM227 415l-7 11l101 109h39v-39zM25 170c0 105 70 175 175 175s175 -70 175 -175s-70 -175 -175 -175s-175 70 -175 175zM108 170c0 -69 36.7998 -115 92 -115s92 46 92 115s-36.7998 115 -92 115s-92 -46 -92 -115z" />
    <glyph glyph-name="OE" unicode="&#x152;" horiz-adv-x="593" 
d="M298 60v360h-24c-96.5996 0 -161 -70 -161 -175c0 -111 64.4004 -185 161 -185h24zM568 480v-65h-185v-135h145v-60h-145v-155h185v-65h-305c-142.8 0 -238 98 -238 245c0 141 95.2002 235 238 235h305z" />
    <glyph glyph-name="oe" unicode="&#x153;" horiz-adv-x="630" 
d="M108 170c0 -69 34.7998 -115 87 -115s87 46 87 115s-34.7998 115 -87 115s-87 -46 -87 -115zM25 170c0 105 67.999 175 169.999 175c52.6201 0 99.333 -27.8291 128.5 -70.7559c29.167 42.9268 75.8799 70.7559 128.5 70.7559c93 0 155 -58.7998 155 -147v-23
c0 -19.5 -11 -30 -30 -30h-213.475c7.58203 -58.6846 43.2754 -90 103.476 -90c38.416 0 70.9746 9.62109 95 26.6631v-73.9697c-30 -8.69336 -60.4824 -12.6934 -95 -12.6934c-58.4902 0 -110.308 28.7422 -142.091 72.8643
c-29.0566 -44.1221 -76.4326 -72.8643 -129.909 -72.8643c-102 0 -170 70 -170 175zM363.759 200h173.24c0 58.5 -29.75 90 -85 90c-50.4902 0 -80.8682 -31.2861 -88.2402 -90z" />
    <glyph glyph-name="Racute" unicode="&#x154;" horiz-adv-x="430" 
d="M164 530l-10 13l79 117h54v-59zM55 0v480h155c107.4 0 179 -50 179 -125c0 -52.4883 -46.5859 -97.3311 -112.105 -114.981c61.0645 -16.1025 105.412 -55.6396 112.105 -110.019l16 -130h-87l-15 130c-6.25586 54.2139 -46 80 -112 80h-51v-210h-85zM140 270h70
c59.4004 0 99 34 99 85c0 39 -39.5996 65 -99 65h-70v-150z" />
    <glyph glyph-name="racute" unicode="&#x155;" horiz-adv-x="310" 
d="M112 410l-10 13l79 117h54v-59zM50 340h74.9609l4.29199 -76.6621c28.4893 49.4297 75.1064 81.6621 127.747 81.6621h33v-85h-55c-63 0 -105 -38 -105 -95v-165h-80v340z" />
    <glyph glyph-name="Rcommaaccent" unicode="&#x156;" horiz-adv-x="430" 
d="M207.933 -204.981l-30.9326 15.9814l28 62l-20 7v50c0 19 1 20 20 20h70v-41c0 -17 -7.07715 -31.6328 -19 -48zM55 0v480h155c107.4 0 179 -50 179 -125c0 -52.4883 -46.5859 -97.3311 -112.105 -114.981c61.0645 -16.1025 105.412 -55.6396 112.105 -110.019l16 -130
h-87l-15 130c-6.25586 54.2139 -46 80 -112 80h-51v-210h-85zM140 270h70c59.4004 0 99 34 99 85c0 39 -39.5996 65 -99 65h-70v-150z" />
    <glyph glyph-name="rcommaaccent" unicode="&#x157;" horiz-adv-x="310" 
d="M67.9326 -204.981l-30.9326 15.9814l28 62l-20 7v50c0 19 1 20 20 20h70v-41c0 -17 -7.07715 -31.6328 -19 -48zM50 340h74.9609l4.29199 -76.6621c28.4893 49.4297 75.1064 81.6621 127.747 81.6621h33v-85h-55c-63 0 -105 -38 -105 -95v-165h-80v340z" />
    <glyph glyph-name="Rcaron" unicode="&#x158;" horiz-adv-x="430" 
d="M192 535l-96 66v54h23l83 -70.7324l83 70.7324h23v-54l-96 -66h-20zM55 0v480h155c107.4 0 179 -50 179 -125c0 -52.4883 -46.5859 -97.3311 -112.105 -114.981c61.0645 -16.1025 105.412 -55.6396 112.105 -110.019l16 -130h-87l-15 130
c-6.25586 54.2139 -46 80 -112 80h-51v-210h-85zM140 270h70c59.4004 0 99 34 99 85c0 39 -39.5996 65 -99 65h-70v-150z" />
    <glyph glyph-name="rcaron" unicode="&#x159;" horiz-adv-x="310" 
d="M140 415l-96 66v54h23l83 -70.7324l83 70.7324h23v-54l-96 -66h-20zM50 340h74.9609l4.29199 -76.6621c28.4893 49.4297 75.1064 81.6621 127.747 81.6621h33v-85h-55c-63 0 -105 -38 -105 -95v-165h-80v340z" />
    <glyph glyph-name="Sacute" unicode="&#x15a;" horiz-adv-x="420" 
d="M167 530l-10 13l79 117h54v-59zM40 32v83c39 -28 113 -60 160 -60c63 0 105 26 105 65c0 40.8301 -46.4033 67.4121 -108 89.8311c-76.7539 27.9365 -157 68.9033 -157 150.169c0 81.25 64.75 125 185 125c44 0 96 -13 130 -31v-80c-27 27 -76 51 -130 51
c-65 0 -100 -22.75 -100 -65c0 -30.6016 35.2422 -46.7578 99 -69.9639c79.6855 -29.0029 166 -68.0361 166 -165.036c0 -78 -76 -130 -190 -130c-50 0 -129 20 -160 37z" />
    <glyph glyph-name="sacute" unicode="&#x15b;" horiz-adv-x="352" 
d="M142 410l-10 13l79 117h54v-59zM40 18v78c39 -28 88 -43 125 -43c51 0 75 13.7998 75 39c0 22.5732 -29.1904 36.0801 -70 47.0146c-58.8252 15.7637 -130 35.4971 -130 113.985c0 59.7998 54.25 92 155 92c32 0 63 -3 95 -11v-80c-28 20 -62 33 -100 33
c-48.75 0 -75 -11.2002 -75 -32c0 -21.7939 33.3389 -36.9873 73 -47.6152c58.7959 -15.7539 127 -34.3848 127 -107.385c0 -68.25 -56 -105 -160 -105c-36 0 -83 11 -115 23z" />
    <glyph glyph-name="Scircumflex" unicode="&#x15c;" horiz-adv-x="420" 
d="M215 655l96 -66v-54h-23l-83 70.7324l-83 -70.7324h-23v54l96 66h20zM40 32v83c39 -28 113 -60 160 -60c63 0 105 26 105 65c0 40.8301 -46.4033 67.4121 -108 89.8311c-76.7539 27.9365 -157 68.9033 -157 150.169c0 81.25 64.75 125 185 125c44 0 96 -13 130 -31v-80
c-27 27 -76 51 -130 51c-65 0 -100 -22.75 -100 -65c0 -30.6016 35.2422 -46.7578 99 -69.9639c79.6855 -29.0029 166 -68.0361 166 -165.036c0 -78 -76 -130 -190 -130c-50 0 -129 20 -160 37z" />
    <glyph glyph-name="scircumflex" unicode="&#x15d;" horiz-adv-x="352" 
d="M190 535l96 -66v-54h-23l-83 70.7324l-83 -70.7324h-23v54l96 66h20zM40 18v78c39 -28 88 -43 125 -43c51 0 75 13.7998 75 39c0 22.5732 -29.1904 36.0801 -70 47.0146c-58.8252 15.7637 -130 35.4971 -130 113.985c0 59.7998 54.25 92 155 92c32 0 63 -3 95 -11v-80
c-28 20 -62 33 -100 33c-48.75 0 -75 -11.2002 -75 -32c0 -21.7939 33.3389 -36.9873 73 -47.6152c58.7959 -15.7539 127 -34.3848 127 -107.385c0 -68.25 -56 -105 -160 -105c-36 0 -83 11 -115 23z" />
    <glyph glyph-name="Scedilla" unicode="&#x15e;" horiz-adv-x="420" 
d="M40 32l0.00195312 83.001c39 -28 113 -60 160 -60c63 0 105 26 105 65c0 40.8301 -46.4033 67.4121 -108 89.8311c-76.7539 27.9365 -157 68.9023 -157 150.168c0 81.25 64.75 125 185 125c44 0 96 -13 130 -31v-80c-27 27 -76 51 -130 51c-65 0 -100 -22.75 -100 -65
c0 -30.6016 35.2422 -46.7578 99 -69.9639c79.6855 -29.0029 166 -68.0361 166 -165.036c0 -78 -76 -130 -190 -130c-0.564453 0 -1.13281 0.0078125 -1.70508 0.0078125l-6.2959 -48.0078h8c58.7998 0 98 -30 98 -75c0 -46.2002 -40 -77 -100 -77c-16 0 -33 2 -51 7v46
c14 -10 34 -16 51 -16c28.7998 0 48 14.7998 48 37c0 24 -18.7998 40 -47 40h-48l9.89062 89.0225c-45.4111 6.22363 -97.1855 20.9775 -120.892 33.9775z" />
    <glyph glyph-name="scedilla" unicode="&#x15f;" horiz-adv-x="352" 
d="M40 18l0.000976562 77.999c39 -28 88 -43 125 -43c51 0 75 13.7998 75 39c0 22.5732 -29.1904 36.0801 -70 47.0146c-58.8252 15.7627 -130 35.4971 -130 113.985c0 59.7998 54.25 92 155 92c32 0 63 -3 95 -11v-80c-28 20 -62 33 -100 33c-48.75 0 -75 -11.2002 -75 -32
c0 -21.7939 33.3389 -36.9873 73 -47.6152c58.7959 -15.7539 127 -34.3848 127 -107.385c0 -66.1846 -52.6621 -102.747 -150.692 -104.899l-6.30762 -48.1006h8c58.7998 0 98 -30 98 -75c0 -46.2002 -40 -77 -100 -77c-16 0 -33 2 -51 7v46c14 -10 34 -16 51 -16
c28.7998 0 48 14.7998 48 37c0 24 -18.7998 40 -47 40h-48l9.76172 87.8555c-30.0225 3.62891 -62.6504 12.1035 -86.7627 21.1455z" />
    <glyph glyph-name="Scaron" unicode="&#x160;" horiz-adv-x="420" 
d="M195 535l-96 66v54h23l83 -70.7324l83 70.7324h23v-54l-96 -66h-20zM40 32v83c39 -28 113 -60 160 -60c63 0 105 26 105 65c0 40.8301 -46.4033 67.4121 -108 89.8311c-76.7539 27.9365 -157 68.9033 -157 150.169c0 81.25 64.75 125 185 125c44 0 96 -13 130 -31v-80
c-27 27 -76 51 -130 51c-65 0 -100 -22.75 -100 -65c0 -30.6016 35.2422 -46.7578 99 -69.9639c79.6855 -29.0029 166 -68.0361 166 -165.036c0 -78 -76 -130 -190 -130c-50 0 -129 20 -160 37z" />
    <glyph glyph-name="scaron" unicode="&#x161;" horiz-adv-x="352" 
d="M170 415l-96 66v54h23l83 -70.7324l83 70.7324h23v-54l-96 -66h-20zM40 18v78c39 -28 88 -43 125 -43c51 0 75 13.7998 75 39c0 22.5732 -29.1904 36.0801 -70 47.0146c-58.8252 15.7637 -130 35.4971 -130 113.985c0 59.7998 54.25 92 155 92c32 0 63 -3 95 -11v-80
c-28 20 -62 33 -100 33c-48.75 0 -75 -11.2002 -75 -32c0 -21.7939 33.3389 -36.9873 73 -47.6152c58.7959 -15.7539 127 -34.3848 127 -107.385c0 -68.25 -56 -105 -160 -105c-36 0 -83 11 -115 23z" />
    <glyph glyph-name="Tcommaaccent" unicode="&#x162;" horiz-adv-x="405" 
d="M20 480h365v-65h-140v-415h-47.0488l-6.95117 -53h8c58.7998 0 98 -30 98 -75c0 -46.2002 -40 -77 -100 -77c-16 0 -33 2 -51 7v46c14 -10 34 -16 51 -16c28.7998 0 48 14.7998 48 37c0 24 -18.7998 40 -47 40h-48l10.1113 91h-0.111328v415h-140v65z" />
    <glyph glyph-name="tcommaaccent" unicode="&#x163;" horiz-adv-x="298" 
d="M48 430l80.002 30v-120h130v-55h-130v-155c0 -52 18.5498 -80 53 -80c33.9355 0 59.3203 7.0293 86.999 26.6631v-70.9697c-31.0732 -7.58691 -55.0146 -10.6934 -87.001 -10.6934c-8.20801 0 -16.0557 0.425781 -23.5381 1.27148l-6.46191 -49.2715h8
c58.7998 0 98 -30 98 -75c0 -46.2002 -40 -77 -100 -77c-16 0 -33 2 -51 7v46c14 -10 34 -16 51 -16c28.7998 0 48 14.7998 48 37c0 24 -18.7998 40 -47 40h-48l10.6543 95.8848c-47.5586 18.0898 -72.6543 60.6855 -72.6543 125.115v300z" />
    <glyph glyph-name="Tcaron" unicode="&#x164;" horiz-adv-x="405" 
d="M193 535l-96 66v54h23l83 -70.7324l83 70.7324h23v-54l-96 -66h-20zM20 480h365v-65h-140v-415h-85v415h-140v65z" />
    <glyph glyph-name="tcaron" unicode="&#x165;" horiz-adv-x="328" 
d="M272.933 367.019l-26.9326 14.9814l32 81l-20 7v50c0 19 1 20 20 20h70v-41c0 -17 -7.75781 -31.1602 -19 -48zM48 430l80.002 30v-120h105v-55h-105v-155c0 -52 18.5498 -80 53 -80c33.9355 0 59.3203 7.0293 86.999 26.6631v-70.9697
c-31.0732 -7.58691 -55.0146 -10.6934 -87.001 -10.6934c-86.4502 0 -133 47.25 -133 135v300z" />
    <glyph glyph-name="Tbar" unicode="&#x166;" horiz-adv-x="405" 
d="M20 480h365v-65h-140v-90h80v-55h-80v-270h-85v270h-80v55h80v90h-140v65z" />
    <glyph glyph-name="tbar" unicode="&#x167;" horiz-adv-x="315" 
d="M65 430l80 30v-120h130v-60h-130v-55h90v-55h-90v-45c0 -45.5 19.25 -70 55 -70c38.416 0 60.9746 9.62109 85 26.6631v-75.9697c-28.6133 -6.98633 -50.4824 -10.6934 -85 -10.6934c-87.75 0 -135 47.25 -135 135v40h-55v55h55v205z" />
    <glyph glyph-name="Utilde" unicode="&#x168;" horiz-adv-x="440" 
d="M327 589c-14 -25 -32 -39 -53 -39c-17 0 -37 9.25 -57 18.5s-40 18.5 -57 18.5c-21 0 -39 -15 -53 -40v55c14 25 32 39 53 39c17 0 37 -9.25 57 -18.5s40 -18.5 57 -18.5c21 0 39 15 53 40v-55zM220 60c54 0 90 34 90 85v335h85v-335c0 -90 -70 -150 -175 -150
s-175 60 -175 150v335h85v-335c0 -51 36 -85 90 -85z" />
    <glyph glyph-name="utilde" unicode="&#x169;" horiz-adv-x="440" 
d="M325 469c-14 -25 -32 -39 -53 -39c-17 0 -37 9.25 -57 18.5s-40 18.5 -57 18.5c-21 0 -39 -15 -53 -40v55c14 25 32 39 53 39c17 0 37 -9.25 57 -18.5s40 -18.5 57 -18.5c21 0 39 15 53 40v-55zM45 340h80v-225c0 -36 28 -60 70 -60c63.4805 0 115 64.96 115 145v140h80
v-340h-74.9609l-4.45703 79.6006c-27.0938 -51.2588 -71.0244 -84.6006 -120.582 -84.6006c-87 0 -145 42 -145 105v240z" />
    <glyph glyph-name="Umacron" unicode="&#x16a;" horiz-adv-x="440" 
d="M125 545v44c0 9.90039 1.09961 11 11 11h173v-44c0 -9.90039 -1.09961 -11 -11 -11h-173zM220 60c54 0 90 34 90 85v335h85v-335c0 -90 -70 -150 -175 -150s-175 60 -175 150v335h85v-335c0 -51 36 -85 90 -85z" />
    <glyph glyph-name="umacron" unicode="&#x16b;" horiz-adv-x="440" 
d="M123 425v44c0 9.90039 1.09961 11 11 11h173v-44c0 -9.90039 -1.09961 -11 -11 -11h-173zM45 340h80v-225c0 -36 28 -60 70 -60c63.4805 0 115 64.96 115 145v140h80v-340h-74.9609l-4.45703 79.6006c-27.0938 -51.2588 -71.0244 -84.6006 -120.582 -84.6006
c-87 0 -145 42 -145 105v240z" />
    <glyph glyph-name="Ubreve" unicode="&#x16c;" horiz-adv-x="440" 
d="M217 590c35.8799 0 65 29.1201 65 65h40c0 -72 -42 -120 -105 -120s-105 48 -105 120h35c0 -35.8799 31.3604 -65 70 -65zM220 60c54 0 90 34 90 85v335h85v-335c0 -90 -70 -150 -175 -150s-175 60 -175 150v335h85v-335c0 -51 36 -85 90 -85z" />
    <glyph glyph-name="ubreve" unicode="&#x16d;" horiz-adv-x="440" 
d="M215 470c35.8799 0 65 29.1201 65 65h40c0 -72 -42 -120 -105 -120s-105 48 -105 120h35c0 -35.8799 31.3604 -65 70 -65zM45 340h80v-225c0 -36 28 -60 70 -60c63.4805 0 115 64.96 115 145v140h80v-340h-74.9609l-4.45703 79.6006
c-27.0938 -51.2588 -71.0244 -84.6006 -120.582 -84.6006c-87 0 -145 42 -145 105v240z" />
    <glyph glyph-name="Uring" unicode="&#x16e;" horiz-adv-x="440" 
d="M135 595c0 51 32.7998 85 82 85s82 -34 82 -85s-32.7998 -85 -82 -85s-82 34 -82 85zM175 595c0 -27 16.7998 -45 42 -45s42 18 42 45s-16.7998 45 -42 45s-42 -18 -42 -45zM220 60c54 0 90 34 90 85v335h85v-335c0 -90 -70 -150 -175 -150s-175 60 -175 150v335h85v-335
c0 -51 36 -85 90 -85z" />
    <glyph glyph-name="uring" unicode="&#x16f;" horiz-adv-x="440" 
d="M133 475c0 51 32.7998 85 82 85s82 -34 82 -85s-32.7998 -85 -82 -85s-82 34 -82 85zM173 475c0 -27 16.7998 -45 42 -45s42 18 42 45s-16.7998 45 -42 45s-42 -18 -42 -45zM45 340h80v-225c0 -36 28 -60 70 -60c63.4805 0 115 64.96 115 145v140h80v-340h-74.9609
l-4.45703 79.6006c-27.0938 -51.2588 -71.0244 -84.6006 -120.582 -84.6006c-87 0 -145 42 -145 105v240z" />
    <glyph glyph-name="Uhungarumlaut" unicode="&#x170;" horiz-adv-x="440" 
d="M104 535l-7 11l101 109h39v-39zM244 535l-7 11l101 109h39v-39zM220 60c54 0 90 34 90 85v335h85v-335c0 -90 -70 -150 -175 -150s-175 60 -175 150v335h85v-335c0 -51 36 -85 90 -85z" />
    <glyph glyph-name="uhungarumlaut" unicode="&#x171;" horiz-adv-x="440" 
d="M102 415l-7 11l101 109h39v-39zM242 415l-7 11l101 109h39v-39zM45 340h80v-225c0 -36 28 -60 70 -60c63.4805 0 115 64.96 115 145v140h80v-340h-74.9609l-4.45703 79.6006c-27.0938 -51.2588 -71.0244 -84.6006 -120.582 -84.6006c-87 0 -145 42 -145 105v240z" />
    <glyph glyph-name="Uogonek" unicode="&#x172;" horiz-adv-x="435" 
d="M45 480l85 -0.000976562v-330c0 -54 36 -90 90 -90s90 36 90 90v330h80v-335c0 -77.8906 -50.9326 -133.312 -130.758 -146.814c-50.6553 -11.4092 -83.2422 -45.6348 -83.2422 -89.5186c0 -31.8008 22 -53 55 -53c18 0 42.1055 6.06641 70 23.4971v-68.4971
c-25.6719 -10.8096 -52 -15 -75 -15c-66 0 -110 41.1992 -110 103c0 39.127 26.2832 75.0703 67.1504 98.9648c-84.208 12.4756 -138.15 68.3633 -138.15 147.369v335z" />
    <glyph glyph-name="uogonek" unicode="&#x173;" horiz-adv-x="440" 
d="M390 -2c-57 -9 -93 -42.4238 -93 -89.334c0 -31.8008 25 -53 58 -53c18 0 42.1055 6.06738 70 23.4971v-68.4971c-25.6719 -10.8086 -52 -15 -75 -15c-66 0 -113 41.1992 -113 103c0 42.7676 31.0098 79.499 79.0391 102.333l-5.07812 71.8281
c-28.4688 -47.0957 -75.1875 -77.8281 -127.961 -77.8281c-82.7998 0 -138 41.2002 -138 103v242h80v-204c0 -52.6504 24.8496 -81 71 -81c62.918 0 113.983 64.9395 114 144.963v140.038h80v-342z" />
    <glyph glyph-name="Wcircumflex" unicode="&#x174;" horiz-adv-x="660" 
d="M340 655l96 -66v-54h-23l-83 70.7324l-83 -70.7324h-23v54l96 66h20zM241 0h-82l-144 480h104l81 -410l91 410h78l91 -410l81 410h104l-144 -480h-82l-89 336.378z" />
    <glyph glyph-name="wcircumflex" unicode="&#x175;" horiz-adv-x="590" 
d="M305 535l96 -66v-54h-23l-83 70.7324l-83 -70.7324h-23v54l96 66h20zM135 0l-120 340h102l58 -281l78 281h84l78 -281l58 281h102l-120 -340h-80l-80 230.508l-80 -230.508h-80z" />
    <glyph glyph-name="Ycircumflex" unicode="&#x176;" horiz-adv-x="440" 
d="M230 655l96 -66v-54h-23l-83 70.7324l-83 -70.7324h-23v54l96 66h20zM177 0v185l-162 295h102l103 -239l102 239h103l-163 -295v-185h-85z" />
    <glyph glyph-name="ycircumflex" unicode="&#x177;" horiz-adv-x="390" 
d="M207 535l96 -66v-54h-23l-83 70.7324l-83 -70.7324h-23v54l96 66h20zM15 340h94l96 -258l76 258h94l-141 -349c-45 -111 -114 -191 -224 -191v70c79 0 129 63 163 134z" />
    <glyph glyph-name="Ydieresis" unicode="&#x178;" horiz-adv-x="440" 
d="M260 565v59c0 9.90039 1.09961 11 11 11h64v-59c0 -9.90039 -1.09961 -11 -11 -11h-64zM105 565v59c0 9.90039 1.09961 11 11 11h64v-59c0 -9.90039 -1.09961 -11 -11 -11h-64zM177 0v185l-162 295h102l103 -239l102 239h103l-163 -295v-185h-85z" />
    <glyph glyph-name="Zacute" unicode="&#x179;" horiz-adv-x="405" 
d="M157 530l-10 13l79 117h54v-59zM19.9834 0l229.129 415h-214.112v65h345l-228.812 -415h218.812v-65h-350.017z" />
    <glyph glyph-name="zacute" unicode="&#x17a;" horiz-adv-x="365" 
d="M137 410l-10 13l79 117h54v-59zM14.9834 0l205.705 285h-190.688v55h315l-206.015 -285h196.015v-55h-320.017z" />
    <glyph glyph-name="Zdotaccent" unicode="&#x17b;" horiz-adv-x="405" 
d="M155 565v59c0 9.90039 1.09961 11 11 11h69v-59c0 -9.90039 -1.09961 -11 -11 -11h-69zM19.9834 0l229.129 415h-214.112v65h345l-228.812 -415h218.812v-65h-350.017z" />
    <glyph glyph-name="zdotaccent" unicode="&#x17c;" horiz-adv-x="365" 
d="M135 445v59c0 9.90039 1.09961 11 11 11h69v-59c0 -9.90039 -1.09961 -11 -11 -11h-69zM14.9834 0l205.705 285h-190.688v55h315l-206.015 -285h196.015v-55h-320.017z" />
    <glyph glyph-name="Zcaron" unicode="&#x17d;" horiz-adv-x="405" 
d="M185 535l-96 66v54h23l83 -70.7324l83 70.7324h23v-54l-96 -66h-20zM19.9834 0l229.129 415h-214.112v65h345l-228.812 -415h218.812v-65h-350.017z" />
    <glyph glyph-name="zcaron" unicode="&#x17e;" horiz-adv-x="365" 
d="M165 415l-96 66v54h23l83 -70.7324l83 70.7324h23v-54l-96 -66h-20zM14.9834 0l205.705 285h-190.688v55h315l-206.015 -285h196.015v-55h-320.017z" />
    <glyph glyph-name="uni01CD" unicode="&#x1cd;" horiz-adv-x="460" 
d="M220 536l-96 66v54h23l83 -70.7324l83 70.7324h23v-54l-96 -66h-20zM15 0l171 480h88l171 -480h-90l-29.833 100h-190.334l-29.833 -100h-90zM151.838 157h156.324l-78.1621 262z" />
    <glyph glyph-name="uni01CE" unicode="&#x1ce;" horiz-adv-x="420" 
d="M200 415l-96 66v54h23l83 -70.7324l83 70.7324h23v-54l-96 -66h-20zM25 170c0 102 61.2002 170 153 170h72l40 -56l10.0391 56h69.9609v-248c0 -40 3 -94 3 -94l-73 4l-3.95996 72.9512c-25.4873 -48.2021 -68.8564 -79.9512 -118.04 -79.9512
c-91.7998 0 -153 70 -153 175zM108 170c0 -69 34.4004 -115 86 -115c52.9863 0 96 54 96 120v105h-96c-51.5996 0 -86 -44 -86 -110z" />
    <glyph glyph-name="uni01CF" unicode="&#x1cf;" horiz-adv-x="195" 
d="M88 535l-96 66v54h23l83 -70.7324l83 70.7324h23v-54l-96 -66h-20zM55 0v480h85v-480h-85z" />
    <glyph glyph-name="uni01D0" unicode="&#x1d0;" horiz-adv-x="180" 
d="M80 415l-96 66v54h23l83 -70.7324l83 70.7324h23v-54l-96 -66h-20zM50 340h80v-248c0 -40 3 -94 3 -94l-78 4l-5 88v250z" />
    <glyph glyph-name="uni01D1" unicode="&#x1d1;" horiz-adv-x="490" 
d="M235 520l-96 66v54h23l83 -70.7324l83 70.7324h23v-54l-96 -66h-20zM118 240c0 -108 50.7998 -180 127 -180s127 72 127 180s-50.7998 180 -127 180s-127 -72 -127 -180zM30 240c0 147 86 245 215 245s215 -98 215 -245s-86 -245 -215 -245s-215 98 -215 245z" />
    <glyph glyph-name="uni01D2" unicode="&#x1d2;" horiz-adv-x="400" 
d="M190 415l-96 66v54h23l83 -70.7324l83 70.7324h23v-54l-96 -66h-20zM25 170c0 105 70 175 175 175s175 -70 175 -175s-70 -175 -175 -175s-175 70 -175 175zM108 170c0 -69 36.7998 -115 92 -115s92 46 92 115s-36.7998 115 -92 115s-92 -46 -92 -115z" />
    <glyph glyph-name="uni01D3" unicode="&#x1d3;" horiz-adv-x="440" 
d="M207 535l-96 66v54h23l83 -70.7324l83 70.7324h23v-54l-96 -66h-20zM220 60c54 0 90 34 90 85v335h85v-335c0 -90 -70 -150 -175 -150s-175 60 -175 150v335h85v-335c0 -51 36 -85 90 -85z" />
    <glyph glyph-name="uni01D4" unicode="&#x1d4;" horiz-adv-x="440" 
d="M205 415l-96 66v54h23l83 -70.7324l83 70.7324h23v-54l-96 -66h-20zM45 340h80v-225c0 -36 28 -60 70 -60c63.4805 0 115 64.96 115 145v140h80v-340h-74.9609l-4.45703 79.6006c-27.0938 -51.2588 -71.0244 -84.6006 -120.582 -84.6006c-87 0 -145 42 -145 105v240z" />
    <glyph glyph-name="uni01E2" unicode="&#x1e2;" horiz-adv-x="590" 
d="M248 545v44c0 9.90039 1.09961 11 11 11h173v-44c0 -9.90039 -1.09961 -11 -11 -11h-173zM105 0h-90l161 480h389v-65h-186v-135h146v-60h-146v-155h186v-65h-271v100h-119.5l-29.7939 43.04zM294 415h-73l-71.3496 -255h144.35v255z" />
    <glyph glyph-name="uni01E3" unicode="&#x1e3;" horiz-adv-x="612" 
d="M208 425v44c0 9.90039 1.09961 11 11 11h173v-44c0 -9.90039 -1.09961 -11 -11 -11h-173zM260 185v12.1553l-55 -52.1553h-41c-34.7998 0 -58 -20 -58 -50c0 -27 22 -45 55 -45c54.6484 0 99 60.4805 99 135zM260 200v35c0 32.334 -29 55 -91 55
c-32.7002 0 -77.3281 -9.74414 -104 -28.6631v70.9697c32.8066 8.95508 69.9932 12.6934 104 12.6934c65.5244 0 116.234 -19.3242 142.078 -51.4189c28.1064 32.6611 69.2266 51.4189 118.922 51.4189c93 0 155 -58.7998 155 -147v-23c0 -19.5 -11 -30 -30 -30h-213.475
c7.58203 -58.6846 43.2744 -90 103.475 -90c38.416 0 70.9746 9.62109 95 26.6631v-73.9697c-30 -8.69336 -60.4824 -12.6934 -95 -12.6934c-80.8799 0 -140.992 41.5332 -164.342 108.604c-23.9229 -64.1914 -75.248 -108.604 -134.658 -108.604
c-72.5996 0 -121 42 -121 105c0 60 53.2002 100 133 100h102zM340.424 156.467l39.5762 43.5332h135c0 58.5 -29.75 90 -85 90c-58.5 0 -90 -42 -90 -120c0 -4.64453 0.141602 -9.15625 0.423828 -13.5332z" />
    <glyph glyph-name="Gcaron" unicode="&#x1e6;" horiz-adv-x="442" 
d="M237 535l-96 66v54h23l83 -70.7324l83 70.7324h23v-54l-96 -66h-20zM255 260h145v-246l-34 -5c-28 -8 -69.4824 -14 -104 -14c-139.2 0 -232 100 -232 250c0 144 94.7998 240 237 240c34.5176 0 75 -7 103 -14.6934v-83.9697
c-24.0254 17.042 -54.584 28.6631 -93 28.6631c-95.4004 0 -159 -68 -159 -170c0 -108 57.5996 -180 144 -180c22.5732 0 44.1602 3.32227 63 9.51953v125.48h-70v60z" />
    <glyph glyph-name="gcaron" unicode="&#x1e7;" horiz-adv-x="420" 
d="M190 415l-96 66v54h23l83 -70.7324l83 70.7324h23v-54l-96 -66h-20zM25 170c0 102 61.2002 170 153 170h72l40.0273 -55.8506l9.97266 55.8506h70v-370c0 -105 -76.001 -175 -190 -175c-31.9863 0 -73.9268 3.10645 -105 10.6934v77.9697
c29.7188 -21.0801 68.5645 -28.6631 105 -28.6631c66.001 0 110 46 110 115v96.3037c-25.9941 -43.3896 -66.5098 -71.3037 -112 -71.3037c-91.7998 0 -153 70 -153 175zM108 170c0 -69 34.4004 -115 86 -115c52.9863 0 96 56 96 124.965v100.035h-96
c-51.5996 0 -86 -44 -86 -110z" />
    <glyph glyph-name="uni01E8" unicode="&#x1e8;" horiz-adv-x="450" 
d="M182 535l-96 66v54h23l83 -70.7324l83 70.7324h23v-54l-96 -66h-20zM151.972 244.858l160.353 235.142h105.676l-185.972 -234.858l202.988 -245.142h-117.366zM55 0v480h85v-480h-85z" />
    <glyph glyph-name="uni01E9" unicode="&#x1e9;" horiz-adv-x="425" 
d="M220 545l-96 66v54h23l83 -70.7324l83 70.7324h23v-54l-96 -66h-20zM50 0v540h80v-540h-80zM410.017 0h-112.366l-146.679 174.858l141.353 165.142h100.751l-160.047 -164.858z" />
    <glyph glyph-name="uni01EA" unicode="&#x1ea;" horiz-adv-x="490" 
d="M30 240c0 147 85.999 245 214.999 245s215 -98 215 -245c0 -134.6 -72.1025 -228.118 -183.3 -242.938c-55.6426 -9.54102 -90.6992 -43.0732 -90.6992 -89.3965c0 -31.8008 22 -53 55 -53c18 0 42.1055 6.06641 70 23.4971v-68.4971c-25.6719 -10.8096 -52 -15 -75 -15
c-66 0 -110 41.1992 -110 103c0 41.5176 29.0693 78.4023 73.9873 101.58c-103.604 20.2754 -169.987 111.604 -169.987 240.754zM117.999 240c0 -108 50.7998 -180 127 -180s127 72 127 180s-50.7998 180 -127 180s-127 -72 -127 -180z" />
    <glyph glyph-name="uni01EB" unicode="&#x1eb;" horiz-adv-x="400" 
d="M108 170c0 -69 36.7998 -115 92 -115s92 46 92 115s-36.7998 115 -92 115s-92 -46 -92 -115zM25 170c0 105 69.999 174.998 174.999 174.998s175 -70 175 -175c0 -93.332 -55.3066 -159.011 -141.34 -172.455c-54.3516 -10.0391 -88.6592 -43.1807 -88.6592 -88.8779
c0 -31.8008 22 -53 55 -53c18 0 42.1055 6.06641 70 23.4971v-68.4971c-25.6719 -10.8096 -52 -15 -75 -15c-66 0 -110 41.1992 -110 103c0 40.9131 28.2295 77.3281 72.0361 100.561c-80.6963 16.5986 -132.036 80.8516 -132.036 170.774z" />
    <glyph glyph-name="uni01EC" unicode="&#x1ec;" horiz-adv-x="490" 
d="M153 530v44c0 9.90039 1.09961 11 11 11h173v-44c0 -9.90039 -1.09961 -11 -11 -11h-173zM30 240c0 147 86 245 215 245s215 -98 215 -245c0 -134.6 -72.1025 -228.118 -183.3 -242.938c-55.6436 -9.54102 -90.7002 -43.0723 -90.7002 -89.3955c0 -31.8008 22 -53 55 -53
c18 0 42.1055 6.06641 70 23.4971v-68.4971c-25.6719 -10.8096 -52 -15 -75 -15c-66 0 -110 41.1992 -110 103c0 41.5176 29.0693 78.4023 73.9873 101.58c-103.604 20.2754 -169.987 111.603 -169.987 240.753zM118 240c0 -108 50.7998 -180 127 -180s127 72 127 180
s-50.7998 180 -127 180s-127 -72 -127 -180z" />
    <glyph glyph-name="uni01ED" unicode="&#x1ed;" horiz-adv-x="400" 
d="M108 425v44c0 9.90039 1.09961 11 11 11h173v-44c0 -9.90039 -1.09961 -11 -11 -11h-173zM108 170c0 -69 36.7998 -115 92 -115s92 46 92 115s-36.7998 115 -92 115s-92 -46 -92 -115zM25 170c0 105 70 175 175 175s175 -70 175 -175
c0 -93.332 -55.3066 -159.011 -141.34 -172.455c-54.3525 -10.0391 -88.6602 -43.1807 -88.6602 -88.8779c0 -31.8008 22 -53 55 -53c18 0 42.1055 6.06641 70 23.4971v-68.4971c-25.6719 -10.8096 -52 -15 -75 -15c-66 0 -110 41.1992 -110 103
c0 40.9131 28.2285 77.3271 72.0361 100.56c-80.6963 16.5986 -132.036 80.8506 -132.036 170.773z" />
    <glyph glyph-name="uni01F0" unicode="&#x1f0;" horiz-adv-x="180" 
d="M80 415l-96 66v54h23l83 -70.7324l83 70.7324h23v-54l-96 -66h-20zM50 340h80v-425c0 -72 -50 -120 -125 -120c-27.1826 0 -44.0391 4.94336 -70 13v73c21.3281 -14.542 44.1865 -26 70 -26c27 0 45 24 45 60v425z" />
    <glyph glyph-name="uni01F4" unicode="&#x1f4;" horiz-adv-x="442" 
d="M209 530l-10 13l79 117h54v-59zM255 260h145v-246l-34 -5c-28 -8 -69.4824 -14 -104 -14c-139.2 0 -232 100 -232 250c0 144 94.7998 240 237 240c34.5176 0 75 -7 103 -14.6934v-83.9697c-24.0254 17.042 -54.584 28.6631 -93 28.6631c-95.4004 0 -159 -68 -159 -170
c0 -108 57.5996 -180 144 -180c22.5732 0 44.1602 3.32227 63 9.51953v125.48h-70v60z" />
    <glyph glyph-name="uni01F5" unicode="&#x1f5;" horiz-adv-x="420" 
d="M162 410l-10 13l79 117h54v-59zM25 170c0 102 61.2002 170 153 170h72l40.0273 -55.8506l9.97266 55.8506h70v-370c0 -105 -76.001 -175 -190 -175c-31.9863 0 -73.9268 3.10645 -105 10.6934v77.9697c29.7188 -21.0801 68.5645 -28.6631 105 -28.6631
c66.001 0 110 46 110 115v96.3037c-25.9941 -43.3896 -66.5098 -71.3037 -112 -71.3037c-91.7998 0 -153 70 -153 175zM108 170c0 -69 34.4004 -115 86 -115c52.9863 0 96 56 96 124.965v100.035h-96c-51.5996 0 -86 -44 -86 -110z" />
    <glyph glyph-name="uni01F8" unicode="&#x1f8;" horiz-adv-x="470" 
d="M273 530l-123 71v59h54l79 -117zM55 0v480h70l225 -336.733v336.733h65v-480h-70l-225 330.733v-330.733h-65z" />
    <glyph glyph-name="uni01F9" unicode="&#x1f9;" horiz-adv-x="440" 
d="M263 410l-123 71v59h54l79 -117zM50 0v340h74.9609l4.45703 -79.6006c27.0928 51.2588 71.0254 84.6006 120.582 84.6006c87 0 145 -42 145 -105v-240h-80v225c0 36 -28 60 -70 60c-63.4805 0 -115 -64.96 -115 -145v-140h-80z" />
    <glyph glyph-name="AEacute" unicode="&#x1fc;" horiz-adv-x="590" 
d="M272 530l-10 13l79 117h54v-59zM105 0h-90l161 480h389v-65h-186v-135h146v-60h-146v-155h186v-65h-271v100h-119.5l-29.7939 43.04zM294 415h-73l-71.3496 -255h144.35v255z" />
    <glyph glyph-name="aeacute" unicode="&#x1fd;" horiz-adv-x="612" 
d="M262 410l-10 13l79 117h54v-59zM260 185v12.1553l-55 -52.1553h-41c-34.7998 0 -58 -20 -58 -50c0 -27 22 -45 55 -45c54.6484 0 99 60.4805 99 135zM260 200v35c0 32.334 -29 55 -91 55c-32.7002 0 -77.3281 -9.74414 -104 -28.6631v70.9697
c32.8066 8.95508 69.9932 12.6934 104 12.6934c65.5244 0 116.234 -19.3242 142.078 -51.4189c28.1064 32.6611 69.2266 51.4189 118.922 51.4189c93 0 155 -58.7998 155 -147v-23c0 -19.5 -11 -30 -30 -30h-213.475c7.58203 -58.6846 43.2744 -90 103.475 -90
c38.416 0 70.9746 9.62109 95 26.6631v-73.9697c-30 -8.69336 -60.4824 -12.6934 -95 -12.6934c-80.8799 0 -140.992 41.5332 -164.342 108.604c-23.9229 -64.1914 -75.248 -108.604 -134.658 -108.604c-72.5996 0 -121 42 -121 105c0 60 53.2002 100 133 100h102z
M340.424 156.467l39.5762 43.5332h135c0 58.5 -29.75 90 -85 90c-58.5 0 -90 -42 -90 -120c0 -4.64453 0.141602 -9.15625 0.423828 -13.5332z" />
    <glyph glyph-name="Oslashacute" unicode="&#x1fe;" horiz-adv-x="490" 
d="M197 530l-10 13l79 117h54v-59zM30 240c0 147 86 245 215 245c37.1855 0 70.7988 -8.14258 99.8086 -23.2568l39.2002 64.167l51.1973 -31.2871l-41.9961 -68.7441c42.3564 -43.0908 66.79 -107.523 66.79 -185.879c0 -147 -86 -245 -215 -245
c-37.5098 0 -71.3848 8.28613 -100.567 23.6533l-39.4414 -64.5635l-51.1973 31.2871l42.3809 69.373c-41.9775 43.0879 -66.1748 107.276 -66.1748 185.25zM181.868 79.9307c18.0576 -12.9229 39.3584 -19.9307 63.1318 -19.9307c76.2002 0 127 72 127 180
c0 44.249 -8.52832 82.4561 -23.8359 112.143zM141.38 128.748l166.054 271.816c-17.9062 12.6064 -38.9658 19.4355 -62.4336 19.4355c-76.2002 0 -127 -72 -127 -180c0 -43.8076 8.3584 -81.6934 23.3799 -111.252z" />
    <glyph glyph-name="oslashacute" unicode="&#x1ff;" horiz-adv-x="400" 
d="M152 410l-10 13l79 117h54v-59zM25 170c0 105 70 175 175 175c23.2969 0 44.8711 -3.44629 64.3389 -9.95605l30.5088 50.6787l51.4502 -30.8701l-29.4062 -48.8477c36.7764 -30.7432 58.1084 -78.041 58.1084 -136.005c0 -105 -70 -175 -175 -175
c-23.2969 0 -44.8711 3.44629 -64.3389 9.95605l-30.5088 -50.6787l-51.4502 30.8701l29.4062 48.8477c-36.7764 30.7432 -58.1084 78.041 -58.1084 136.005zM167.92 58.543c9.81348 -3.63086 20.5576 -5.54297 32.0801 -5.54297c57 0 95 46.7998 95 117
c0 28.042 -6.06445 52.3506 -16.9805 71.4336zM121.98 98.5664l110.1 182.891c-9.81348 3.63086 -20.5576 5.54297 -32.0801 5.54297c-57 0 -95 -46.7998 -95 -117c0 -28.042 6.06445 -52.3506 16.9805 -71.4336z" />
    <glyph glyph-name="uni0200" unicode="&#x200;" horiz-adv-x="460" 
d="M323 535l-133 81v39h39l101 -109zM183 535l-133 81v39h39l101 -109zM15 0l171 480h88l171 -480h-90l-29.833 100h-190.334l-29.833 -100h-90zM151.838 157h156.324l-78.1621 262z" />
    <glyph glyph-name="uni0201" unicode="&#x201;" horiz-adv-x="420" 
d="M313 415l-133 81v39h39l101 -109zM173 415l-133 81v39h39l101 -109zM25 170c0 102 61.2002 170 153 170h72l40 -56l10.0391 56h69.9609v-248c0 -40 3 -94 3 -94l-73 4l-3.95996 72.9512c-25.4873 -48.2021 -68.8564 -79.9512 -118.04 -79.9512
c-91.7998 0 -153 70 -153 175zM108 170c0 -69 34.4004 -115 86 -115c52.9863 0 96 54 96 120v105h-96c-51.5996 0 -86 -44 -86 -110z" />
    <glyph glyph-name="uni0202" unicode="&#x202;" horiz-adv-x="460" 
d="M220 600c-35.8799 0 -65 -29.1201 -65 -65h-40c0 72 42 120 105 120s105 -48 105 -120h-35c0 35.8799 -31.3604 65 -70 65zM15 0l171 480h88l171 -480h-90l-29.833 100h-190.334l-29.833 -100h-90zM151.838 157h156.324l-78.1621 262z" />
    <glyph glyph-name="uni0203" unicode="&#x203;" horiz-adv-x="420" 
d="M200 480c-35.8799 0 -65 -29.1201 -65 -65h-40c0 72 42 120 105 120s105 -48 105 -120h-35c0 35.8799 -31.3604 65 -70 65zM25 170c0 102 61.2002 170 153 170h72l40 -56l10.0391 56h69.9609v-248c0 -40 3 -94 3 -94l-73 4l-3.95996 72.9512
c-25.4873 -48.2021 -68.8564 -79.9512 -118.04 -79.9512c-91.7998 0 -153 70 -153 175zM108 170c0 -69 34.4004 -115 86 -115c52.9863 0 96 54 96 120v105h-96c-51.5996 0 -86 -44 -86 -110z" />
    <glyph glyph-name="uni0204" unicode="&#x204;" horiz-adv-x="380" 
d="M315 535l-133 81v39h39l101 -109zM175 535l-133 81v39h39l101 -109zM55 0v480h300v-65h-215v-135h175v-60h-175v-155h215v-65h-300z" />
    <glyph glyph-name="uni0205" unicode="&#x205;" horiz-adv-x="377" 
d="M298 415l-133 81v39h39l101 -109zM158 415l-133 81v39h39l101 -109zM105.424 156.467l39.5762 43.5332h135c0 58.5 -29.75 90 -85 90c-58.5 0 -90 -42 -90 -120c0 -4.64453 0.141602 -9.15625 0.423828 -13.5332zM106.525 145c7.58203 -58.6846 43.2744 -90 103.475 -90
c33.9355 0 67.3213 7.0293 95 26.6631v-73.9697c-31.5771 -9.15039 -62.124 -12.6934 -95 -12.6934c-111 0 -185 70 -185 175s68 175 170 175c93 0 155 -58.7998 155 -147v-23c0 -19.5 -11 -30 -30 -30h-213.475z" />
    <glyph glyph-name="uni0206" unicode="&#x206;" horiz-adv-x="380" 
d="M202 600c-35.8799 0 -65 -29.1201 -65 -65h-40c0 72 42 120 105 120s105 -48 105 -120h-35c0 35.8799 -31.3604 65 -70 65zM55 0v480h300v-65h-215v-135h175v-60h-175v-155h215v-65h-300z" />
    <glyph glyph-name="uni0207" unicode="&#x207;" horiz-adv-x="377" 
d="M185 480c-35.8799 0 -65 -29.1201 -65 -65h-40c0 72 42 120 105 120s105 -48 105 -120h-35c0 35.8799 -31.3604 65 -70 65zM105.424 156.467l39.5762 43.5332h135c0 58.5 -29.75 90 -85 90c-58.5 0 -90 -42 -90 -120c0 -4.64453 0.141602 -9.15625 0.423828 -13.5332z
M106.525 145c7.58203 -58.6846 43.2744 -90 103.475 -90c33.9355 0 67.3213 7.0293 95 26.6631v-73.9697c-31.5771 -9.15039 -62.124 -12.6934 -95 -12.6934c-111 0 -185 70 -185 175s68 175 170 175c93 0 155 -58.7998 155 -147v-23c0 -19.5 -11 -30 -30 -30h-213.475z" />
    <glyph glyph-name="uni0208" unicode="&#x208;" horiz-adv-x="195" 
d="M201 535l-133 81v39h39l101 -109zM61 535l-133 81v39h39l101 -109zM55 0v480h85v-480h-85z" />
    <glyph glyph-name="uni0209" unicode="&#x209;" horiz-adv-x="180" 
d="M168.7 421l-97.7002 83.9004l5 35.0996h35.0996l68.9004 -109.1zM57.7002 421l-97.7002 83.9004v35.0996h40.0996l68.9004 -109.1zM50 340h80v-248c0 -40 3 -94 3 -94l-78 4l-5 88v250z" />
    <glyph glyph-name="uni020A" unicode="&#x20a;" horiz-adv-x="195" 
d="M88 600c-35.8799 0 -65 -29.1201 -65 -65h-40c0 72 42 120 105 120s105 -48 105 -120h-35c0 35.8799 -31.3604 65 -70 65zM55 0v480h85v-480h-85z" />
    <glyph glyph-name="uni020B" unicode="&#x20b;" horiz-adv-x="180" 
d="M80 480c-35.8799 0 -65 -29.1201 -65 -65h-40c0 72 42 120 105 120s105 -48 105 -120h-35c0 35.8799 -31.3604 65 -70 65zM50 340h80v-248c0 -40 3 -94 3 -94l-78 4l-5 88v250z" />
    <glyph glyph-name="uni020C" unicode="&#x20c;" horiz-adv-x="490" 
d="M348 535l-133 81v39h39l101 -109zM208 535l-133 81v39h39l101 -109zM118 240c0 -108 50.7998 -180 127 -180s127 72 127 180s-50.7998 180 -127 180s-127 -72 -127 -180zM30 240c0 147 86 245 215 245s215 -98 215 -245s-86 -245 -215 -245s-215 98 -215 245z" />
    <glyph glyph-name="uni020D" unicode="&#x20d;" horiz-adv-x="400" 
d="M303 415l-133 81v39h39l101 -109zM163 415l-133 81v39h39l101 -109zM25 170c0 105 70 175 175 175s175 -70 175 -175s-70 -175 -175 -175s-175 70 -175 175zM108 170c0 -69 36.7998 -115 92 -115s92 46 92 115s-36.7998 115 -92 115s-92 -46 -92 -115z" />
    <glyph glyph-name="uni020E" unicode="&#x20e;" horiz-adv-x="490" 
d="M235 600c-35.8799 0 -65 -29.1201 -65 -65h-40c0 72 42 120 105 120s105 -48 105 -120h-35c0 35.8799 -31.3604 65 -70 65zM118 240c0 -108 50.7998 -180 127 -180s127 72 127 180s-50.7998 180 -127 180s-127 -72 -127 -180zM30 240c0 147 86 245 215 245
s215 -98 215 -245s-86 -245 -215 -245s-215 98 -215 245z" />
    <glyph glyph-name="uni020F" unicode="&#x20f;" horiz-adv-x="400" 
d="M190 480c-35.8799 0 -65 -29.1201 -65 -65h-40c0 72 42 120 105 120s105 -48 105 -120h-35c0 35.8799 -31.3604 65 -70 65zM25 170c0 105 70 175 175 175s175 -70 175 -175s-70 -175 -175 -175s-175 70 -175 175zM108 170c0 -69 36.7998 -115 92 -115s92 46 92 115
s-36.7998 115 -92 115s-92 -46 -92 -115z" />
    <glyph glyph-name="uni0210" unicode="&#x210;" horiz-adv-x="430" 
d="M315 535l-133 81v39h39l101 -109zM175 535l-133 81v39h39l101 -109zM55 0v480h155c107.4 0 179 -50 179 -125c0 -52.4883 -46.5859 -97.3311 -112.105 -114.981c61.0645 -16.1025 105.412 -55.6396 112.105 -110.019l16 -130h-87l-15 130
c-6.25586 54.2139 -46 80 -112 80h-51v-210h-85zM140 270h70c59.4004 0 99 34 99 85c0 39 -39.5996 65 -99 65h-70v-150z" />
    <glyph glyph-name="uni0211" unicode="&#x211;" horiz-adv-x="310" 
d="M263 415l-133 81v39h39l101 -109zM123 415l-133 81v39h39l101 -109zM50 340h74.9609l4.29199 -76.6621c28.4893 49.4297 75.1064 81.6621 127.747 81.6621h33v-85h-55c-63 0 -105 -38 -105 -95v-165h-80v340z" />
    <glyph glyph-name="uni0212" unicode="&#x212;" horiz-adv-x="430" 
d="M202 600c-35.8799 0 -65 -29.1201 -65 -65h-40c0 72 42 120 105 120s105 -48 105 -120h-35c0 35.8799 -31.3604 65 -70 65zM55 0v480h155c107.4 0 179 -50 179 -125c0 -52.4883 -46.5859 -97.3311 -112.105 -114.981c61.0645 -16.1025 105.412 -55.6396 112.105 -110.019
l16 -130h-87l-15 130c-6.25586 54.2139 -46 80 -112 80h-51v-210h-85zM140 270h70c59.4004 0 99 34 99 85c0 39 -39.5996 65 -99 65h-70v-150z" />
    <glyph glyph-name="uni0213" unicode="&#x213;" horiz-adv-x="310" 
d="M150 480c-35.8799 0 -65 -29.1201 -65 -65h-40c0 72 42 120 105 120s105 -48 105 -120h-35c0 35.8799 -31.3604 65 -70 65zM50 340h74.9609l4.29199 -76.6621c28.4893 49.4297 75.1064 81.6621 127.747 81.6621h33v-85h-55c-63 0 -105 -38 -105 -95v-165h-80v340z" />
    <glyph glyph-name="uni0214" unicode="&#x214;" horiz-adv-x="440" 
d="M320 535l-133 81v39h39l101 -109zM180 535l-133 81v39h39l101 -109zM220 60c54 0 90 34 90 85v335h85v-335c0 -90 -70 -150 -175 -150s-175 60 -175 150v335h85v-335c0 -51 36 -85 90 -85z" />
    <glyph glyph-name="uni0215" unicode="&#x215;" horiz-adv-x="440" 
d="M313 415l-133 81v39h39l101 -109zM173 415l-133 81v39h39l101 -109zM45 340h80v-225c0 -36 28 -60 70 -60c63.4805 0 115 64.96 115 145v140h80v-340h-74.9609l-4.45703 79.6006c-27.0938 -51.2588 -71.0244 -84.6006 -120.582 -84.6006c-87 0 -145 42 -145 105v240z" />
    <glyph glyph-name="uni0216" unicode="&#x216;" horiz-adv-x="440" 
d="M207 600c-35.8799 0 -65 -29.1201 -65 -65h-40c0 72 42 120 105 120s105 -48 105 -120h-35c0 35.8799 -31.3604 65 -70 65zM220 60c54 0 90 34 90 85v335h85v-335c0 -90 -70 -150 -175 -150s-175 60 -175 150v335h85v-335c0 -51 36 -85 90 -85z" />
    <glyph glyph-name="uni0217" unicode="&#x217;" horiz-adv-x="440" 
d="M200 480c-35.8799 0 -65 -29.1201 -65 -65h-40c0 72 42 120 105 120s105 -48 105 -120h-35c0 35.8799 -31.3604 65 -70 65zM45 340h80v-225c0 -36 28 -60 70 -60c63.4805 0 115 64.96 115 145v140h80v-340h-74.9609l-4.45703 79.6006
c-27.0938 -51.2588 -71.0244 -84.6006 -120.582 -84.6006c-87 0 -145 42 -145 105v240z" />
    <glyph glyph-name="Scommaaccent" unicode="&#x218;" horiz-adv-x="420" 
d="M182.933 -204.981l-30.9326 15.9814l28 62l-20 7v50c0 19 1 20 20 20h70v-41c0 -17 -7.07715 -31.6328 -19 -48zM40 32v83c39 -28 113 -60 160 -60c63 0 105 26 105 65c0 40.8301 -46.4033 67.4121 -108 89.8311c-76.7539 27.9365 -157 68.9033 -157 150.169
c0 81.25 64.75 125 185 125c44 0 96 -13 130 -31v-80c-27 27 -76 51 -130 51c-65 0 -100 -22.75 -100 -65c0 -30.6016 35.2422 -46.7578 99 -69.9639c79.6855 -29.0029 166 -68.0361 166 -165.036c0 -78 -76 -130 -190 -130c-50 0 -129 20 -160 37z" />
    <glyph glyph-name="scommaaccent" unicode="&#x219;" horiz-adv-x="352" 
d="M148.933 -204.981l-30.9326 15.9814l28 62l-20 7v50c0 19 1 20 20 20h70v-41c0 -17 -7.07715 -31.6328 -19 -48zM40 18v78c39 -28 88 -43 125 -43c51 0 75 13.7998 75 39c0 22.5732 -29.1904 36.0801 -70 47.0146c-58.8252 15.7637 -130 35.4971 -130 113.985
c0 59.7998 54.25 92 155 92c32 0 63 -3 95 -11v-80c-28 20 -62 33 -100 33c-48.75 0 -75 -11.2002 -75 -32c0 -21.7939 33.3389 -36.9873 73 -47.6152c58.7959 -15.7539 127 -34.3848 127 -107.385c0 -68.25 -56 -105 -160 -105c-36 0 -83 11 -115 23z" />
    <glyph glyph-name="uni021A" unicode="&#x21a;" horiz-adv-x="405" 
d="M186.933 -204.981l-30.9326 15.9814l28 62l-20 7v50c0 19 1 20 20 20h70v-41c0 -17 -7.07715 -31.6328 -19 -48zM20 480h365v-65h-140v-415h-85v415h-140v65z" />
    <glyph glyph-name="uni021B" unicode="&#x21b;" horiz-adv-x="298" 
d="M140.933 -204.981l-30.9326 15.9814l28 62l-20 7v50c0 19 1 20 20 20h70v-41c0 -17 -7.07715 -31.6328 -19 -48zM48 430l80 30v-120h130v-55h-130v-155c0 -52 18.5498 -80 53 -80c33.9355 0 59.3213 7.0293 87 26.6631v-70.9697
c-31.0732 -7.58691 -55.0137 -10.6934 -87 -10.6934c-86.4502 0 -133 47.25 -133 135v300z" />
    <glyph glyph-name="uni021E" unicode="&#x21e;" horiz-adv-x="470" 
d="M225 535l-96 66v54h23l83 -70.7324l83 70.7324h23v-54l-96 -66h-20zM55 0v480h85v-200h190v200h85v-480h-85v220h-190v-220h-85z" />
    <glyph glyph-name="uni021F" unicode="&#x21f;" horiz-adv-x="440" 
d="M220 545l-96 66v54h23l83 -70.7324l83 70.7324h23v-54l-96 -66h-20zM50 0v540h80v-280.544c27.1377 51.874 70.7959 85.5439 120 85.5439c87 0 145 -42 145 -105v-240h-80v225c0 36 -28 60 -70 60c-63.4805 0 -115 -67.2002 -115 -150v-135h-80z" />
    <glyph glyph-name="uni0226" unicode="&#x226;" horiz-adv-x="460" 
d="M190 566v59c0 9.90039 1.09961 11 11 11h69v-59c0 -9.90039 -1.09961 -11 -11 -11h-69zM15 0l171 480h88l171 -480h-90l-29.833 100h-190.334l-29.833 -100h-90zM151.838 157h156.324l-78.1621 262z" />
    <glyph glyph-name="uni0227" unicode="&#x227;" horiz-adv-x="420" 
d="M170 445v59c0 9.90039 1.09961 11 11 11h69v-59c0 -9.90039 -1.09961 -11 -11 -11h-69zM25 170c0 102 61.2002 170 153 170h72l40 -56l10.0391 56h69.9609v-248c0 -40 3 -94 3 -94l-73 4l-3.95996 72.9512c-25.4873 -48.2021 -68.8564 -79.9512 -118.04 -79.9512
c-91.7998 0 -153 70 -153 175zM108 170c0 -69 34.4004 -115 86 -115c52.9863 0 96 54 96 120v105h-96c-51.5996 0 -86 -44 -86 -110z" />
    <glyph glyph-name="uni0228" unicode="&#x228;" horiz-adv-x="380" 
d="M55 0v480h300v-65h-215v-135h175v-60h-175v-155h215v-65h-146.193l-6.80664 -51.9004h8c58.7998 0 98 -30 98 -75c0 -46.2002 -40 -77 -100 -77c-16 0 -33 2 -51 7v46c14 -10 34 -16 51 -16c28.7998 0 48 14.7998 48 37c0 24 -18.7998 40 -47 40h-48l9.98926 89.9004
h-115.989z" />
    <glyph glyph-name="uni0229" unicode="&#x229;" horiz-adv-x="377" 
d="M106.525 145c7.58203 -58.6846 43.2754 -90 103.476 -90c33.9355 0 67.3203 7.0293 94.999 26.6631v-73.9697c-31.4873 -9.12402 -61.9492 -12.6729 -94.7178 -12.6934l-6.28223 -47.9004h8c58.7998 0 98 -30 98 -75c0 -46.2002 -40 -77 -100 -77c-16 0 -33 2 -51 7v46
c14 -10 34 -16 51 -16c28.7998 0 48 14.7998 48 37c0 24 -18.7998 40 -47 40h-48l9.85352 88.6826c-90.0557 13.9629 -147.854 79.4219 -147.854 172.218c0 105 68 175 170 175c93 0 155 -58.7998 155 -147v-23c0 -19.5 -11 -30 -30 -30h-213.475zM105.425 156.467
l39.5762 43.5322h135c0 58.5 -29.75 90 -85 90c-58.5 0 -90 -42 -90 -120c0 -4.64453 0.141602 -9.15527 0.423828 -13.5322z" />
    <glyph glyph-name="uni022E" unicode="&#x22e;" horiz-adv-x="490" 
d="M205 550v59c0 9.90039 1.09961 11 11 11h69v-59c0 -9.90039 -1.09961 -11 -11 -11h-69zM118 240c0 -108 50.7998 -180 127 -180s127 72 127 180s-50.7998 180 -127 180s-127 -72 -127 -180zM30 240c0 147 86 245 215 245s215 -98 215 -245s-86 -245 -215 -245
s-215 98 -215 245z" />
    <glyph glyph-name="uni022F" unicode="&#x22f;" horiz-adv-x="400" 
d="M160 445v59c0 9.90039 1.09961 11 11 11h69v-59c0 -9.90039 -1.09961 -11 -11 -11h-69zM25 170c0 105 70 175 175 175s175 -70 175 -175s-70 -175 -175 -175s-175 70 -175 175zM108 170c0 -69 36.7998 -115 92 -115s92 46 92 115s-36.7998 115 -92 115s-92 -46 -92 -115z
" />
    <glyph glyph-name="uni0232" unicode="&#x232;" horiz-adv-x="440" 
d="M128 545v44c0 9.90039 1.09961 11 11 11h173v-44c0 -9.90039 -1.09961 -11 -11 -11h-173zM177 0v185l-162 295h102l103 -239l102 239h103l-163 -295v-185h-85z" />
    <glyph glyph-name="uni0233" unicode="&#x233;" horiz-adv-x="390" 
d="M105 425v44c0 9.90039 1.09961 11 11 11h173v-44c0 -9.90039 -1.09961 -11 -11 -11h-173zM15 340h94l96 -258l76 258h94l-141 -349c-45 -111 -114 -191 -224 -191v70c79 0 129 63 163 134z" />
    <glyph glyph-name="uni0237" unicode="&#x237;" horiz-adv-x="180" 
d="M50 340h80v-425c0 -72 -50 -120 -125 -120c-27.1826 0 -44.0391 4.94336 -70 13v73c21.3281 -14.542 44.1865 -26 70 -26c27 0 45 24 45 60v425z" />
    <glyph glyph-name="circumflex" unicode="&#x2c6;" horiz-adv-x="250" 
d="M135 535l96 -66v-54h-23l-83 70.7324l-83 -70.7324h-23v54l96 66h20z" />
    <glyph glyph-name="caron" unicode="&#x2c7;" horiz-adv-x="250" 
d="M115 415l-96 66v54h23l83 -70.7324l83 70.7324h23v-54l-96 -66h-20z" />
    <glyph glyph-name="breve" unicode="&#x2d8;" horiz-adv-x="250" 
d="M125 470c35.8799 0 65 29.1201 65 65h40c0 -72 -42 -120 -105 -120s-105 48 -105 120h35c0 -35.8799 31.3604 -65 70 -65z" />
    <glyph glyph-name="dotaccent" unicode="&#x2d9;" horiz-adv-x="100" 
d="M10 445v59c0 9.90039 1.09961 11 11 11h69v-59c0 -9.90039 -1.09961 -11 -11 -11h-69z" />
    <glyph glyph-name="ring" unicode="&#x2da;" horiz-adv-x="200" 
d="M18 475c0 51 32.7998 85 82 85s82 -34 82 -85s-32.7998 -85 -82 -85s-82 34 -82 85zM58 475c0 -27 16.7998 -45 42 -45s42 18 42 45s-16.7998 45 -42 45s-42 -18 -42 -45z" />
    <glyph glyph-name="ogonek" unicode="&#x2db;" horiz-adv-x="320" 
d="M300 0c-75 0 -125 -36.7998 -125 -92c0 -31.7998 22 -53 55 -53c18 0 42.1055 6.06738 70 23.4971v-68.4971c-25.6719 -10.8086 -52 -15 -75 -15c-66 0 -110 41.2002 -110 103c0 70.1035 82.8799 127 185 127v-25z" />
    <glyph glyph-name="tilde" unicode="&#x2dc;" horiz-adv-x="260" 
d="M240 469c-14 -25 -32 -39 -53 -39c-17 0 -37 9.25 -57 18.5s-40 18.5 -57 18.5c-21 0 -39 -15 -53 -40v55c14 25 32 39 53 39c17 0 37 -9.25 57 -18.5s40 -18.5 57 -18.5c21 0 39 15 53 40v-55z" />
    <glyph glyph-name="hungarumlaut" unicode="&#x2dd;" horiz-adv-x="320" 
d="M27 415l-7 11l101 109h39v-39zM167 415l-7 11l101 109h39v-39z" />
    <glyph glyph-name="gravecomb" unicode="&#x300;" horiz-adv-x="0" 
d="M38 410l-123 71v59h54l79 -117z" />
    <glyph glyph-name="acutecomb" unicode="&#x301;" horiz-adv-x="0" 
d="M-38 410l-10 13l79 117h54v-59z" />
    <glyph glyph-name="uni0302" unicode="&#x302;" horiz-adv-x="0" 
d="M10 535l96 -66v-54h-23l-83 70.7324l-83 -70.7324h-23v54l96 66h20z" />
    <glyph glyph-name="tildecomb" unicode="&#x303;" horiz-adv-x="0" 
d="M110 469c-14 -25 -32 -39 -53 -39c-17 0 -37 9.25 -57 18.5s-40 18.5 -57 18.5c-21 0 -39 -15 -53 -40v55c14 25 32 39 53 39c17 0 37 -9.25 57 -18.5s40 -18.5 57 -18.5c21 0 39 15 53 40v-55z" />
    <glyph glyph-name="uni0304" unicode="&#x304;" horiz-adv-x="0" 
d="M-92 425v44c0 9.90039 1.09961 11 11 11h173v-44c0 -9.90039 -1.09961 -11 -11 -11h-173z" />
    <glyph glyph-name="uni0305" unicode="&#x305;" horiz-adv-x="0" 
d="M-117 425v44c0 9.90039 1.09961 11 11 11h223v-44c0 -9.90039 -1.09961 -11 -11 -11h-223z" />
    <glyph glyph-name="uni0306" unicode="&#x306;" horiz-adv-x="0" 
d="M0 470c35.8799 0 65 29.1201 65 65h40c0 -72 -42 -120 -105 -120s-105 48 -105 120h35c0 -35.8799 31.3604 -65 70 -65z" />
    <glyph glyph-name="uni0307" unicode="&#x307;" horiz-adv-x="0" 
d="M-40 445v59c0 9.90039 1.09961 11 11 11h69v-59c0 -9.90039 -1.09961 -11 -11 -11h-69z" />
    <glyph glyph-name="uni0308" unicode="&#x308;" horiz-adv-x="0" 
d="M40 445v59c0 9.90039 1.09961 11 11 11h64v-59c0 -9.90039 -1.09961 -11 -11 -11h-64zM-115 445v59c0 9.90039 1.09961 11 11 11h64v-59c0 -9.90039 -1.09961 -11 -11 -11h-64z" />
    <glyph glyph-name="uni030A" unicode="&#x30a;" horiz-adv-x="0" 
d="M-82 475c0 51 32.7998 85 82 85s82 -34 82 -85s-32.7998 -85 -82 -85s-82 34 -82 85zM-42 475c0 -27 16.7998 -45 42 -45s42 18 42 45s-16.7998 45 -42 45s-42 -18 -42 -45z" />
    <glyph glyph-name="uni030B" unicode="&#x30b;" horiz-adv-x="0" 
d="M-113 415l-7 11l101 109h39v-39zM27 415l-7 11l101 109h39v-39z" />
    <glyph glyph-name="uni030C" unicode="&#x30c;" horiz-adv-x="0" 
d="M-10 415l-96 66v54h23l83 -70.7324l83 70.7324h23v-54l-96 -66h-20z" />
    <glyph glyph-name="uni030D" unicode="&#x30d;" horiz-adv-x="0" 
d="M-30 420v125h60v-125h-60z" />
    <glyph glyph-name="uni030E" unicode="&#x30e;" horiz-adv-x="0" 
d="M35 420v125h60v-125h-60zM-95 420v125h60v-125h-60z" />
    <glyph glyph-name="uni030F" unicode="&#x30f;" horiz-adv-x="0" 
d="M113 415l-133 81v39h39l101 -109zM-27 415l-133 81v39h39l101 -109z" />
    <glyph glyph-name="uni0310" unicode="&#x310;" horiz-adv-x="0" 
d="M0 440c35.8799 0 65 29.1201 65 65h40c0 -72 -42 -120 -105 -120s-105 48 -105 120h35c0 -35.8799 31.3604 -65 70 -65zM-27 500v44c0 9.90039 1.09961 11 11 11h43v-44c0 -9.90039 -1.09961 -11 -11 -11h-43z" />
    <glyph glyph-name="uni0311" unicode="&#x311;" horiz-adv-x="0" 
d="M0 480c-35.8799 0 -65 -29.1201 -65 -65h-40c0 72 42 120 105 120s105 -48 105 -120h-35c0 35.8799 -31.3604 65 -70 65z" />
    <glyph glyph-name="uni0312" unicode="&#x312;" horiz-adv-x="0" 
d="M24.0674 545l26.9326 -14.9814l-31 -71l20 -7v-50c0 -19 -1 -20 -20 -20h-70v41c0 17 6.91016 31.7568 19 48z" />
    <glyph glyph-name="uni0313" unicode="&#x313;" horiz-adv-x="0" 
d="M-24.0674 382.019l-26.9326 14.9814l31 71l-20 7v50c0 19 1 20 20 20h70v-41c0 -17 -6.91016 -31.7578 -19 -48z" />
    <glyph glyph-name="uni0314" unicode="&#x314;" horiz-adv-x="0" 
d="M24.0674 382.019l-55.0674 73.9814c-12.0898 16.2422 -19 31 -19 48v41h70c19 0 20 -1 20 -20v-50l-20 -7l31 -71z" />
    <glyph glyph-name="uni0326" unicode="&#x326;" horiz-adv-x="180" 
d="M67.9326 -204.981l-30.9326 15.9814l28 62l-20 7v50c0 19 1 20 20 20h70v-41c0 -17 -7.07715 -31.6328 -19 -48z" />
    <glyph glyph-name="uni0400" unicode="&#x400;" horiz-adv-x="380" 
d="M240 530l-123 71v59h54l79 -117zM55 0v480h300v-65h-215v-135h175v-60h-175v-155h215v-65h-300z" />
    <glyph glyph-name="afii10023" unicode="&#x401;" horiz-adv-x="380" 
d="M242 565v59c0 9.90039 1.09961 11 11 11h64v-59c0 -9.90039 -1.09961 -11 -11 -11h-64zM87 565v59c0 9.90039 1.09961 11 11 11h64v-59c0 -9.90039 -1.09961 -11 -11 -11h-64zM55 0v480h300v-65h-215v-135h175v-60h-175v-155h215v-65h-300z" />
    <glyph glyph-name="afii10051" unicode="&#x402;" horiz-adv-x="535" 
d="M20 480h365v-65h-140v-191.65c26.291 49.584 68.0312 81.6504 115 81.6504c84 0 140 -42 140 -105v-285c0 -72 -50 -120 -125 -120c-27.1826 0 -44.0391 4.94336 -70 13v73c21.3281 -14.542 44.1875 -26 70 -26c27 0 45 24 45 60v270c0 36 -26 60 -65 60
c-60.7197 0 -110 -64.96 -110 -145v-100h-85v415h-140v65z" />
    <glyph glyph-name="afii10052" unicode="&#x403;" horiz-adv-x="375" 
d="M175 530l-10 13l79 117h54v-59zM55 480h300v-65h-215v-415h-85v480z" />
    <glyph glyph-name="afii10053" unicode="&#x404;" horiz-adv-x="400" 
d="M365 7.69336c-28.6133 -6.98633 -65.4824 -12.6934 -100 -12.6934c-141 0 -235 98 -235 245s94 245 235 245c34.5176 0 71.3867 -5.70703 100 -12.6934v-85.9697c-24.0254 17.042 -51.584 28.6631 -90 28.6631c-83.832 0 -142.474 -56.8789 -153.222 -145h173.222v-60
h-173.337c10.0547 -88.1211 64.9141 -145 143.337 -145c38.416 0 75.9746 11.6211 100 28.6631v-85.9697z" />
    <glyph glyph-name="afii10054" unicode="&#x405;" horiz-adv-x="420" 
d="M40 32v83c39 -28 113 -60 160 -60c63 0 105 26 105 65c0 40.8301 -46.4033 67.4121 -108 89.8311c-76.7539 27.9365 -157 68.9033 -157 150.169c0 81.25 64.75 125 185 125c44 0 96 -13 130 -31v-80c-27 27 -76 51 -130 51c-65 0 -100 -22.75 -100 -65
c0 -30.6016 35.2422 -46.7578 99 -69.9639c79.6855 -29.0029 166 -68.0361 166 -165.036c0 -78 -76 -130 -190 -130c-50 0 -129 20 -160 37z" />
    <glyph glyph-name="afii10055" unicode="&#x406;" horiz-adv-x="195" 
d="M55 0v480h85v-480h-85z" />
    <glyph glyph-name="afii10056" unicode="&#x407;" horiz-adv-x="195" 
d="M128 565v59c0 9.90039 1.09961 11 11 11h64v-59c0 -9.90039 -1.09961 -11 -11 -11h-64zM-27 565v59c0 9.90039 1.09961 11 11 11h64v-59c0 -9.90039 -1.09961 -11 -11 -11h-64zM55 0v480h85v-480h-85z" />
    <glyph glyph-name="afii10057" unicode="&#x408;" horiz-adv-x="325" 
d="M280 480v-335c0 -90 -64 -150 -160 -150c-24 0 -61.1934 5.31055 -90 13.6934v76.9697c27.9463 -19.8965 60 -30.6631 89 -30.6631c45.5996 0 76 40 76 100v260h-160v65h245z" />
    <glyph glyph-name="afii10058" unicode="&#x409;" horiz-adv-x="670" 
d="M20 80c51 0 85 32 85 95v305h300v-200h51c113.4 0 189 -56 189 -140s-75.5996 -140 -189 -140h-136v420h-130v-245c0 -108 -68 -180 -170 -180v85zM405 220v-160h55c58.7998 0 98 32 98 80s-39.2002 80 -98 80h-55z" />
    <glyph glyph-name="afii10059" unicode="&#x40a;" horiz-adv-x="680" 
d="M330 0v220h-190v-220h-85v480h85v-200h190v200h85v-200h51c113.4 0 189 -56 189 -140s-75.5996 -140 -189 -140h-136zM415 220v-160h55c58.7998 0 98 32 98 80s-39.2002 80 -98 80h-55z" />
    <glyph glyph-name="afii10060" unicode="&#x40b;" horiz-adv-x="545" 
d="M20 480h365v-65h-140v-191.65c26.291 49.584 68.0312 81.6504 115 81.6504c84 0 140 -42 140 -105v-200h-80v185c0 36 -26 60 -65 60c-60.7197 0 -110 -64.96 -110 -145v-100h-85v415h-140v65z" />
    <glyph glyph-name="afii10061" unicode="&#x40c;" horiz-adv-x="450" 
d="M154 530l-10 13l79 117h54v-59zM151.972 244.858l160.353 235.142h105.676l-185.972 -234.858l202.988 -245.142h-117.366zM55 0v480h85v-480h-85z" />
    <glyph glyph-name="uni040D" unicode="&#x40d;" horiz-adv-x="470" 
d="M253 530l-123 71v59h54l79 -117zM415 0h-80v323.733l-205 -323.733h-75v480h80v-329.733l205 329.733h75v-480z" />
    <glyph glyph-name="afii10062" unicode="&#x40e;" horiz-adv-x="405" 
d="M212 565c33 0 55 32 55 80h50c0 -66 -42 -110 -105 -110s-105 44 -105 110h50c0 -48 22 -80 55 -80zM15 480h96l107 -256l82 256h90l-128.325 -320.15c-53.8828 -132.365 -110.425 -164.85 -236.675 -164.85v70c85.1367 0 127.161 4.58398 161.585 82.4502z" />
    <glyph glyph-name="afii10145" unicode="&#x40f;" horiz-adv-x="470" 
d="M415 480v-480h-164.206l4.20605 -106h-60l4.20605 106h-144.206v480h85v-420h190v420h85z" />
    <glyph glyph-name="afii10017" unicode="&#x410;" horiz-adv-x="460" 
d="M15 0l171 480h88l171 -480h-90l-29.833 100h-190.334l-29.833 -100h-90zM151.838 157h156.324l-78.1621 262z" />
    <glyph glyph-name="afii10018" unicode="&#x411;" horiz-adv-x="425" 
d="M140 60h60c67.7998 0 113 32 113 80s-45.2002 80 -113 80h-60v-160zM55 0v480h300v-60h-215v-140h55c123 0 205 -56 205 -140s-82 -140 -205 -140h-140z" />
    <glyph glyph-name="afii10019" unicode="&#x412;" horiz-adv-x="430" 
d="M55 0v480h147c103.8 0 173 -48 173 -120c0 -48.7666 -47.3682 -90.4736 -111.369 -107.189c78.6289 -10.9639 141.369 -61.8066 141.369 -122.811c0 -78 -69.2002 -130 -173 -130h-177zM140 220v-160h79c60.5996 0 101 28 101 70c0 54 -40.4004 90 -101 90h-79zM140 420
v-140h59c60.5996 0 101 32 101 80c0 36 -40.4004 60 -101 60h-59z" />
    <glyph glyph-name="afii10020" unicode="&#x413;" horiz-adv-x="375" 
d="M55 480h300v-65h-215v-415h-85v480z" />
    <glyph glyph-name="afii10021" unicode="&#x414;" 
d="M20 60h38c46 5 77 57.54 77 120v300h295v-420h60v-166h-60v106h-350v-106h-60v166zM345 60v360h-125v-240c0 -47.3027 -16 -90 -45 -120h170z" />
    <glyph glyph-name="afii10022" unicode="&#x415;" horiz-adv-x="380" 
d="M55 0v480h300v-65h-215v-135h175v-60h-175v-155h215v-65h-300z" />
    <glyph glyph-name="afii10024" unicode="&#x416;" horiz-adv-x="691" 
d="M293.045 244.858l-163.679 -244.858h-114.366l197.988 245.142l-180.972 234.858h102.676zM397.973 244.858l158.352 235.142h102.676l-180.972 -234.858l197.989 -245.142h-114.367zM303 0v480h85v-480h-85z" />
    <glyph glyph-name="afii10025" unicode="&#x417;" horiz-adv-x="370" 
d="M25 7.69336l0.000976562 80.9707c27.8926 -19.7842 80.8037 -28.6631 115 -28.6631c69 0 115 32 115 80c0 57 -40.4004 95 -101 95h-59v65h35c57.96 0 105 31.3604 105 70c0 30 -38.4004 50 -96 50c-31.9004 0 -77.9814 -10.2061 -104 -28.6631v80.9697
c26.9639 7.68262 76.9629 12.6924 105 12.6924c105 0 175 -46 175 -115c0 -44.4746 -45.2852 -82.7568 -110.153 -99.7002c80.7256 -15.5713 140.152 -68.0352 140.152 -130.3c0 -87 -82 -145 -205 -145c-34.2627 0 -81.7148 4.56641 -115 12.6934z" />
    <glyph glyph-name="afii10026" unicode="&#x418;" horiz-adv-x="470" 
d="M415 0h-80v323.733l-205 -323.733h-75v480h80v-329.733l205 329.733h75v-480z" />
    <glyph glyph-name="afii10027" unicode="&#x419;" horiz-adv-x="470" 
d="M235 565c33 0 55 32 55 80h50c0 -66 -42 -110 -105 -110s-105 44 -105 110h50c0 -48 22 -80 55 -80zM415 0h-80v323.733l-205 -323.733h-75v480h80v-329.733l205 329.733h75v-480z" />
    <glyph glyph-name="afii10028" unicode="&#x41a;" horiz-adv-x="450" 
d="M151.972 244.858l160.353 235.142h105.676l-185.972 -234.858l202.988 -245.142h-117.366zM55 0v480h85v-480h-85z" />
    <glyph glyph-name="afii10029" unicode="&#x41b;" horiz-adv-x="470" 
d="M20 80c51 0 85 32 85 95v305h310v-480h-85v420h-140v-245c0 -108 -68 -180 -170 -180v85z" />
    <glyph glyph-name="afii10030" unicode="&#x41c;" horiz-adv-x="640" 
d="M55 0v480h83l182 -327l182 327h83v-480h-75v343l-189 -340h-2l-189 340v-343h-75z" />
    <glyph glyph-name="afii10031" unicode="&#x41d;" horiz-adv-x="470" 
d="M55 0v480h85v-200h190v200h85v-480h-85v220h-190v-220h-85z" />
    <glyph glyph-name="afii10032" unicode="&#x41e;" horiz-adv-x="490" 
d="M118 240c0 -108 50.7998 -180 127 -180s127 72 127 180s-50.7998 180 -127 180s-127 -72 -127 -180zM30 240c0 147 86 245 215 245s215 -98 215 -245s-86 -245 -215 -245s-215 98 -215 245z" />
    <glyph glyph-name="afii10033" unicode="&#x41f;" horiz-adv-x="470" 
d="M55 0v480h360v-480h-85v420h-190v-420h-85z" />
    <glyph glyph-name="afii10034" unicode="&#x420;" horiz-adv-x="425" 
d="M55 0v480h140c123 0 205 -60 205 -150c0 -96 -80 -160 -200 -160h-60v-170h-85zM140 230h59c68.4004 0 114 40 114 100c0 54 -45.5996 90 -114 90h-59v-190z" />
    <glyph glyph-name="afii10035" unicode="&#x421;" horiz-adv-x="400" 
d="M365 7.69336c-28.6133 -6.98633 -65.4824 -12.6934 -100 -12.6934c-141 0 -235 98 -235 245s94 245 235 245c34.5176 0 71.3867 -5.70703 100 -12.6934v-85.9697c-24.0254 17.042 -51.584 28.6631 -90 28.6631c-93 0 -155 -70 -155 -175s58 -175 145 -175
c38.416 0 75.9746 11.6211 100 28.6631v-85.9697z" />
    <glyph glyph-name="afii10036" unicode="&#x422;" horiz-adv-x="405" 
d="M20 480h365v-65h-140v-415h-85v415h-140v65z" />
    <glyph glyph-name="afii10037" unicode="&#x423;" horiz-adv-x="405" 
d="M15 480h96l107 -256l82 256h90l-128.325 -320.15c-53.8828 -132.365 -110.425 -164.85 -236.675 -164.85v70c85.1367 0 127.161 4.58398 161.585 82.4502z" />
    <glyph glyph-name="afii10038" unicode="&#x424;" 
d="M295 128.212c68.5439 11.5576 112 53.4541 112 111.788s-43.4561 100.23 -112 111.788v-223.576zM295 417.965c118.497 -12.4014 195 -80.5342 195 -177.965s-76.5029 -165.563 -195 -177.965v-62.0352h-80v62.0352c-118.497 12.4014 -195 80.5342 -195 177.965
s76.5029 165.563 195 177.965v62.0352h80v-62.0352zM215 128.212v223.576c-68.5439 -11.5576 -112 -53.4541 -112 -111.788s43.4561 -100.23 112 -111.788z" />
    <glyph glyph-name="afii10039" unicode="&#x425;" horiz-adv-x="440" 
d="M118 0h-103l165.324 251.183l-148.324 228.817h100l88 -161.071l88 161.071h100l-148.324 -228.817l165.324 -251.183h-103l-102 183.762z" />
    <glyph glyph-name="afii10040" unicode="&#x426;" 
d="M55 0v480h85v-420h185v420h85v-420h80v-166h-60v106h-375z" />
    <glyph glyph-name="afii10041" unicode="&#x427;" horiz-adv-x="445" 
d="M390 0h-84.9736l-0.0263672 185h-122c-82.7998 0 -138 50 -138 125v170h80v-170c0 -33 24.4004 -55 61 -55h118.623h0.40332v225h84.9736v-480z" />
    <glyph glyph-name="afii10042" unicode="&#x428;" horiz-adv-x="645" 
d="M590 480v-480h-535v480h85v-420h140v420h85v-420h140v420h85z" />
    <glyph glyph-name="afii10043" unicode="&#x429;" horiz-adv-x="675" 
d="M55 0v480h85v-420h135v420h85v-420h135v420h85v-420h75v-166h-60v106h-540z" />
    <glyph glyph-name="afii10044" unicode="&#x42a;" horiz-adv-x="475" 
d="M200 60h65c58.7998 0 98 30 98 75s-39.2002 75 -98 75h-65v-150zM115 0v420h-95v60h180v-210h61c113.4 0 189 -54 189 -135s-75.5996 -135 -189 -135h-146z" />
    <glyph glyph-name="afii10045" unicode="&#x42b;" horiz-adv-x="580" 
d="M55 0v480h85v-210h61c113.4 0 189 -54 189 -135s-75.5996 -135 -189 -135h-146zM140 60h65c58.7998 0 98 30 98 75s-39.2002 75 -98 75h-65v-150zM440 0v480h85v-480h-85z" />
    <glyph glyph-name="afii10046" unicode="&#x42c;" horiz-adv-x="415" 
d="M55 0v480h85v-210h61c113.4 0 189 -54 189 -135s-75.5996 -135 -189 -135h-146zM140 60h65c58.7998 0 98 30 98 75s-39.2002 75 -98 75h-65v-150z" />
    <glyph glyph-name="afii10047" unicode="&#x42d;" horiz-adv-x="400" 
d="M35 7.69336v85.9697c24.0254 -17.042 61.584 -28.6631 100 -28.6631c78.4229 0 133.282 56.8789 143.337 145h-173.337v60h173.222c-10.748 88.1211 -69.3896 145 -153.222 145c-38.416 0 -65.9746 -11.6211 -90 -28.6631v85.9697
c28.6133 6.98633 65.4824 12.6934 100 12.6934c141 0 235 -98 235 -245s-94 -245 -235 -245c-34.5176 0 -71.3867 5.70703 -100 12.6934z" />
    <glyph glyph-name="afii10048" unicode="&#x42e;" horiz-adv-x="660" 
d="M288 240c0 -108 50.7998 -180 127 -180s127 72 127 180s-50.7998 180 -127 180s-127 -72 -127 -180zM201.238 210h-61.2383v-210h-85v480h85v-210h61.2383c10.9561 130.182 93.751 215 213.762 215c129 0 215 -98 215 -245s-86 -245 -215 -245
c-120.011 0 -202.806 84.8184 -213.762 215z" />
    <glyph glyph-name="afii10049" unicode="&#x42f;" horiz-adv-x="430" 
d="M375 0h-85v205h-52v-24c0 -113 -80.1992 -176.705 -153 -182l-55 -4v80l55 4c43.8857 3.19141 99 48 99 117v11.1748c-81.2129 11.917 -143 71.3604 -143 142.825c0 78 69.2002 130 173 130h76h85v-480zM290 265v155h-67c-58.2002 0 -97 -28 -97 -70
c0 -51 38.7998 -85 97 -85h67z" />
    <glyph glyph-name="afii10065" unicode="&#x430;" horiz-adv-x="420" 
d="M25 170c0 102 61.2002 170 153 170h72l40 -56l10.0391 56h69.9609v-248c0 -40 3 -94 3 -94l-73 4l-3.95996 72.9512c-25.4873 -48.2021 -68.8564 -79.9512 -118.04 -79.9512c-91.7998 0 -153 70 -153 175zM108 170c0 -69 34.4004 -115 86 -115c52.9863 0 96 54 96 120
v105h-96c-51.5996 0 -86 -44 -86 -110z" />
    <glyph glyph-name="afii10066" unicode="&#x431;" horiz-adv-x="420" 
d="M395 170c0 -105 -71.2002 -174.999 -178 -174.999c-112.2 0 -187 98 -187 245s83.5996 245 209 245l96 0.306641v-20.3066c0 -24 -37.5996 -40 -94 -40c-65.5752 0 -112.486 -53.9492 -124.8 -138.816c27.1553 35.9316 68.0654 58.8154 113.8 58.8154
c99 0 165 -70 165 -175zM117.008 183.298c11.8223 -78.7812 48.9482 -128.297 99.9922 -128.297c58.7998 0 98 46 98 115s-38 115 -95 115c-56.4238 0 -102.297 -45.4443 -102.992 -101.703z" />
    <glyph glyph-name="afii10067" unicode="&#x432;" horiz-adv-x="390" 
d="M50 0v339.998h145c84 0 140 -34 140 -85c0 -32.6436 -33.0488 -60.7402 -80.3867 -73.1748c63.5977 -10.4326 110.387 -45.3691 110.387 -86.8232c0 -57 -62 -95 -155 -95h-160zM130 149.998v-95h80c42 0 70 16 70 40c0 33 -28 55 -70 55h-80zM130 284.998v-75h65
c39 0 65 16 65 40c0 21 -26 35 -65 35h-65z" />
    <glyph glyph-name="afii10068" unicode="&#x433;" horiz-adv-x="325" 
d="M55 340h250v-60h-170v-280h-80v340z" />
    <glyph glyph-name="afii10069" unicode="&#x434;" horiz-adv-x="460" 
d="M15 55h35c45 0 75 44 75 110v175h255v-285h60v-161h-55v106h-315v-106h-55v161zM300 55l-0.000976562 230h-95v-120c0 -49.1689 -24.6367 -88.0068 -66.1455 -110h161.146z" />
    <glyph glyph-name="afii10070" unicode="&#x435;" horiz-adv-x="377" 
d="M105.424 156.467l39.5762 43.5332h135c0 58.5 -29.75 90 -85 90c-58.5 0 -90 -42 -90 -120c0 -4.64453 0.141602 -9.15625 0.423828 -13.5332zM106.525 145c7.58203 -58.6846 43.2744 -90 103.475 -90c33.9355 0 67.3213 7.0293 95 26.6631v-73.9697
c-31.5771 -9.15039 -62.124 -12.6934 -95 -12.6934c-111 0 -185 70 -185 175s68 175 170 175c93 0 155 -58.7998 155 -147v-23c0 -19.5 -11 -30 -30 -30h-213.475z" />
    <glyph glyph-name="afii10072" unicode="&#x436;" horiz-adv-x="650" 
d="M15 0l172.988 175.142l-156.047 164.858h100.751l137.353 -165.142l-142.679 -174.858h-112.366zM635.018 -0h-112.367l-142.678 174.858l137.352 165.142h100.751l-156.047 -164.858zM285 0v340h80v-340h-80z" />
    <glyph glyph-name="afii10073" unicode="&#x437;" horiz-adv-x="325" 
d="M84 210l36 -0.000976562c48 0 80 16.2002 80 48c0 19 -27.4668 31.667 -68.667 31.667c-31.7051 0 -73.5342 -10.2393 -99.333 -28.667v71c28.6123 7.15332 63.8408 12.667 93.333 12.667c89.7998 0 149.667 -34.667 149.667 -86.667
c0 -33.6709 -36.7783 -62.6787 -89.5801 -75.6924c65.8799 -9.47461 114.58 -43.1045 114.58 -87.3066c0 -60 -66 -100 -165 -100c-34.2627 0 -76.7148 4.56641 -110 12.6934v70.9697c27.8926 -19.7842 78.8037 -28.6631 113 -28.6631c46.2002 0 77 17.5996 77 44
c0 39.5996 -32.4004 56 -81 56h-50v60z" />
    <glyph glyph-name="afii10074" unicode="&#x438;" horiz-adv-x="420" 
d="M50 0v340h75v-216.733l195 216.733h50v-340h-75v211.733l-195 -211.733h-50z" />
    <glyph glyph-name="afii10075" unicode="&#x439;" horiz-adv-x="420" 
d="M210 445c33 0 55 32 55 80h50c0 -66 -42 -110 -105 -110s-105 44 -105 110h50c0 -48 22 -80 55 -80zM50 0v340h75v-216.733l195 216.733h50v-340h-75v211.733l-195 -211.733h-50z" />
    <glyph glyph-name="afii10076" unicode="&#x43a;" horiz-adv-x="425" 
d="M410.017 0h-112.367l-146.678 174.858l141.352 165.142h100.751l-160.047 -164.858zM49.999 0v340h80v-340h-80z" />
    <glyph glyph-name="afii10077" unicode="&#x43b;" horiz-adv-x="425" 
d="M20 75c51 0 85 36 85 90v175h270v-340h-80v280h-110v-115c0 -102 -66 -170 -165 -170v80z" />
    <glyph glyph-name="afii10078" unicode="&#x43c;" horiz-adv-x="540" 
d="M50 0v340h75l145 -219l145 219h75v-340h-70v234l-149 -221h-2l-149 221v-234h-70z" />
    <glyph glyph-name="afii10079" unicode="&#x43d;" horiz-adv-x="420" 
d="M50 0v340h80v-130h160v130h80v-340h-80v150h-160v-150h-80z" />
    <glyph glyph-name="afii10080" unicode="&#x43e;" horiz-adv-x="400" 
d="M25 170c0 105 70 175 175 175s175 -70 175 -175s-70 -175 -175 -175s-175 70 -175 175zM108 170c0 -69 36.7998 -115 92 -115s92 46 92 115s-36.7998 115 -92 115s-92 -46 -92 -115z" />
    <glyph glyph-name="afii10081" unicode="&#x43f;" horiz-adv-x="420" 
d="M50 0v340h320v-340h-80v280h-160v-280h-80z" />
    <glyph glyph-name="afii10082" unicode="&#x440;" horiz-adv-x="420" 
d="M50 340h69.9609l9.81055 -55.7012l40.2285 55.7012h72c91.7998 0 153 -68 153 -170c0 -105 -61.2002 -175 -153 -175c-45.4902 0 -86.0059 27.9141 -112 71.3037v-266.304h-80v540zM130 280v-100c0 -69 43.0049 -125 96 -125c51.5996 0 86 46 86 115
c0 66 -34.4004 110 -86 110h-96z" />
    <glyph glyph-name="afii10083" unicode="&#x441;" horiz-adv-x="340" 
d="M310 7.69336c-28.6133 -6.98633 -60.4824 -12.6934 -95 -12.6934c-114 0 -190 70 -190 175s76 175 190 175c34.5176 0 66.3867 -5.70703 95 -12.6934v-81.9697c-24.0254 17.042 -56.584 26.6631 -95 26.6631c-64.2002 0 -107 -42.7998 -107 -107s42.7998 -107 107 -107
c38.416 0 70.9746 9.62109 95 26.6631v-81.9697z" />
    <glyph glyph-name="afii10084" unicode="&#x442;" horiz-adv-x="350" 
d="M20 340h310v-60h-115v-280h-80v280h-115v60z" />
    <glyph glyph-name="afii10085" unicode="&#x443;" horiz-adv-x="390" 
d="M15 340h94l96 -258l76 258h94l-141 -349c-45 -111 -114 -191 -224 -191v70c79 0 129 63 163 134z" />
    <glyph glyph-name="afii10086" unicode="&#x444;" horiz-adv-x="660" 
d="M290.006 289.224l0.0332031 250.776h79.9609v-250.768l40 50.7676h67c94.7998 0 158 -68 158 -170c0 -105 -61.2002 -175 -153 -175c-47.6094 0 -86.9092 28.4619 -112 70.7334v-265.733h-79.9941v265.744c-25.0908 -42.2773 -64.3926 -70.7441 -112.006 -70.7441
c-91.7998 0 -153 70 -153 175c0 102 63.2002 170 158 170h67zM290.006 285h-96.0068c-51.5996 0 -86 -46 -86 -115s32.4004 -115 81 -115c61.2725 0 101.007 56 101.007 125v105zM369.999 285v-105c0 -69 39.7275 -125 101 -125c48.5996 0 81 46 81 115
s-34.4004 115 -86 115h-96z" />
    <glyph glyph-name="afii10087" unicode="&#x445;" horiz-adv-x="420" 
d="M14.9834 0l159.017 180l-142.072 160h103.751l74.3223 -113l74 113h104.074l-142.074 -160l159.019 -180h-110.368l-84.6504 133l-84.6504 -133h-110.364h-0.000976562h-0.000976562h-0.000976562z" />
    <glyph glyph-name="afii10088" unicode="&#x446;" horiz-adv-x="440" 
d="M40 0v340h80v-280h140v280h80v-280h80v-166h-60v106h-320z" />
    <glyph glyph-name="afii10089" unicode="&#x447;" horiz-adv-x="400" 
d="M350 0h-79.9736l-0.0263672 115h-92c-82.7998 0 -138 46 -138 115v110h80v-110c0 -33 24.4004 -55 61 -55h89.0264v165h79.9736v-340z" />
    <glyph glyph-name="afii10090" unicode="&#x448;" horiz-adv-x="600" 
d="M550 340v-340h-500v340h80v-290h130v290h80v-290h130v290h80z" />
    <glyph glyph-name="afii10091" unicode="&#x449;" horiz-adv-x="640" 
d="M50 0v340h80v-280h125v280h80v-280h125v280h80v-280h80v-166h-60v106h-510z" />
    <glyph glyph-name="afii10092" unicode="&#x44a;" horiz-adv-x="425" 
d="M185 60h58c44.4004 0 74 20.7998 74 52c0 31.7998 -29.5996 53 -74 53h-58v-105zM105 0v290h-85v50h165v-115h55c96 0 160 -45.2002 160 -113c0 -67.2002 -64 -112 -160 -112h-135z" />
    <glyph glyph-name="afii10093" unicode="&#x44b;" 
d="M50 0v340h80v-115h55c96 0 160 -45.2002 160 -113c0 -67.2002 -64 -112 -160 -112h-135zM130 60h58c44.4004 0 74 20.7998 74 52c0 31.7998 -29.5996 53 -74 53h-58v-105zM390 0v340h70v-340h-70z" />
    <glyph glyph-name="afii10094" unicode="&#x44c;" horiz-adv-x="370" 
d="M50 0v340h80v-115h55c96 0 160 -45.2002 160 -113c0 -67.2002 -64 -112 -160 -112h-135zM130 60h58c44.4004 0 74 20.7998 74 52c0 31.7998 -29.5996 53 -74 53h-58v-105z" />
    <glyph glyph-name="afii10095" unicode="&#x44d;" horiz-adv-x="340" 
d="M315 170c0 -105 -76 -175 -190 -175c-34.5176 0 -66.3867 5.70703 -95 12.6934v78.9697c24.0254 -17.042 56.584 -26.6631 95 -26.6631c53.8916 0 92.7021 31.0039 103.777 80h-143.778v60h143.778c-11.0752 48.9961 -49.8857 80 -103.777 80
c-38.416 0 -70.9746 -9.62109 -95 -26.6631v78.9697c28.6133 6.98633 60.4824 12.6934 95 12.6934c114 0 190 -70 190 -175z" />
    <glyph glyph-name="afii10096" unicode="&#x44e;" horiz-adv-x="570" 
d="M278 170c0 -69 36.7998 -115 92 -115s92 46 92 115s-36.7998 115 -92 115s-92 -46 -92 -115zM50 0v340h80v-140h67.0068c12.1348 88.1211 78.3438 145 172.993 145c105 0 175 -70 175 -175s-70 -175 -175 -175c-94.6494 0 -160.858 56.8789 -172.993 145h-67.0068v-140
h-80z" />
    <glyph glyph-name="afii10097" unicode="&#x44f;" horiz-adv-x="395" 
d="M31 70l49.501 1.99902c42.748 1.72754 67.8369 20.6455 76.5244 56.0508c-67.1689 11.2998 -117.025 52.6787 -117.025 101.95c0 66 61.2002 110 153 110h72h80v-340h-80v125h-67.1787c-6.22559 -84.1162 -54.5908 -118.548 -117.821 -125l-49 -5v75zM265.001 174.999
v110h-63c-49.2002 0 -82 -22 -82 -55s32.7998 -55 82 -55h63z" />
    <glyph glyph-name="uni0450" unicode="&#x450;" horiz-adv-x="377" 
d="M223 410l-123 71v59h54l79 -117zM105.424 156.467l39.5762 43.5332h135c0 58.5 -29.75 90 -85 90c-58.5 0 -90 -42 -90 -120c0 -4.64453 0.141602 -9.15625 0.423828 -13.5332zM106.525 145c7.58203 -58.6846 43.2744 -90 103.475 -90
c33.9355 0 67.3213 7.0293 95 26.6631v-73.9697c-31.5771 -9.15039 -62.124 -12.6934 -95 -12.6934c-111 0 -185 70 -185 175s68 175 170 175c93 0 155 -58.7998 155 -147v-23c0 -19.5 -11 -30 -30 -30h-213.475z" />
    <glyph glyph-name="afii10071" unicode="&#x451;" horiz-adv-x="377" 
d="M225 445v59c0 9.90039 1.09961 11 11 11h64v-59c0 -9.90039 -1.09961 -11 -11 -11h-64zM70 445v59c0 9.90039 1.09961 11 11 11h64v-59c0 -9.90039 -1.09961 -11 -11 -11h-64zM105.424 156.467l39.5762 43.5332h135c0 58.5 -29.75 90 -85 90c-58.5 0 -90 -42 -90 -120
c0 -4.64453 0.141602 -9.15625 0.423828 -13.5332zM106.525 145c7.58203 -58.6846 43.2744 -90 103.475 -90c33.9355 0 67.3213 7.0293 95 26.6631v-73.9697c-31.5771 -9.15039 -62.124 -12.6934 -95 -12.6934c-111 0 -185 70 -185 175s68 175 170 175
c93 0 155 -58.7998 155 -147v-23c0 -19.5 -11 -30 -30 -30h-213.475z" />
    <glyph glyph-name="afii10099" unicode="&#x452;" horiz-adv-x="440" 
d="M50 0l-0.000976562 405h-35v55h35v80h80v-80h110v-55h-110v-165.544c27.1377 51.874 70.7959 85.5439 120 85.5439c87 0 145 -42 145 -105v-305c0 -72 -50 -120 -125 -120c-27.1826 0 -44.0391 4.94336 -70 13v73c21.3281 -14.542 44.1875 -26 70.001 -26
c27 0 45 24 45 60v290c0 36 -28 60 -70 60c-63.4805 0 -115 -67.2002 -115 -150v-115h-80z" />
    <glyph glyph-name="afii10100" unicode="&#x453;" horiz-adv-x="325" 
d="M125 390l-10 13l79 117h54v-59zM55 340h250v-60h-170v-280h-80v340z" />
    <glyph glyph-name="afii10101" unicode="&#x454;" horiz-adv-x="340" 
d="M25 170c0 105 76 175 190 175c34.5176 0 66.3867 -5.70703 95 -12.6934v-78.9697c-24.0254 17.042 -56.584 26.6631 -95 26.6631c-53.8906 0 -92.7041 -31.0039 -103.778 -80h143.778v-60h-143.778c11.0742 -48.9961 49.8877 -80 103.778 -80
c38.416 0 70.9746 9.62109 95 26.6631v-78.9697c-28.6133 -6.98633 -60.4824 -12.6934 -95 -12.6934c-114 0 -190 70 -190 175z" />
    <glyph glyph-name="afii10102" unicode="&#x455;" horiz-adv-x="352" 
d="M40 18v78c39 -28 88 -43 125 -43c51 0 75 13.7998 75 39c0 22.5732 -29.1904 36.0801 -70 47.0146c-58.8252 15.7637 -130 35.4971 -130 113.985c0 59.7998 54.25 92 155 92c32 0 63 -3 95 -11v-80c-28 20 -62 33 -100 33c-48.75 0 -75 -11.2002 -75 -32
c0 -21.7939 33.3389 -36.9873 73 -47.6152c58.7959 -15.7539 127 -34.3848 127 -107.385c0 -68.25 -56 -105 -160 -105c-36 0 -83 11 -115 23z" />
    <glyph glyph-name="afii10103" unicode="&#x456;" horiz-adv-x="180" 
d="M50 445v59c0 9.90039 1.09961 11 11 11h69v-59c0 -9.90039 -1.09961 -11 -11 -11h-69zM50 340h80v-248c0 -40 3 -94 3 -94l-78 4l-5 88v250z" />
    <glyph glyph-name="afii10104" unicode="&#x457;" horiz-adv-x="180" 
d="M120 445v59c0 9.90039 1.09961 11 11 11h64v-59c0 -9.90039 -1.09961 -11 -11 -11h-64zM-35 445v59c0 9.90039 1.09961 11 11 11h64v-59c0 -9.90039 -1.09961 -11 -11 -11h-64zM50 340h80v-248c0 -40 3 -94 3 -94l-78 4l-5 88v250z" />
    <glyph glyph-name="afii10105" unicode="&#x458;" horiz-adv-x="180" 
d="M50 445v59c0 9.90039 1.09961 11 11 11h69v-59c0 -9.90039 -1.09961 -11 -11 -11h-69zM50 340h80v-425c0 -72 -50 -120 -125 -120c-27.1826 0 -44.0391 4.94336 -70 13v73c21.3281 -14.542 44.1865 -26 70 -26c27 0 45 24 45 60v425z" />
    <glyph glyph-name="afii10106" unicode="&#x459;" horiz-adv-x="595" 
d="M20 75c51 0 85 36 85 90v175h260v-120h45c96 0 160 -42.2002 160 -110c0 -67.2002 -64 -110 -160 -110h-125v280h-100v-115c0 -102 -66 -170 -165 -170v80zM365 160v-100h48c44.4004 0 74 18.7998 74 50c0 31.7998 -29.5996 50 -74 50h-48z" />
    <glyph glyph-name="afii10107" unicode="&#x45a;" horiz-adv-x="590" 
d="M50 0v340h80v-120h150v120h80v-120h45c96 0 160 -42.2002 160 -110c0 -67.2002 -64 -110 -160 -110h-125v160h-150v-160h-80zM360 160v-100h48c44.4004 0 74 18.7998 74 50c0 31.7998 -29.5996 50 -74 50h-48z" />
    <glyph glyph-name="afii10108" unicode="&#x45b;" horiz-adv-x="440" 
d="M50 0v405h-35v55h35v80h80v-80h110v-55h-110v-165.544c27.1377 51.874 70.7959 85.5439 120 85.5439c87 0 145 -42 145 -105v-220h-80v205c0 36 -28 60 -70 60c-63.4805 0 -115 -67.2002 -115 -150v-115h-80z" />
    <glyph glyph-name="afii10109" unicode="&#x45c;" horiz-adv-x="425" 
d="M152 410l-10 13l79 117h54v-59zM410.017 0h-112.366l-146.679 174.858l141.353 165.142h100.751l-160.047 -164.858zM50 0v340h80v-340h-80z" />
    <glyph glyph-name="uni045D" unicode="&#x45d;" horiz-adv-x="420" 
d="M228 410l-123 71v59h54l79 -117zM50 0v340h75v-216.733l195 216.733h50v-340h-75v211.733l-195 -211.733h-50z" />
    <glyph glyph-name="afii10110" unicode="&#x45e;" horiz-adv-x="390" 
d="M197 445c33 0 55 32 55 80h50c0 -66 -42 -110 -105 -110s-105 44 -105 110h50c0 -48 22 -80 55 -80zM15 340h94l96 -258l76 258h94l-141 -349c-45 -111 -114 -191 -224 -191v70c79 0 129 63 163 134z" />
    <glyph glyph-name="afii10193" unicode="&#x45f;" horiz-adv-x="420" 
d="M370 340v-340h-134.206l4.20605 -106h-60l4.20605 106h-134.206v340h80v-290h160v290h80z" />
    <glyph glyph-name="afii10146" unicode="&#x462;" horiz-adv-x="445" 
d="M170 60h65c58.7998 0 98 30 98 75s-39.2002 75 -98 75h-65v-150zM85 410v70h85v-70h115v-60h-115v-80h61c113.4 0 189 -54 189 -135s-75.5996 -135 -189 -135h-146v350h-70v60h70z" />
    <glyph glyph-name="afii10194" unicode="&#x463;" horiz-adv-x="400" 
d="M160 60h58c44.4004 0 74 20.7998 74 52c0 31.7998 -29.5996 53 -74 53h-58v-105zM15 300v55h65v75h80v-75h100v-55h-100v-75h55c96 0 160 -45.2002 160 -113c0 -67.2002 -64 -112 -160 -112h-135v300h-65z" />
    <glyph glyph-name="uni0464" unicode="&#x464;" horiz-adv-x="570" 
d="M535 7.69336c-28.6133 -6.98633 -65.4824 -12.6934 -100 -12.6934c-131.175 0 -221.671 84.8184 -233.646 215h-61.3525v-210h-85v480h85v-210h61.3525c11.9756 130.182 102.472 215 233.646 215c34.5176 0 71.3867 -5.70703 100 -12.6934v-85.9697
c-24.0254 17.042 -51.584 28.6631 -90 28.6631c-83.832 0 -142.474 -56.8789 -153.222 -145h173.222v-60h-173.337c10.0547 -88.1211 64.9141 -145 143.337 -145c38.416 0 75.9746 11.6211 100 28.6631v-85.9697z" />
    <glyph glyph-name="uni0465" unicode="&#x465;" 
d="M50 0v340h80v-140h67.1787c13.1748 88.1211 85.0596 145 187.82 145c34.5176 0 66.3867 -5.70703 95 -12.6934v-78.9697c-24.0254 17.042 -56.584 26.6631 -95 26.6631c-53.8916 0 -92.7021 -31.0039 -103.777 -80h143.778v-60h-143.778
c11.0752 -48.9961 49.8857 -80 103.777 -80c38.416 0 70.9746 9.62109 95 26.6631v-78.9697c-28.6133 -6.98633 -60.4824 -12.6934 -95 -12.6934c-102.761 0 -174.646 56.8789 -187.82 145h-67.1787v-140h-80z" />
    <glyph glyph-name="afii10147" unicode="&#x472;" horiz-adv-x="490" 
d="M30 240c0 147 86 245 215 245s215 -98 215 -245s-86 -245 -215 -245s-215 98 -215 245zM118 240.517c15.2373 23.9707 35.5537 50.4834 51.001 50.4834c24.6133 0 48.1104 -8.35938 76 -18.5107c27.8711 -10.1436 51.3662 -18.4893 76 -18.4893
c18.4648 0 34.6094 11.5967 47.7559 31.3906c-12.3203 82.3105 -58.8135 134.608 -123.757 134.608c-76.0781 0 -126.838 -71.7695 -127 -179.482zM371.97 235.436c-15.2334 -23.958 -35.5342 -50.4346 -50.9707 -50.4346c-24.4668 0 -47.7783 8.25488 -75.499 18.3447
c-28.0312 10.2021 -51.7207 18.6553 -76.501 18.6553c-18.2275 0 -34.1953 -11.3018 -47.249 -30.6357c13.0439 -80.4385 59.1641 -131.364 123.25 -131.364c75.1211 0 125.557 69.9756 126.97 175.435z" />
    <glyph glyph-name="afii10195" unicode="&#x473;" horiz-adv-x="400" 
d="M25 170c0 105 70 175 175 175s175 -70 175 -175s-70 -175 -175 -175s-175 70 -175 175zM293.758 160.412c-12.5293 -17.376 -28.1738 -34.292 -38.3965 -34.292c-19.9111 0 -41.9131 9.43945 -62.8613 18.7666c-19.002 8.45996 -37.4111 16.2041 -52.8613 16.2041
c-11.8799 0 -22.4707 -7.00195 -31.4463 -19.2334c8.76855 -53.9648 43.2109 -88.8574 91.8076 -88.8574c53.9639 0 90.4736 43.0244 93.7578 107.412zM291.808 198.144c-8.76855 53.9648 -43.2109 88.8564 -91.8076 88.8564
c-53.9639 0 -90.4736 -43.0244 -93.7578 -107.412c12.5293 17.376 28.1738 34.292 38.3965 34.292c19.5674 0 41.1973 -9.14062 61.8613 -18.3408c19.3584 -8.61914 38.1494 -16.6289 53.8613 -16.6289c11.8799 0 22.4707 7.00195 31.4463 19.2334z" />
    <glyph glyph-name="afii10050" unicode="&#x490;" horiz-adv-x="375" 
d="M55 0v480h250l5 100h45v-165h-215v-415h-85z" />
    <glyph glyph-name="afii10098" unicode="&#x491;" horiz-adv-x="320" 
d="M50 0v340h200l5 95h45v-155h-170v-280h-80z" />
    <glyph glyph-name="uni04C0" unicode="&#x4c0;" horiz-adv-x="195" 
d="M55 0v480h85v-480h-85z" />
    <glyph glyph-name="uni04C1" unicode="&#x4c1;" horiz-adv-x="691" 
d="M293.045 244.858l-163.679 -244.858h-114.366l197.988 245.142l-180.972 234.858h102.676zM397.973 244.858l158.352 235.142h102.676l-180.972 -234.858l197.989 -245.142h-114.367zM303 0v480h85v-480h-85zM346 565c33 0 55 32 55 80h50c0 -66 -42 -110 -105 -110
s-105 44 -105 110h50c0 -48 22 -80 55 -80z" />
    <glyph glyph-name="uni04C2" unicode="&#x4c2;" horiz-adv-x="650" 
d="M325 445c33 0 55 32 55 80h50c0 -66 -42 -110 -105 -110s-105 44 -105 110h50c0 -48 22 -80 55 -80zM15 0l172.988 175.142l-156.047 164.858h100.751l137.353 -165.142l-142.679 -174.858h-112.366zM635.017 0h-112.366l-142.679 174.858l137.353 165.142h100.751
l-156.047 -164.858zM285 0v340h80v-340h-80z" />
    <glyph glyph-name="uni04D0" unicode="&#x4d0;" horiz-adv-x="460" 
d="M230 565c33 0 55 32 55 80h50c0 -66 -42 -110 -105 -110s-105 44 -105 110h50c0 -48 22 -80 55 -80zM15 0l171 480h88l171 -480h-90l-29.833 100h-190.334l-29.833 -100h-90zM151.838 157h156.324l-78.1621 262z" />
    <glyph glyph-name="uni04D1" unicode="&#x4d1;" horiz-adv-x="420" 
d="M200 445c33 0 55 32 55 80h50c0 -66 -42 -110 -105 -110s-105 44 -105 110h50c0 -48 22 -80 55 -80zM25 170c0 102 61.2002 170 153 170h72l40 -56l10.0391 56h69.9609v-248c0 -40 3 -94 3 -94l-73 4l-3.95996 72.9512
c-25.4873 -48.2021 -68.8564 -79.9512 -118.04 -79.9512c-91.7998 0 -153 70 -153 175zM108 170c0 -69 34.4004 -115 86 -115c52.9863 0 96 54 96 120v105h-96c-51.5996 0 -86 -44 -86 -110z" />
    <glyph glyph-name="uni04D2" unicode="&#x4d2;" horiz-adv-x="460" 
d="M260 565v59c0 9.90039 1.09961 11 11 11h64v-59c0 -9.90039 -1.09961 -11 -11 -11h-64zM105 565v59c0 9.90039 1.09961 11 11 11h64v-59c0 -9.90039 -1.09961 -11 -11 -11h-64zM15 0l171 480h88l171 -480h-90l-29.833 100h-190.334l-29.833 -100h-90zM151.838 157
h156.324l-78.1621 262z" />
    <glyph glyph-name="uni04D3" unicode="&#x4d3;" horiz-adv-x="420" 
d="M240 445v59c0 9.90039 1.09961 11 11 11h64v-59c0 -9.90039 -1.09961 -11 -11 -11h-64zM85 445v59c0 9.90039 1.09961 11 11 11h64v-59c0 -9.90039 -1.09961 -11 -11 -11h-64zM25 170c0 102 61.2002 170 153 170h72l40 -56l10.0391 56h69.9609v-248c0 -40 3 -94 3 -94
l-73 4l-3.95996 72.9512c-25.4873 -48.2021 -68.8564 -79.9512 -118.04 -79.9512c-91.7998 0 -153 70 -153 175zM108 170c0 -69 34.4004 -115 86 -115c52.9863 0 96 54 96 120v105h-96c-51.5996 0 -86 -44 -86 -110z" />
    <glyph glyph-name="uni04D4" unicode="&#x4d4;" horiz-adv-x="590" 
d="M105 0h-90l161 480h389v-65h-186v-135h146v-60h-146v-155h186v-65h-271v100h-119.5l-29.7939 43.04zM294 415h-73l-71.3496 -255h144.35v255z" />
    <glyph glyph-name="uni04D5" unicode="&#x4d5;" horiz-adv-x="612" 
d="M260 185v12.1553l-55 -52.1553h-41c-34.7998 0 -58 -20 -58 -50c0 -27 22 -45 55 -45c54.6484 0 99 60.4805 99 135zM260 200v35c0 32.334 -29 55 -91 55c-32.7002 0 -77.3281 -9.74414 -104 -28.6631v70.9697c32.8066 8.95508 69.9932 12.6934 104 12.6934
c65.5244 0 116.234 -19.3242 142.078 -51.4189c28.1064 32.6611 69.2266 51.4189 118.922 51.4189c93 0 155 -58.7998 155 -147v-23c0 -19.5 -11 -30 -30 -30h-213.475c7.58203 -58.6846 43.2744 -90 103.475 -90c38.416 0 70.9746 9.62109 95 26.6631v-73.9697
c-30 -8.69336 -60.4824 -12.6934 -95 -12.6934c-80.8799 0 -140.992 41.5332 -164.342 108.604c-23.9229 -64.1914 -75.248 -108.604 -134.658 -108.604c-72.5996 0 -121 42 -121 105c0 60 53.2002 100 133 100h102zM340.424 156.467l39.5762 43.5332h135
c0 58.5 -29.75 90 -85 90c-58.5 0 -90 -42 -90 -120c0 -4.64453 0.141602 -9.15625 0.423828 -13.5332z" />
    <glyph glyph-name="uni04D6" unicode="&#x4d6;" horiz-adv-x="380" 
d="M215 565c33 0 55 32 55 80h50c0 -66 -42 -110 -105 -110s-105 44 -105 110h50c0 -48 22 -80 55 -80zM55 0v480h300v-65h-215v-135h175v-60h-175v-155h215v-65h-300z" />
    <glyph glyph-name="uni04D7" unicode="&#x4d7;" horiz-adv-x="377" 
d="M105.424 156.467l39.5762 43.5322h135c0 58.5 -29.75 90 -85 90c-58.5 0 -90 -42 -90 -120c0 -4.64453 0.141602 -9.15527 0.423828 -13.5322zM106.525 144.999c7.58203 -58.6846 43.2754 -90 103.476 -90c33.9355 0 67.3203 7.0293 94.999 26.6631v-73.9697
c-31.5771 -9.15039 -62.124 -12.6934 -95 -12.6934c-111 0 -185 70 -185 175s68 175 170 175c93 0 155 -58.7998 155 -147v-23c0 -19.5 -11 -30 -30 -30h-213.475zM190 444.999c33 0 55 32 55 80h50c0 -66 -42 -110 -105 -110s-105 44 -105 110h50c0 -48 22 -80 55 -80z" />
    <glyph glyph-name="uni04D8" unicode="&#x4d8;" horiz-adv-x="485" 
d="M371.17 261.468l-46.1699 -49.4688h-210c0 -102.05 38.5 -157 110 -157c88.2002 0 147 74 147 185c0 7.3252 -0.280273 14.4854 -0.830078 21.4688zM370.121 271.999c-10.8887 89.9883 -68.2568 148.001 -150.12 148.001c-34.9355 0 -96.5049 -6.4502 -125 -26.6631
v76.9697c31.2568 11.1406 91.8164 14.6924 124.999 14.6924c141 0 235 -98 235 -245s-92 -245 -230 -245c-117 0 -195 86.7998 -195 217v30c0 19.5 11 30 30 30h310.121z" />
    <glyph glyph-name="afii10846" unicode="&#x4d9;" horiz-adv-x="377" 
d="M271.576 183.533l-39.5762 -43.5322h-135c0 -58.5 29.75 -90 85 -90c58.5 0 90 42 90 120c0 4.64453 -0.141602 9.15527 -0.423828 13.5322zM270.475 195.001c-7.58203 58.6846 -43.2744 90 -103.475 90c-33.9355 0 -67.3213 -7.0293 -95 -26.6631v73.9697
c31.5771 9.15039 62.124 12.6934 95 12.6934c111 0 185 -70 185 -175s-68 -175 -170 -175c-93 0 -155 58.7998 -155 147v23c0 19.5 11 30 30 30h213.475z" />
    <glyph glyph-name="uni04DA" unicode="&#x4da;" horiz-adv-x="485" 
d="M268 566v59c0 9.90039 1.09961 11 11 11h64v-59c0 -9.90039 -1.09961 -11 -11 -11h-64zM113 566v59c0 9.90039 1.09961 11 11 11h64v-59c0 -9.90039 -1.09961 -11 -11 -11h-64zM371.17 261.468l-46.1699 -49.4678h-210c0 -102.05 38.5 -157 110 -157
c88.2002 0 147 74 147 185c0 7.3252 -0.280273 14.4854 -0.830078 21.4678zM370.121 272c-10.8887 89.9883 -68.2578 148 -150.121 148c-34.9355 0 -96.5049 -6.4502 -125 -26.6631v76.9697c31.2568 11.1416 91.8174 14.6934 125 14.6934c141 0 235 -98 235 -245
s-92 -245 -230 -245c-117 0 -195 86.7998 -195 217v30c0 19.5 11 30 30 30h310.121z" />
    <glyph glyph-name="uni04DB" unicode="&#x4db;" horiz-adv-x="377" 
d="M225 445v59c0 9.90039 1.09961 11 11 11h64v-59c0 -9.90039 -1.09961 -11 -11 -11h-64zM70 445v59c0 9.90039 1.09961 11 11 11h64v-59c0 -9.90039 -1.09961 -11 -11 -11h-64zM271.576 183.533l-39.5762 -43.5332h-135c0 -58.5 29.75 -90 85 -90c58.5 0 90 42 90 120
c0 4.64453 -0.141602 9.15625 -0.423828 13.5332zM270.475 195c-7.58203 58.6846 -43.2744 90 -103.475 90c-33.9355 0 -67.3213 -7.0293 -95 -26.6631v73.9697c31.5771 9.15039 62.124 12.6934 95 12.6934c111 0 185 -70 185 -175s-68 -175 -170 -175
c-93 0 -155 58.7998 -155 147v23c0 19.5 11 30 30 30h213.475z" />
    <glyph glyph-name="uni04DC" unicode="&#x4dc;" horiz-adv-x="691" 
d="M357 565v59c0 9.90039 1.09961 11 11 11h64v-59c0 -9.90039 -1.09961 -11 -11 -11h-64zM202 565v59c0 9.90039 1.09961 11 11 11h64v-59c0 -9.90039 -1.09961 -11 -11 -11h-64zM293.045 244.858l-163.679 -244.858h-114.366l197.988 245.142l-180.972 234.858h102.676z
M397.972 244.858l158.353 235.142h102.676l-180.972 -234.858l197.988 -245.142h-114.366zM303 0v480h85v-480h-85z" />
    <glyph glyph-name="uni04DD" unicode="&#x4dd;" horiz-adv-x="650" 
d="M335 445v59c0 9.90039 1.09961 11 11 11h64v-59c0 -9.90039 -1.09961 -11 -11 -11h-64zM180 445v59c0 9.90039 1.09961 11 11 11h64v-59c0 -9.90039 -1.09961 -11 -11 -11h-64zM15 0l172.988 175.142l-156.047 164.858h100.751l137.353 -165.142l-142.679 -174.858
h-112.366zM635.017 0h-112.366l-142.679 174.858l137.353 165.142h100.751l-156.047 -164.858zM285 0v340h80v-340h-80z" />
    <glyph glyph-name="uni04DE" unicode="&#x4de;" horiz-adv-x="370" 
d="M200 565v59c0 9.90039 1.09961 11 11 11h64v-59c0 -9.90039 -1.09961 -11 -11 -11h-64zM45 565v59c0 9.90039 1.09961 11 11 11h64v-59c0 -9.90039 -1.09961 -11 -11 -11h-64zM25 7.69336v80.9697c27.8926 -19.7842 80.8037 -28.6631 115 -28.6631c69 0 115 32 115 80
c0 57 -40.4004 95 -101 95h-59v65h35c57.96 0 105 31.3604 105 70c0 30 -38.4004 50 -96 50c-31.9004 0 -77.9814 -10.2061 -104 -28.6631v80.9697c26.9639 7.68359 76.9629 12.6934 105 12.6934c105 0 175 -46 175 -115c0 -44.4746 -45.2852 -82.7568 -110.153 -99.7002
c80.7266 -15.5713 140.153 -68.0352 140.153 -130.3c0 -87 -82 -145 -205 -145c-34.2627 0 -81.7148 4.56641 -115 12.6934z" />
    <glyph glyph-name="uni04DF" unicode="&#x4df;" horiz-adv-x="325" 
d="M180 445v59c0 9.90039 1.09961 11 11 11h64v-59c0 -9.90039 -1.09961 -11 -11 -11h-64zM25 445v59c0 9.90039 1.09961 11 11 11h64v-59c0 -9.90039 -1.09961 -11 -11 -11h-64zM84 210h36c48 0 80 16.2002 80 48c0 19 -27.4668 31.667 -68.667 31.667
c-31.7051 0 -73.5342 -10.2393 -99.333 -28.667v71c28.6123 7.15332 63.8408 12.667 93.333 12.667c89.7998 0 149.667 -34.667 149.667 -86.667c0 -33.6709 -36.7783 -62.6787 -89.5801 -75.6934c65.8799 -9.47461 114.58 -43.1045 114.58 -87.3066
c0 -60 -66 -100 -165 -100c-34.2627 0 -76.7148 4.56641 -110 12.6934v70.9697c27.8926 -19.7842 78.8037 -28.6631 113 -28.6631c46.2002 0 77 17.5996 77 44c0 39.5996 -32.4004 56 -81 56h-50v60z" />
    <glyph glyph-name="uni04E0" unicode="&#x4e0;" horiz-adv-x="1000" 
d="M63 300h136v-112h-136v112z" />
    <glyph glyph-name="uni04E1" unicode="&#x4e1;" horiz-adv-x="1000" 
d="M63 300h136v-112h-136v112z" />
    <glyph glyph-name="uni04E2" unicode="&#x4e2;" horiz-adv-x="470" 
d="M123 545v44c0 9.90039 1.09961 11 11 11h173v-44c0 -9.90039 -1.09961 -11 -11 -11h-173zM415 0h-80v323.733l-205 -323.733h-75v480h80v-329.733l205 329.733h75v-480z" />
    <glyph glyph-name="uni04E3" unicode="&#x4e3;" horiz-adv-x="420" 
d="M108 425v44c0 9.90039 1.09961 11 11 11h173v-44c0 -9.90039 -1.09961 -11 -11 -11h-173zM50 0v340h75v-216.733l195 216.733h50v-340h-75v211.733l-195 -211.733h-50z" />
    <glyph glyph-name="uni04E4" unicode="&#x4e4;" horiz-adv-x="470" 
d="M255 565v59c0 9.90039 1.09961 11 11 11h64v-59c0 -9.90039 -1.09961 -11 -11 -11h-64zM100 565v59c0 9.90039 1.09961 11 11 11h64v-59c0 -9.90039 -1.09961 -11 -11 -11h-64zM415 0h-80v323.733l-205 -323.733h-75v480h80v-329.733l205 329.733h75v-480z" />
    <glyph glyph-name="uni04E5" unicode="&#x4e5;" horiz-adv-x="420" 
d="M240 445v59c0 9.90039 1.09961 11 11 11h64v-59c0 -9.90039 -1.09961 -11 -11 -11h-64zM85 445v59c0 9.90039 1.09961 11 11 11h64v-59c0 -9.90039 -1.09961 -11 -11 -11h-64zM50 0v340h75v-216.733l195 216.733h50v-340h-75v211.733l-195 -211.733h-50z" />
    <glyph glyph-name="uni04E6" unicode="&#x4e6;" horiz-adv-x="490" 
d="M275 565v59c0 9.90039 1.09961 11 11 11h64v-59c0 -9.90039 -1.09961 -11 -11 -11h-64zM120 565v59c0 9.90039 1.09961 11 11 11h64v-59c0 -9.90039 -1.09961 -11 -11 -11h-64zM118 240c0 -108 50.7998 -180 127 -180s127 72 127 180s-50.7998 180 -127 180
s-127 -72 -127 -180zM30 240c0 147 86 245 215 245s215 -98 215 -245s-86 -245 -215 -245s-215 98 -215 245z" />
    <glyph glyph-name="uni04E7" unicode="&#x4e7;" horiz-adv-x="400" 
d="M230 445v59c0 9.90039 1.09961 11 11 11h64v-59c0 -9.90039 -1.09961 -11 -11 -11h-64zM75 445v59c0 9.90039 1.09961 11 11 11h64v-59c0 -9.90039 -1.09961 -11 -11 -11h-64zM25 170c0 105 70 175 175 175s175 -70 175 -175s-70 -175 -175 -175s-175 70 -175 175z
M108 170c0 -69 36.7998 -115 92 -115s92 46 92 115s-36.7998 115 -92 115s-92 -46 -92 -115z" />
    <glyph glyph-name="uni04E8" unicode="&#x4e8;" horiz-adv-x="490" 
d="M30 240c0 147 86 245 215 245s215 -98 215 -245s-86 -245 -215 -245s-215 98 -215 245zM117.105 267h255.791c-7.83398 93.4883 -56.7393 155 -127.896 155c-71.1553 0 -120.062 -61.5117 -127.896 -155zM372.896 213h-255.791
c7.83398 -93.4883 56.7393 -155 127.896 -155c71.1553 0 120.062 61.5117 127.896 155z" />
    <glyph glyph-name="uni04E9" unicode="&#x4e9;" horiz-adv-x="400" 
d="M25 170c0 105 70 175 175 175s175 -70 175 -175s-70 -175 -175 -175s-175 70 -175 175zM292.426 194c-7.64844 56.3154 -42.5957 93 -92.4248 93s-84.7783 -36.6846 -92.4268 -93h184.852zM107.576 146c7.64844 -56.3154 42.5957 -93 92.4248 -93
s84.7783 36.6846 92.4268 93h-184.852z" />
    <glyph glyph-name="uni04EA" unicode="&#x4ea;" horiz-adv-x="490" 
d="M275 565v59c0 9.90039 1.09961 11 11 11h64v-59c0 -9.90039 -1.09961 -11 -11 -11h-64zM120 565v59c0 9.90039 1.09961 11 11 11h64v-59c0 -9.90039 -1.09961 -11 -11 -11h-64zM30 240c0 147 86 245 215 245s215 -98 215 -245s-86 -245 -215 -245s-215 98 -215 245z
M117.105 267h255.789c-7.83398 93.4883 -56.7383 155 -127.895 155c-71.1553 0 -120.061 -61.5117 -127.895 -155zM372.895 213h-255.789c7.83398 -93.4883 56.7383 -155 127.895 -155c71.1553 0 120.061 61.5117 127.895 155z" />
    <glyph glyph-name="uni04EB" unicode="&#x4eb;" horiz-adv-x="400" 
d="M240 445v59c0 9.90039 1.09961 11 11 11h64v-59c0 -9.90039 -1.09961 -11 -11 -11h-64zM85 445v59c0 9.90039 1.09961 11 11 11h64v-59c0 -9.90039 -1.09961 -11 -11 -11h-64zM25 170c0 105 70 175 175 175s175 -70 175 -175s-70 -175 -175 -175s-175 70 -175 175z
M292.426 194c-7.64746 56.3154 -42.5967 93 -92.4258 93s-84.7783 -36.6846 -92.4258 -93h184.852zM107.574 146c7.64746 -56.3154 42.5967 -93 92.4258 -93s84.7783 36.6846 92.4258 93h-184.852z" />
    <glyph glyph-name="uni04EC" unicode="&#x4ec;" horiz-adv-x="400" 
d="M197 565v59c0 9.90039 1.09961 11 11 11h64v-59c0 -9.90039 -1.09961 -11 -11 -11h-64zM42 565v59c0 9.90039 1.09961 11 11 11h64v-59c0 -9.90039 -1.09961 -11 -11 -11h-64zM35 7.69336v85.9697c24.0254 -17.042 61.584 -28.6631 100 -28.6631
c78.4229 0 133.282 56.8789 143.337 145h-173.337v60h173.222c-10.748 88.1211 -69.3896 145 -153.222 145c-38.416 0 -65.9746 -11.6211 -90 -28.6631v85.9697c28.6133 6.98633 65.4824 12.6934 100 12.6934c141 0 235 -98 235 -245s-94 -245 -235 -245
c-34.5176 0 -71.3867 5.70703 -100 12.6934z" />
    <glyph glyph-name="uni04ED" unicode="&#x4ed;" horiz-adv-x="340" 
d="M185 445v59c0 9.90039 1.09961 11 11 11h64v-59c0 -9.90039 -1.09961 -11 -11 -11h-64zM30 445v59c0 9.90039 1.09961 11 11 11h64v-59c0 -9.90039 -1.09961 -11 -11 -11h-64zM315 170c0 -105 -76 -175 -190 -175c-34.5176 0 -66.3867 5.70703 -95 12.6934v78.9697
c24.0254 -17.042 56.584 -26.6631 95 -26.6631c53.8916 0 92.7031 31.0039 103.778 80h-143.778v60h143.778c-11.0752 48.9961 -49.8867 80 -103.778 80c-38.416 0 -70.9746 -9.62109 -95 -26.6631v78.9697c28.6133 6.98633 60.4824 12.6934 95 12.6934
c114 0 190 -70 190 -175z" />
    <glyph glyph-name="uni04EE" unicode="&#x4ee;" horiz-adv-x="405" 
d="M115 545v44c0 9.90039 1.09961 11 11 11h173v-44c0 -9.90039 -1.09961 -11 -11 -11h-173zM15 480h96l107 -256l82 256h90l-128.325 -320.15c-53.8828 -132.365 -110.425 -164.85 -236.675 -164.85v70c85.1367 0 127.161 4.58398 161.585 82.4502z" />
    <glyph glyph-name="uni04EF" unicode="&#x4ef;" horiz-adv-x="390" 
d="M95 425v44c0 9.90039 1.09961 11 11 11h173v-44c0 -9.90039 -1.09961 -11 -11 -11h-173zM15 340h94l96 -258l76 258h94l-141 -349c-45 -111 -114 -191 -224 -191v70c79 0 129 63 163 134z" />
    <glyph glyph-name="uni04F0" unicode="&#x4f0;" horiz-adv-x="405" 
d="M247 565v59c0 9.90039 1.09961 11 11 11h64v-59c0 -9.90039 -1.09961 -11 -11 -11h-64zM92 565v59c0 9.90039 1.09961 11 11 11h64v-59c0 -9.90039 -1.09961 -11 -11 -11h-64zM15 480h96l107 -256l82 256h90l-128.325 -320.15
c-53.8828 -132.365 -110.425 -164.85 -236.675 -164.85v70c85.1367 0 127.161 4.58398 161.585 82.4502z" />
    <glyph glyph-name="uni04F1" unicode="&#x4f1;" horiz-adv-x="390" 
d="M227 445v59c0 9.90039 1.09961 11 11 11h64v-59c0 -9.90039 -1.09961 -11 -11 -11h-64zM72 445v59c0 9.90039 1.09961 11 11 11h64v-59c0 -9.90039 -1.09961 -11 -11 -11h-64zM15 340h94l96 -258l76 258h94l-141 -349c-45 -111 -114 -191 -224 -191v70
c79 0 129 63 163 134z" />
    <glyph glyph-name="uni04F2" unicode="&#x4f2;" horiz-adv-x="405" 
d="M94 535l-7 11l101 109h39v-39zM234 535l-7 11l101 109h39v-39zM15 480h96l107 -256l82 256h90l-128.325 -320.15c-53.8828 -132.365 -110.425 -164.85 -236.675 -164.85v70c85.1367 0 127.161 4.58398 161.585 82.4502z" />
    <glyph glyph-name="uni04F3" unicode="&#x4f3;" horiz-adv-x="390" 
d="M74 415l-7 11l101 109h39v-39zM214 415l-7 11l101 109h39v-39zM15 340h94l96 -258l76 258h94l-141 -349c-45 -111 -114 -191 -224 -191v70c79 0 129 63 163 134z" />
    <glyph glyph-name="uni04F4" unicode="&#x4f4;" horiz-adv-x="445" 
d="M245 565v59c0 9.90039 1.09961 11 11 11h64v-59c0 -9.90039 -1.09961 -11 -11 -11h-64zM90 565v59c0 9.90039 1.09961 11 11 11h64v-59c0 -9.90039 -1.09961 -11 -11 -11h-64zM390 0h-84.9736l-0.0263672 185h-122c-82.7998 0 -138 50 -138 125v170h80v-170
c0 -33 24.4004 -55 61 -55h118.623h0.40332v225h84.9736v-480z" />
    <glyph glyph-name="uni04F5" unicode="&#x4f5;" horiz-adv-x="400" 
d="M220 445v59c0 9.90039 1.09961 11 11 11h64v-59c0 -9.90039 -1.09961 -11 -11 -11h-64zM65 445v59c0 9.90039 1.09961 11 11 11h64v-59c0 -9.90039 -1.09961 -11 -11 -11h-64zM350 0h-79.9736l-0.0263672 115h-92c-82.7998 0 -138 46 -138 115v110h80v-110
c0 -33 24.4004 -55 61 -55h89.0264v165h79.9736v-340z" />
    <glyph glyph-name="uni04F8" unicode="&#x4f8;" horiz-adv-x="580" 
d="M308 565v59c0 9.90039 1.09961 11 11 11h64v-59c0 -9.90039 -1.09961 -11 -11 -11h-64zM153 565v59c0 9.90039 1.09961 11 11 11h64v-59c0 -9.90039 -1.09961 -11 -11 -11h-64zM55 0v480h85v-210h61c113.4 0 189 -54 189 -135s-75.5996 -135 -189 -135h-146zM140 60h65
c58.7998 0 98 30 98 75s-39.2002 75 -98 75h-65v-150zM440 0v480h85v-480h-85z" />
    <glyph glyph-name="uni04F9" unicode="&#x4f9;" 
d="M300 445v59c0 9.90039 1.09961 11 11 11h64v-59c0 -9.90039 -1.09961 -11 -11 -11h-64zM145 445v59c0 9.90039 1.09961 11 11 11h64v-59c0 -9.90039 -1.09961 -11 -11 -11h-64zM50 0v340h80v-115h55c96 0 160 -45.2002 160 -113c0 -67.2002 -64 -112 -160 -112h-135z
M130 60h58c44.4004 0 74 20.7998 74 52c0 31.7998 -29.5996 53 -74 53h-58v-105zM390 0v340h70v-340h-70z" />
    <glyph glyph-name="Wgrave" unicode="&#x1e80;" horiz-adv-x="660" 
d="M358 530l-123 71v59h54l79 -117zM241 0h-82l-144 480h104l81 -410l91 410h78l91 -410l81 410h104l-144 -480h-82l-89 336.378z" />
    <glyph glyph-name="wgrave" unicode="&#x1e81;" horiz-adv-x="590" 
d="M323 410l-123 71v59h54l79 -117zM135 0l-120 340h102l58 -281l78 281h84l78 -281l58 281h102l-120 -340h-80l-80 230.508l-80 -230.508h-80z" />
    <glyph glyph-name="Wacute" unicode="&#x1e82;" horiz-adv-x="660" 
d="M282 530l-10 13l79 117h54v-59zM241 0h-82l-144 480h104l81 -410l91 410h78l91 -410l81 410h104l-144 -480h-82l-89 336.378z" />
    <glyph glyph-name="wacute" unicode="&#x1e83;" horiz-adv-x="590" 
d="M247 410l-10 13l79 117h54v-59zM135 0l-120 340h102l58 -281l78 281h84l78 -281l58 281h102l-120 -340h-80l-80 230.508l-80 -230.508h-80z" />
    <glyph glyph-name="Wdieresis" unicode="&#x1e84;" horiz-adv-x="660" 
d="M360 565v59c0 9.90039 1.09961 11 11 11h64v-59c0 -9.90039 -1.09961 -11 -11 -11h-64zM205 565v59c0 9.90039 1.09961 11 11 11h64v-59c0 -9.90039 -1.09961 -11 -11 -11h-64zM241 0h-82l-144 480h104l81 -410l91 410h78l91 -410l81 410h104l-144 -480h-82l-89 336.378z
" />
    <glyph glyph-name="wdieresis" unicode="&#x1e85;" horiz-adv-x="590" 
d="M325 445v59c0 9.90039 1.09961 11 11 11h64v-59c0 -9.90039 -1.09961 -11 -11 -11h-64zM170 445v59c0 9.90039 1.09961 11 11 11h64v-59c0 -9.90039 -1.09961 -11 -11 -11h-64zM135 0l-120 340h102l58 -281l78 281h84l78 -281l58 281h102l-120 -340h-80l-80 230.508
l-80 -230.508h-80z" />
    <glyph glyph-name="uni1E86" unicode="&#x1e86;" horiz-adv-x="660" 
d="M280 565v59c0 9.90039 1.09961 11 11 11h69v-59c0 -9.90039 -1.09961 -11 -11 -11h-69zM241 0h-82l-144 480h104l81 -410l91 410h78l91 -410l81 410h104l-144 -480h-82l-89 336.378z" />
    <glyph glyph-name="uni1E87" unicode="&#x1e87;" horiz-adv-x="590" 
d="M245 445v59c0 9.90039 1.09961 11 11 11h69v-59c0 -9.90039 -1.09961 -11 -11 -11h-69zM135 0l-120 340h102l58 -281l78 281h84l78 -281l58 281h102l-120 -340h-80l-80 230.508l-80 -230.508h-80z" />
    <glyph glyph-name="uni1E88" unicode="&#x1e88;" horiz-adv-x="660" 
d="M277.5 -125v64c0 9.90039 1 11 11 11h74v-64c0 -10 -1 -11 -11 -11h-74zM241 0h-82l-144 480h104l81 -410l91 410h78l91 -410l81 410h104l-144 -480h-82l-89 336.378z" />
    <glyph glyph-name="uni1E89" unicode="&#x1e89;" horiz-adv-x="590" 
d="M252.5 -125v64c0 9.90039 1 11 11 11h74v-64c0 -10 -1 -11 -11 -11h-74zM135 0l-120 340h102l58 -281l78 281h84l78 -281l58 281h102l-120 -340h-80l-80 230.508l-80 -230.508h-80z" />
    <glyph glyph-name="uni1E9E" unicode="&#x1e9e;" horiz-adv-x="475" 
d="M55 0v315c0 99 62 165 155 165h193v-38l-133.112 -152h2.1123c92.7363 0 178 -66.6797 178 -155c0 -84 -64 -140 -160 -140c-29 0 -61.085 10.1572 -90 21v75c29.6611 -18.6143 62.333 -36 96 -36c41.4004 0 69 32 69 80c0 78 -40.4004 110 -116 110h-54v27v27l105 121
h-90c-42 0 -70 -38 -70 -95v-325h-85z" />
    <glyph glyph-name="Ygrave" unicode="&#x1ef2;" horiz-adv-x="440" 
d="M245 530l-123 71v59h54l79 -117zM177 0v185l-162 295h102l103 -239l102 239h103l-163 -295v-185h-85z" />
    <glyph glyph-name="ygrave" unicode="&#x1ef3;" horiz-adv-x="390" 
d="M225 410l-123 71v59h54l79 -117zM15 340h94l96 -258l76 258h94l-141 -349c-45 -111 -114 -191 -224 -191v70c79 0 129 63 163 134z" />
    <glyph glyph-name="uni1EF4" unicode="&#x1ef4;" horiz-adv-x="440" 
d="M167.5 -125v59c0 9.90039 1.09961 11 11 11h69v-59c0 -9.90039 -1.09961 -11 -11 -11h-69zM177 0v185l-162 295h102l103 -239l102 239h103l-163 -295v-185h-85z" />
    <glyph glyph-name="uni1EF5" unicode="&#x1ef5;" horiz-adv-x="390" 
d="M200 -205.307v59c0 9.89941 1.09961 11 11 11h69v-59c0 -9.90039 -1.09961 -11 -11 -11h-69zM15 340h94l96 -258l76 258h94l-141 -349c-45 -111 -114 -191 -224 -191v70c79 0 129 63 163 134z" />
    <glyph glyph-name="uni1EF8" unicode="&#x1ef8;" horiz-adv-x="440" 
d="M317 589c-14 -25 -32 -39 -53 -39c-17 0 -37 9.25 -57 18.5s-40 18.5 -57 18.5c-21 0 -39 -15 -53 -40v55c14 25 32 39 53 39c17 0 37 -9.25 57 -18.5s40 -18.5 57 -18.5c21 0 39 15 53 40v-55zM177 0v185l-162 295h102l103 -239l102 239h103l-163 -295v-185h-85z" />
    <glyph glyph-name="uni1EF9" unicode="&#x1ef9;" horiz-adv-x="390" 
d="M297 469c-14 -25 -32 -39 -53 -39c-17 0 -37 9.25 -57 18.5s-40 18.5 -57 18.5c-21 0 -39 -15 -53 -40v55c14 25 32 39 53 39c17 0 37 -9.25 57 -18.5s40 -18.5 57 -18.5c21 0 39 15 53 40v-55zM15 340h94l96 -258l76 258h94l-141 -349c-45 -111 -114 -191 -224 -191v70
c79 0 129 63 163 134z" />
    <glyph glyph-name="uni2000" unicode="&#x2000;" horiz-adv-x="960" 
 />
    <glyph glyph-name="uni2001" unicode="&#x2001;" horiz-adv-x="480" 
 />
    <glyph glyph-name="uni2002" unicode="&#x2002;" horiz-adv-x="960" 
 />
    <glyph glyph-name="uni2003" unicode="&#x2003;" horiz-adv-x="480" 
 />
    <glyph glyph-name="uni2004" unicode="&#x2004;" horiz-adv-x="320" 
 />
    <glyph glyph-name="uni2005" unicode="&#x2005;" horiz-adv-x="280" 
 />
    <glyph glyph-name="uni2006" unicode="&#x2006;" horiz-adv-x="160" 
 />
    <glyph glyph-name="uni2007" unicode="&#x2007;" horiz-adv-x="410" 
 />
    <glyph glyph-name="uni2008" unicode="&#x2008;" horiz-adv-x="200" 
 />
    <glyph glyph-name="uni2009" unicode="&#x2009;" horiz-adv-x="200" 
 />
    <glyph glyph-name="uni200A" unicode="&#x200a;" horiz-adv-x="80" 
 />
    <glyph glyph-name="uni200B" unicode="&#x200b;" horiz-adv-x="0" 
 />
    <glyph glyph-name="uni2010" unicode="&#x2010;" horiz-adv-x="240" 
d="M20 255h200v-65h-200v65z" />
    <glyph glyph-name="uni2011" unicode="&#x2011;" horiz-adv-x="240" 
d="M20 255h200v-60h-200v60z" />
    <glyph glyph-name="figuredash" unicode="&#x2012;" horiz-adv-x="410" 
d="M20 255h370v-65h-370v65z" />
    <glyph glyph-name="endash" unicode="&#x2013;" horiz-adv-x="460" 
d="M20 255h420v-65h-420v65z" />
    <glyph glyph-name="emdash" unicode="&#x2014;" horiz-adv-x="920" 
d="M20 255h880v-65h-880v65z" />
    <glyph glyph-name="afii00208" unicode="&#x2015;" horiz-adv-x="920" 
d="M20 255h880v-65h-880v65z" />
    <glyph glyph-name="quoteleft" unicode="&#x2018;" horiz-adv-x="165" 
d="M110.067 540l26.9326 -14.9805l-37 -81.001l20 -7v-50c0 -19 -1 -20 -20 -20h-70v41c0 17 7.0918 31.624 19 48z" />
    <glyph glyph-name="quoteright" unicode="&#x2019;" horiz-adv-x="165" 
d="M54.9326 367.019l-26.9326 14.9814l37 81l-20 7v50c0 19 1 20 20 20h70v-41c0 -17 -7.0918 -31.624 -19 -48z" />
    <glyph glyph-name="quotesinglbase" unicode="&#x201a;" horiz-adv-x="165" 
d="M54.9326 -102.981l-26.9326 14.9814l37 81l-20 7v50c0 19 1 20 20 20h70v-41c0 -17 -7.0918 -31.624 -19 -48z" />
    <glyph glyph-name="quotereversed" unicode="&#x201b;" horiz-adv-x="165" 
d="M106 367l-61 84c-12 16 -20 31 -20 48v41h70c19 0 20 -1 20 -20v-50l-20 -7l38 -81z" />
    <glyph glyph-name="quotedblleft" unicode="&#x201c;" horiz-adv-x="295" 
d="M240.067 540l26.9326 -14.9805l-37 -81.001l20 -7v-50c0 -19 -1 -20 -20 -20h-70v41c0 17 7.0918 31.624 19 48zM110.067 540l26.9326 -14.9805l-37 -81.001l20 -7v-50c0 -19 -1 -20 -20 -20h-70v41c0 17 7.0918 31.624 19 48z" />
    <glyph glyph-name="quotedblright" unicode="&#x201d;" horiz-adv-x="295" 
d="M54.9326 367.019l-26.9326 14.9814l37 81l-20 7v50c0 19 1 20 20 20h70v-41c0 -17 -7.0918 -31.624 -19 -48zM184.933 367.019l-26.9326 14.9814l37 81l-20 7v50c0 19 1 20 20 20h70v-41c0 -17 -7.0918 -31.624 -19 -48z" />
    <glyph glyph-name="quotedblbase" unicode="&#x201e;" horiz-adv-x="295" 
d="M184.933 -102.981l-26.9326 14.9814l37 81l-20 7v50c0 19 1 20 20 20h70v-41c0 -17 -7.0918 -31.624 -19 -48zM54.9326 -102.981l-26.9326 14.9814l37 81l-20 7v50c0 19 1 20 20 20h70v-41c0 -17 -7.0918 -31.624 -19 -48z" />
    <glyph glyph-name="uni201F" unicode="&#x201f;" horiz-adv-x="295" 
d="M106 367l-61 84c-12 16 -20 31 -20 48v41h70c19 0 20 -1 20 -20v-50l-20 -7l38 -81zM236 367l-61 84c-12 16 -20 31 -20 48v41h70c19 0 20 -1 20 -20v-50l-20 -7l38 -81z" />
    <glyph glyph-name="dagger" unicode="&#x2020;" horiz-adv-x="380" 
d="M165 -40l2.5 397.5l-147.5 -7.5v60l147.5 -7.5l-7.5 147.5h60l-7.5 -147.5l147.5 7.5v-60l-147.5 7.5l2.5 -397.5h-50z" />
    <glyph glyph-name="daggerdbl" unicode="&#x2021;" horiz-adv-x="380" 
d="M167.5 357.5l-147.5 -7.5v60l147.5 -7.5l-7.5 147.5h60l-7.5 -147.5l147.5 7.5v-60l-147.5 7.5l2.5 -102.5l-2.5 -102.5l147.5 7.5v-60l-147.5 7.5l7.5 -147.5h-60l7.5 147.5l-147.5 -7.5v60l147.5 -7.5l-2.5 102.5z" />
    <glyph glyph-name="bullet" unicode="&#x2022;" horiz-adv-x="244" 
d="M35 240c0 53.8389 35.0342 90 87 90c52.2852 0 87 -36.4297 87 -90c0 -53.8389 -35.0342 -90 -87 -90c-52.2852 0 -87 36.4297 -87 90z" />
    <glyph glyph-name="uni2023" unicode="&#x2023;" horiz-adv-x="244" 
d="M40 330l184 -90l-184 -90v180z" />
    <glyph glyph-name="onedotenleader" unicode="&#x2024;" horiz-adv-x="180" 
d="M50 -5v64c0 9.90039 1 11 11 11h74v-64c0 -10 -1 -11 -11 -11h-74z" />
    <glyph glyph-name="twodotenleader" unicode="&#x2025;" horiz-adv-x="315" 
d="M185 -5v64c0 9.90039 1 11 11 11h74v-64c0 -10 -1 -11 -11 -11h-74zM50 -5v64c0 9.90039 1 11 11 11h74v-64c0 -10 -1 -11 -11 -11h-74z" />
    <glyph glyph-name="ellipsis" unicode="&#x2026;" horiz-adv-x="450" 
d="M50 -5v64c0 9.90039 1 11 11 11h74v-64c0 -10 -1 -11 -11 -11h-74zM320 -5v64c0 9.90039 1 11 11 11h74v-64c0 -10 -1 -11 -11 -11h-74zM185 -5v64c0 9.90039 1 11 11 11h74v-64c0 -10 -1 -11 -11 -11h-74z" />
    <glyph glyph-name="perthousand" unicode="&#x2030;" horiz-adv-x="1021" 
d="M790 118c0 -46.7998 27.2002 -78 68 -78s68 31.2002 68 78s-27.2002 78 -68 78s-68 -31.2002 -68 -78zM725 118c0 73.7998 53.2002 123 133 123s133 -49.2002 133 -123s-53.2002 -123 -133 -123s-133 49.2002 -133 123zM519.864 490.817l49.8232 -41.7451l-385.421 -460
l-49.8232 41.7451zM485 118.001c0 -46.7998 27.2002 -78 68 -78s68 31.2002 68 78s-27.2002 78 -68 78s-68 -31.2002 -68 -78zM420 118.001c0 73.7998 53.2002 123 133 123s133 -49.2002 133 -123s-53.2002 -123 -133 -123s-133 49.2002 -133 123zM95 362.001
c0 -46.7998 27.2002 -78 68 -78s68 31.2002 68 78s-27.2002 78 -68 78s-68 -31.2002 -68 -78zM30 362.001c0 73.7998 53.2002 123 133 123s133 -49.2002 133 -123s-53.2002 -123 -133 -123s-133 49.2002 -133 123z" />
    <glyph glyph-name="guilsinglleft" unicode="&#x2039;" horiz-adv-x="187" 
d="M130 48l-110 132l110 132l12 -77l-51 -55l51 -55z" />
    <glyph glyph-name="guilsinglright" unicode="&#x203a;" horiz-adv-x="187" 
d="M57 312l110 -132l-110 -132l-12 77l51 55l-51 55z" />
    <glyph glyph-name="Euro" unicode="&#x20ac;" horiz-adv-x="455" 
d="M358 305l-11.0029 -44.999h-171.224c-0.514648 -6.5127 -0.775391 -13.1826 -0.775391 -20c0 -13.9814 1.02832 -27.3428 3.01758 -40.001h152.983l-11 -45h-129.764c22.668 -56.0615 69.1855 -90 129.764 -90c38.416 0 75.9746 11.6211 100 28.6631v-85.9697
c-28.6133 -6.98633 -65.4824 -12.6934 -100 -12.6934c-111.645 0 -193.821 61.4414 -223.2 160h-81.7988l11 45h61.4385c-1.6123 12.876 -2.43848 26.2227 -2.43848 40c0 6.77246 0.199219 13.4414 0.59375 20h-53.5938l11 45h48.6777
c23.7773 110.177 109.307 180 228.322 180c34.5176 0 71.3867 -5.70703 100 -12.6934v-85.9697c-24.0254 17.042 -51.584 28.6631 -90 28.6631c-72.1318 0 -125.615 -42.1104 -145.985 -110h173.985z" />
    <glyph glyph-name="afii61352" unicode="&#x2116;" horiz-adv-x="770" 
d="M55 0v480h70l225 -336.733v336.733h65v-480h-70l-225 330.733v-330.733h-65zM525 150h170v-65h-170v65zM537 345c0 -59.7119 29.8809 -97 73 -97s73 37.2881 73 97s-29.8809 97 -73 97s-73 -37.2881 -73 -97zM475 345c0 84 54 140 135 140s135 -56 135 -140
s-54 -140 -135 -140s-135 56 -135 140z" />
    <glyph glyph-name="trademark" unicode="&#x2122;" 
d="M231 249h67v-61h-67v61z" />
    <glyph glyph-name="arrowleft" unicode="&#x2190;" horiz-adv-x="678" 
d="M68 250h593v-36h-593l102 -125l-28 -22l-124 151v28l124 151l28 -22z" />
    <glyph glyph-name="arrowup" unicode="&#x2191;" horiz-adv-x="357" 
d="M196 593v-593h-35v593l-125 -102l-23 28l151 124h29l151 -124l-23 -28z" />
    <glyph glyph-name="arrowright" unicode="&#x2192;" horiz-adv-x="678" 
d="M611 214h-593v36h593l-102 125l28 22l124 -151v-28l-124 -151l-28 22z" />
    <glyph glyph-name="arrowdown" unicode="&#x2193;" horiz-adv-x="357" 
d="M161 50v593h35v-593l125 102l23 -28l-151 -124h-29l-151 124l23 28z" />
    <glyph glyph-name="arrowboth" unicode="&#x2194;" horiz-adv-x="678" 
d="M611 214h-543l102 -125l-28 -22l-124 151v28l124 151l28 -22l-102 -125h543l-102 125l28 22l124 -151v-28l-124 -151l-28 22z" />
    <glyph glyph-name="arrowupdn" unicode="&#x2195;" horiz-adv-x="357" 
d="M161 50v543l-125 -102l-23 28l151 124h29l151 -124l-23 -28l-125 102v-543l125 102l23 -28l-151 -124h-29l-151 124l23 28z" />
    <glyph glyph-name="uni21E0" unicode="&#x21e0;" horiz-adv-x="678" 
d="M54 233v-2l42 -52h565v-36h-535l44 -54l-28 -22l-124 151v28l124 151l28 -22l-44 -54h535v-35h-565z" />
    <glyph glyph-name="uni21E1" unicode="&#x21e1;" horiz-adv-x="357" 
d="M179 607h-1l-53 -43v-564h-36v535l-53 -44l-23 28l151 124h29l151 -124l-23 -28l-53 44v-535h-36v564z" />
    <glyph glyph-name="uni21E2" unicode="&#x21e2;" horiz-adv-x="678" 
d="M625 231v2l-43 53h-564v35h535l-44 54l28 22l124 -151v-28l-124 -151l-28 22l44 54h-535v36h564z" />
    <glyph glyph-name="uni21E3" unicode="&#x21e3;" horiz-adv-x="357" 
d="M178 36h1l53 43v564h36v-535l53 44l23 -28l-151 -124h-29l-151 124l23 28l53 -44v535h36v-564z" />
    <glyph glyph-name="uni21E4" unicode="&#x21e4;" horiz-adv-x="678" 
d="M582 286h-486l-42 -53v-2l42 -52h486l43 52v2zM553 321l-44 54l28 22l124 -151v-28l-124 -151l-28 22l44 54h-427l44 -54l-28 -22l-124 151v28l124 151l28 -22l-44 -54h427z" />
    <glyph glyph-name="uni21E5" unicode="&#x21e5;" horiz-adv-x="357" 
d="M232 79v485l-53 43h-1l-53 -43v-485l53 -43h1zM268 108l53 44l23 -28l-151 -124h-29l-151 124l23 28l53 -44v427l-53 -44l-23 28l151 124h29l151 -124l-23 -28l-53 44v-427z" />
    <glyph glyph-name="minus" unicode="&#x2212;" horiz-adv-x="340" 
d="M30 210v60h280v-60h-280z" />
    <glyph glyph-name="asteriskmath" unicode="&#x2217;" horiz-adv-x="278" 
d="M131.8 220.8h14.4004l17.7998 -88.7998v-12h-50v12zM152.027 224.164l7.20117 12.4717l85.8018 -28.9863l10.3926 -6l-25 -43.2998l-10.3926 6zM118.772 236.636l7.2002 -12.4717l-68.0029 -59.8145l-10.3926 -6l-25 43.2998l10.3926 6zM131.8 259.2l-17.7998 88.7998v12
h50v-12l-17.7998 -88.7998h-14.4004zM152.027 255.836l68.0029 59.8145l10.3926 6l25 -43.2998l-10.3926 -6l-85.8018 -28.9863zM118.772 243.364l-85.8018 28.9863l-10.3926 6l25 43.2998l10.3926 -6l68.0029 -59.8145z" />
    <glyph glyph-name="radical" unicode="&#x221a;" horiz-adv-x="450" 
d="M9 185l112 28l59 -167l171 570h101v-36h-74l-180 -600h-32l-69 191l-79 -20z" />
    <glyph glyph-name="infinity" unicode="&#x221e;" horiz-adv-x="848" 
d="M424 195c-47 -48 -111 -116 -217 -116c-108 0 -177 72 -177 162c0 91 70 163 177 163c106 0 170 -69 217 -117c47 48 111 117 217 117c107 0 177 -72 177 -163c0 -90 -69 -162 -177 -162c-106 0 -170 68 -217 116zM378 241c-50 51 -95 98 -171 98s-112 -44 -112 -98
s35 -97 112 -97c76 0 121 46 171 97zM470 241c50 -51 95 -97 171 -97c77 0 112 43 112 97s-36 98 -112 98s-121 -47 -171 -98z" />
    <glyph glyph-name="a.s01" unicode="&#xe001;" horiz-adv-x="385" 
d="M260 196.875l-45 -46.875h-50c-38.4004 0 -64 -20 -64 -50s24 -50 60 -50c54.6484 0 99 60.4805 99 135v11.875zM260 200l0.000976562 35c0 32.334 -29 55 -91 55c-32.7002 0 -77.3291 -9.74512 -104.001 -28.6631v70.9697c32.8066 8.95508 69.9932 12.6934 104 12.6934
c100 0 171 -36.4609 171 -105v-148c0 -40 3 -94 3 -94l-73 5l-3.85645 69.6455c-27.1279 -47.0742 -70.8525 -77.6455 -120.144 -77.6455c-75.5996 0 -126 42 -126 105c0 60 55.5996 100 139 100h101z" />
    <glyph glyph-name="agrave.s01" unicode="&#xe002;" horiz-adv-x="385" 
d="M231 411l-123 71v59h54l79 -117zM260 196.875l-45 -46.875h-50c-38.4004 0 -64 -20 -64 -50s24 -50 60 -50c54.6484 0 99 60.4805 99 135v11.875zM260 200v35c0 32.334 -29 55 -91 55c-32.7002 0 -77.3281 -9.74512 -104 -28.6631v70.9697
c32.8066 8.95508 69.9932 12.6934 104 12.6934c100 0 171 -36.4609 171 -105v-148c0 -40 3 -94 3 -94l-73 5l-3.85645 69.6455c-27.1279 -47.0742 -70.8525 -77.6455 -120.144 -77.6455c-75.5996 0 -126 42 -126 105c0 60 55.5996 100 139 100h101z" />
    <glyph glyph-name="aacute.s01" unicode="&#xe003;" horiz-adv-x="385" 
d="M155 411l-10 13l79 117h54v-59zM260 196.875l-45 -46.875h-50c-38.4004 0 -64 -20 -64 -50s24 -50 60 -50c54.6484 0 99 60.4805 99 135v11.875zM260 200v35c0 32.334 -29 55 -91 55c-32.7002 0 -77.3281 -9.74512 -104 -28.6631v70.9697
c32.8066 8.95508 69.9932 12.6934 104 12.6934c100 0 171 -36.4609 171 -105v-148c0 -40 3 -94 3 -94l-73 5l-3.85645 69.6455c-27.1279 -47.0742 -70.8525 -77.6455 -120.144 -77.6455c-75.5996 0 -126 42 -126 105c0 60 55.5996 100 139 100h101z" />
    <glyph glyph-name="acircumflex.s01" unicode="&#xe004;" horiz-adv-x="385" 
d="M203 536l96 -66v-54h-23l-83 70.7324l-83 -70.7324h-23v54l96 66h20zM260 196.875l-45 -46.875h-50c-38.4004 0 -64 -20 -64 -50s24 -50 60 -50c54.6484 0 99 60.4805 99 135v11.875zM260 200v35c0 32.334 -29 55 -91 55c-32.7002 0 -77.3281 -9.74512 -104 -28.6631
v70.9697c32.8066 8.95508 69.9932 12.6934 104 12.6934c100 0 171 -36.4609 171 -105v-148c0 -40 3 -94 3 -94l-73 5l-3.85645 69.6455c-27.1279 -47.0742 -70.8525 -77.6455 -120.144 -77.6455c-75.5996 0 -126 42 -126 105c0 60 55.5996 100 139 100h101z" />
    <glyph glyph-name="atilde.s01" unicode="&#xe005;" horiz-adv-x="385" 
d="M303 470c-14 -25 -32 -39 -53 -39c-17 0 -37 9.25 -57 18.5s-40 18.5 -57 18.5c-21 0 -39 -15 -53 -40v55c14 25 32 39 53 39c17 0 37 -9.25 57 -18.5s40 -18.5 57 -18.5c21 0 39 15 53 40v-55zM260 196.875l-45 -46.875h-50c-38.4004 0 -64 -20 -64 -50s24 -50 60 -50
c54.6484 0 99 60.4805 99 135v11.875zM260 200v35c0 32.334 -29 55 -91 55c-32.7002 0 -77.3281 -9.74512 -104 -28.6631v70.9697c32.8066 8.95508 69.9932 12.6934 104 12.6934c100 0 171 -36.4609 171 -105v-148c0 -40 3 -94 3 -94l-73 5l-3.85645 69.6455
c-27.1279 -47.0742 -70.8525 -77.6455 -120.144 -77.6455c-75.5996 0 -126 42 -126 105c0 60 55.5996 100 139 100h101z" />
    <glyph glyph-name="adieresis.s01" unicode="&#xe006;" horiz-adv-x="385" 
d="M233 446v59c0 9.90039 1.09961 11 11 11h64v-59c0 -9.90039 -1.09961 -11 -11 -11h-64zM78 446v59c0 9.90039 1.09961 11 11 11h64v-59c0 -9.90039 -1.09961 -11 -11 -11h-64zM260 196.875l-45 -46.875h-50c-38.4004 0 -64 -20 -64 -50s24 -50 60 -50
c54.6484 0 99 60.4805 99 135v11.875zM260 200v35c0 32.334 -29 55 -91 55c-32.7002 0 -77.3281 -9.74512 -104 -28.6631v70.9697c32.8066 8.95508 69.9932 12.6934 104 12.6934c100 0 171 -36.4609 171 -105v-148c0 -40 3 -94 3 -94l-73 5l-3.85645 69.6455
c-27.1279 -47.0742 -70.8525 -77.6455 -120.144 -77.6455c-75.5996 0 -126 42 -126 105c0 60 55.5996 100 139 100h101z" />
    <glyph glyph-name="aring.s01" unicode="&#xe007;" horiz-adv-x="385" 
d="M105 475c0 51 32.7998 85 82 85s82 -34 82 -85s-32.7998 -85 -82 -85s-82 34 -82 85zM145 475c0 -27 16.7998 -45 42 -45s42 18 42 45s-16.7998 45 -42 45s-42 -18 -42 -45zM260 196.875l-45 -46.875h-50c-38.4004 0 -64 -20 -64 -50s24 -50 60 -50
c54.6484 0 99 60.4805 99 135v11.875zM260 200v35c0 32.334 -29 55 -91 55c-32.7002 0 -77.3281 -9.74512 -104 -28.6631v70.9697c32.8066 8.95508 69.9932 12.6934 104 12.6934c100 0 171 -36.4609 171 -105v-148c0 -40 3 -94 3 -94l-73 5l-3.85645 69.6455
c-27.1279 -47.0742 -70.8525 -77.6455 -120.144 -77.6455c-75.5996 0 -126 42 -126 105c0 60 55.5996 100 139 100h101z" />
    <glyph glyph-name="amacron.s01" unicode="&#xe008;" horiz-adv-x="385" 
d="M95 425v44c0 9.90039 1.09961 11 11 11h173v-44c0 -9.90039 -1.09961 -11 -11 -11h-173zM260 196.875l-45 -46.875h-50c-38.4004 0 -64 -20 -64 -50s24 -50 60 -50c54.6484 0 99 60.4805 99 135v11.875zM260 200v35c0 32.334 -29 55 -91 55
c-32.7002 0 -77.3281 -9.74512 -104 -28.6631v70.9697c32.8066 8.95508 69.9932 12.6934 104 12.6934c100 0 171 -36.4609 171 -105v-148c0 -40 3 -94 3 -94l-73 5l-3.85645 69.6455c-27.1279 -47.0742 -70.8525 -77.6455 -120.144 -77.6455c-75.5996 0 -126 42 -126 105
c0 60 55.5996 100 139 100h101z" />
    <glyph glyph-name="abreve.s01" unicode="&#xe009;" horiz-adv-x="385" 
d="M187 470c35.8799 0 65 29.1201 65 65h40c0 -72 -42 -120 -105 -120s-105 48 -105 120h35c0 -35.8799 31.3604 -65 70 -65zM260 196.875l-45 -46.875h-50c-38.4004 0 -64 -20 -64 -50s24 -50 60 -50c54.6484 0 99 60.4805 99 135v11.875zM260 200v35
c0 32.334 -29 55 -91 55c-32.7002 0 -77.3281 -9.74512 -104 -28.6631v70.9697c32.8066 8.95508 69.9932 12.6934 104 12.6934c100 0 171 -36.4609 171 -105v-148c0 -40 3 -94 3 -94l-73 5l-3.85645 69.6455c-27.1279 -47.0742 -70.8525 -77.6455 -120.144 -77.6455
c-75.5996 0 -126 42 -126 105c0 60 55.5996 100 139 100h101z" />
    <glyph glyph-name="uni0201.s01" unicode="&#xe00a;" horiz-adv-x="385" 
d="M300 415l-133 81v39h39l101 -109zM160 415l-133 81v39h39l101 -109zM260 196.875l-45 -46.875h-50c-38.4004 0 -64 -20 -64 -50s24 -50 60 -50c54.6484 0 99 60.4805 99 135v11.875zM260 200v35c0 32.334 -29 55 -91 55c-32.7002 0 -77.3281 -9.74512 -104 -28.6631
v70.9697c32.8066 8.95508 69.9932 12.6934 104 12.6934c100 0 171 -36.4609 171 -105v-148c0 -40 3 -94 3 -94l-73 5l-3.85645 69.6455c-27.1279 -47.0742 -70.8525 -77.6455 -120.144 -77.6455c-75.5996 0 -126 42 -126 105c0 60 55.5996 100 139 100h101z" />
    <glyph glyph-name="uni0203.s01" unicode="&#xe00b;" horiz-adv-x="385" 
d="M187 480c-35.8799 0 -65 -29.1201 -65 -65h-40c0 72 42 120 105 120s105 -48 105 -120h-35c0 35.8799 -31.3604 65 -70 65zM260 196.875l-45 -46.875h-50c-38.4004 0 -64 -20 -64 -50s24 -50 60 -50c54.6484 0 99 60.4805 99 135v11.875zM260 200v35
c0 32.334 -29 55 -91 55c-32.7002 0 -77.3281 -9.74512 -104 -28.6631v70.9697c32.8066 8.95508 69.9932 12.6934 104 12.6934c100 0 171 -36.4609 171 -105v-148c0 -40 3 -94 3 -94l-73 5l-3.85645 69.6455c-27.1279 -47.0742 -70.8525 -77.6455 -120.144 -77.6455
c-75.5996 0 -126 42 -126 105c0 60 55.5996 100 139 100h101z" />
    </font>
</defs>
</svg>
